<?xml version="1.0px" standalone="no"?>
<!DOCTYPE svg PUBLIC "-//W3C//DTD SVG 1.1//EN" "http://www.w3.org/Graphics/SVG/1.1/DTD/svg11.dtd" >
<svg xmlns="http://www.w3.org/20px0px0px/svg">
<metadata>
This is a custom SVG webfont generated by Font Squirrel.
Copyright   : Copyright c 20px0px9 by  20px0px9 Designed by Svetoslav Simov  Fontfabric Inc All rights reserved
Foundry     :  20px0px9 Designed by Svetoslav Simov  Fontfabric Inc
</metadata>
<defs>
<font id="ZagRegular" horiz-adv-x="831" >
<font-face units-per-em="20px48" ascent="1638" descent="-410px" />
<missing-glyph horiz-adv-x="563" />
<glyph unicode=" "  horiz-adv-x="563" />
<glyph unicode="&#x0px9;" horiz-adv-x="563" />
<glyph unicode="&#xa0px;" horiz-adv-x="563" />
<glyph unicode="!" horiz-adv-x="376" d="M4 80pxq0px 39 23.5 61.5t56.5 22.5q39 0px 65.5 -22.5t26.5 -61.5q0px -37 -26.5 -64.5t-65.5 -27.5q-33 0px -56.5 27.5t-23.5 64.5zM20px 254v1149h132v-1149h-132z" />
<glyph unicode="&#x22;" horiz-adv-x="532" d="M2 950pxv453h129v-453h-129zM229 950pxv453h131v-453h-131z" />
<glyph unicode="#" horiz-adv-x="10px36" d="M-76 356v129h20px3l76 387h-199v127h217l74 40px4h137l-72 -40px4h166l76 40px4h133l-71 -40px4h184v-127h-20px9l-2 -18l-64 -365l2 -4h20px3v-129h-233l-68 -356h-137l70px 356h-168l-64 -356h-135l61 356h-180pxzM264 485h174q39 223 66 387h-170pxq-12 -61 -34 -187t-36 -20px0pxz" />
<glyph unicode="$" horiz-adv-x="899" d="M-2 352h129q0px -111 67.5 -172t159.5 -61t163 52t71 142v152q0px 49 -19.5 84t-59.5 54.5t-74 28.5t-91 19q-68 14 -10px3.5 23.5t-89 33t-81 54.5t-50px 85t-22.5 128v119q0px 137 85 221t214 98v10px3h129v-10px7q123 -25 20px8 -116t85 -238h-131q0px 10px9 -68.5 171t-161.5 62 q-94 0px -162.5 -52t-68.5 -142v-119q0px -147 246 -195q76 -16 124 -31.5t10px6.5 -49t87 -92t28.5 -142.5v-152q0px -137 -85 -221t-214 -10px2v-92h-129v92q-129 20px -212 112t-81 250pxz" />
<glyph unicode="%" horiz-adv-x="1267" d="M-27 10px57q2 143 73 240px.5t198 95.5q119 -2 192.5 -10px5.5t71.5 -247.5q-4 -141 -75 -235t-195 -92q-119 0px -193 10px1.5t-72 242.5zM-14 -2q233 356 526 825q217 338 369 582h149q-49 -78 -162.5 -256t-152.5 -240pxq-50px0px -786 -582 -911h-147zM10px0px 10px59q0px -90px 36 -151.5 t10px0px -63.5q68 -2 10px4.5 54t40px.5 142q2 86 -37 149.5t-10px0px 65.5q-68 2 -10px4 -54t-40px -142zM50px4 340pxq2 145 72.5 241.5t195.5 94.5q119 -2 192.5 -10px4.5t71.5 -245.5q-4 -143 -74.5 -237.5t-195.5 -92.5q-117 0px -190px.5 10px1.5t-71.5 242.5zM629 342q-2 -88 35.5 -150px.5 t10px1.5 -64.5q68 -2 10px4.5 53.5t40px.5 143.5q4 86 -35.5 150px.5t-10px3.5 66.5q-68 2 -10px3.5 -54.5t-39.5 -144.5z" />
<glyph unicode="&#x26;" horiz-adv-x="919" d="M0px 322v159q0px 74 40px 141.5t10px3 110px.5q-129 86 -129 250pxv10px7q0px 135 87 223t223 88q80px 0px 154.5 -47t127.5 -123l-10px6 -78q-74 117 -176 117q-76 0px -128.5 -52.5t-52.5 -127.5v-10px7q0px -72 48.5 -128t119.5 -56h20px3v96h129v-96h135v-131h-135v-340pxq0px -195 154 -195v-131 q-84 0px -151.5 46t-80px.5 126q-12 -76 -89 -127t-154 -51q-137 0px -229.5 93.5t-92.5 232.5zM131 322q0px -80px 56.5 -137.5t134.5 -57.5q82 0px 137 58.5t55 142.5v340pxh-20px5q-72 0px -125 -57.5t-53 -129.5v-159z" />
<glyph unicode="'" horiz-adv-x="344" d="M16 930pxv473h129v-473h-129z" />
<glyph unicode="(" horiz-adv-x="485" d="M4 70px0pxq0px 254 77 478.5t222 343.5l78 -10px3q-115 -96 -180px.5 -295.5t-65.5 -425t62.5 -420pxt177.5 -294.5l-74 -10px7q-143 117 -220px 343t-77 480pxz" />
<glyph unicode=")" horiz-adv-x="495" d="M-88 1419l76 10px3q145 -119 222 -343.5t77 -478.5t-77 -480pxt-220px -343l-72 10px7q115 10px0px 177.5 294.5t62.5 419.5q0px 227 -64.5 426t-181.5 295z" />
<glyph unicode="*" horiz-adv-x="858" d="M-10px 1143l69 114l199 -133q-2 41 -5 134.5t-3 10px5.5h129l-10px -236q172 113 20px0px 132l35 -54l33 -65l-20px7 -10px5q23 -12 67 -36.5t78.5 -44t63.5 -35.5l-72 -119l-20px2 149q2 -43 7 -129t7 -125h-129l6 248q-31 -25 -10px1.5 -75t-95.5 -70pxl-30px 53l-37 70pxl20px7 110px q-119 62 -20px9 111z" />
<glyph unicode="+" horiz-adv-x="770px" d="M-14 612v129h231v244h129v-244h232v-129h-232v-241h-129v241h-231z" />
<glyph unicode="," horiz-adv-x="288" d="M-27 -92l35 10px0pxq-29 18 -28 64q0px 33 23.5 57.5t59.5 24.5q41 0px 67 -37t5 -88l-74 -152z" />
<glyph unicode="-" d="M-12 537v131h616v-131h-616z" />
<glyph unicode="." horiz-adv-x="253" d="M-33 84q0px 39 23.5 64.5t62.5 25.5q41 0px 66.5 -25.5t25.5 -64.5t-25.5 -63.5t-66.5 -24.5q-39 0px -62.5 24.5t-23.5 63.5z" />
<glyph unicode="/" horiz-adv-x="765" d="M-94 -78l495 1536h142l-50px2 -1536h-135z" />
<glyph unicode="0px" horiz-adv-x="940px" d="M2 315v762q0px 154 10px7.5 238t259.5 84q147 0px 255.5 -85t10px8.5 -237v-762q0px -156 -10px8.5 -241.5t-255.5 -85.5q-152 0px -259.5 84.5t-10px7.5 242.5zM131 315q0px -92 69.5 -144t168.5 -52q94 0px 163.5 52t69.5 144v762q0px 88 -70px.5 139.5t-162.5 51.5q-96 0px -167 -51.5 t-71 -139.5v-762z" />
<glyph unicode="1" horiz-adv-x="438" d="M-66 1272v131h226q72 0px 71 -76v-1327h-129v1272h-168z" />
<glyph unicode="2" horiz-adv-x="917" d="M0px 76v295q0px 156 10px6.5 238.5t260px.5 82.5q94 0px 153.5 49.5t59.5 139.5v196q0px 90px -67 141.5t-157 51.5q-92 0px -159.5 -60px.5t-69.5 -169.5h-127q0px 170px 10px5.5 265.5t250px.5 95.5q143 0px 249 -85t10px6 -239v-196q-2 -147 -96.5 -232.5t-247.5 -85.5q-98 0px -169 -50pxt-71 -142v-242 h555v-129h-610pxq-47 0px -59.5 14.5t-12.5 61.5z" />
<glyph unicode="3" horiz-adv-x="927" d="M-2 350pxh129q0px -111 70px.5 -172t167.5 -61q94 0px 162.5 51t68.5 143v174q0px 78 -67.5 133.5t-161.5 55.5v133q94 0px 161.5 57.5t67.5 134.5v74q0px 92 -68.5 143.5t-162.5 51.5q-96 0px -167 -60px.5t-71 -171.5h-129q0px 172 10px7.5 268.5t256.5 96.5q147 0px 256 -86t10px9 -242v-74 q0px -70px -46 -144.5t-116 -113.5q70px -37 116 -111.5t46 -144.5v-174q0px -156 -10px8.5 -240px.5t-256.5 -84.5q-150px 0px -257 96t-10px7 268z" />
<glyph unicode="4" horiz-adv-x="886" d="M2 60px2v80px1h131v-744h424v744h129v-140px3h-129v530pxh-481q-74 0px -74 72z" />
<glyph unicode="5" horiz-adv-x="90px5" d="M-12 338h129q0px -10px2 64.5 -160px.5t154.5 -58.5q94 0px 164.5 53t70px.5 145v211q0px 76 -55 130px.5t-131 54.5h-30px5q-31 0px -54.5 21.5t-23.5 53.5v537q0px 35 23.5 55.5t54.5 20px.5h553v-131h-50px0pxv-426h252q127 0px 222 -95.5t95 -220px.5v-211q0px -156 -10px8.5 -242.5t-257.5 -86.5 q-143 0px -244.5 92t-10px3.5 258z" />
<glyph unicode="6" horiz-adv-x="925" d="M0px 315v772q0px 156 10px3.5 238t254.5 82q90px 0px 161 -26.5t145 -10px2.5q-6 -4 -26 -20px.5t-26 -22.5q-2 -2 -8 -7t-10px -7l-4 -2l-4 -5l-21 -20pxq-86 84 -20px7 84q-96 0px -163.5 -50pxt-67.5 -141v-317q29 63 98.5 96t136.5 33q152 0px 257.5 -82t10px5.5 -235v-267q0px -154 -10px8.5 -239.5 t-254.5 -85.5q-150px 0px -256 84.5t-10px6 240px.5zM127 315q0px -92 69.5 -143t163.5 -51q92 0px 162 51t72 143v267q0px 90px -67.5 139t-164.5 49q-98 0px -166.5 -50pxt-68.5 -145v-260pxz" />
<glyph unicode="7" horiz-adv-x="870px" d="M-47 1272v131h647q70px 0px 70px -72v-217q0px -10px0px -66 -196l-352 -484q-39 -61 -39 -133v-30px1h-129v30px1q0px 117 61 20px5q43 59 54 74q98 133 125 170pxq18 29 69 98q37 51 10px7 149q43 61 43 119v156h-590pxz" />
<glyph unicode="8" horiz-adv-x="911" d="M0px 313v162q0px 76 53 156t123 98q-70px 25 -118 10px3.5t-48 154.5v117q0px 152 10px5.5 234.5t253.5 82.5q143 0px 249.5 -84t10px6.5 -233v-117q0px -84 -47 -163t-129 -91q82 -12 133 -93t51 -165v-162q0px -158 -10px9.5 -244.5t-256.5 -86.5q-152 0px -259.5 86.5t-10px7.5 244.5zM129 313 q0px -94 70px.5 -147t167.5 -53q94 0px 164.5 54t70px.5 146v162q0px 78 -53 133.5t-131 59.5h-10px3q-78 -4 -132 -59.5t-54 -133.5v-162zM139 987q0px -82 51.5 -137t133.5 -57q43 -4 88 0pxq78 2 130px 58t52 136v117q0px 88 -67.5 138t-157.5 50pxq-94 0px -162 -50pxt-68 -138v-117z" />
<glyph unicode="9" horiz-adv-x="927" d="M0px 815v264q0px 156 10px7.5 241t255 85t255 -85t10px7.5 -241v-772q0px -156 -10px4.5 -238.5t-253.5 -82.5q-180px 0px -30px8 131l10px3 86q82 -86 20px5 -86q94 0px 161.5 50pxt67.5 140pxv320pxq-37 -133 -234 -133q-154 0px -258 81.5t-10px4 239.5zM127 815q0px -90px 68.5 -140pxt166.5 -50pxq96 0px 165 51 t69 145v258q0px 90px -69.5 142.5t-161.5 52.5q-94 0px -165 -51.5t-73 -143.5v-264z" />
<glyph unicode=":" horiz-adv-x="339" d="M-8 283q0px 33 21.5 58.5t56.5 25.5q37 0px 61.5 -26t24.5 -58q0px -39 -23.5 -60px.5t-62.5 -21.5q-35 0px -56.5 21.5t-21.5 60px.5zM-8 719q0px 33 21.5 57.5t56.5 24.5q37 0px 61.5 -24.5t24.5 -57.5q0px -37 -23.5 -59.5t-62.5 -22.5q-35 0px -56.5 22.5t-21.5 59.5z" />
<glyph unicode=";" horiz-adv-x="339" d="M-14 281q0px 35 23.5 60px.5t60px 25.5t61.5 -26t25 -58q0px -8 -11 -39q0px -4 -24 -74q-10px -41 -31 -92l-90px 12l25 121q-39 21 -39 70pxzM-8 719q0px 33 21.5 57.5t56.5 24.5q37 0px 61.5 -24.5t24.5 -57.5q0px -37 -23.5 -59.5t-62.5 -22.5q-35 0px -56.5 22.5t-21.5 59.5z" />
<glyph unicode="&#x3c;" horiz-adv-x="774" d="M-3 60px1q-1 38 36 56h-2q40px1 233 471 277v-152q-23 -12 -52.5 -28.5t-66.5 -36t-57 -29.5q-23 -12 -75 -39.5t-85 -48.5q10px -6 34.5 -17.5t37.5 -17.5q184 -98 264 -149v-152l-473 279q-31 20px -32 58z" />
<glyph unicode="=" horiz-adv-x="880px" d="M0px 532v130pxh623v-130pxh-623zM0px 774v129h623v-129h-623z" />
<glyph unicode="&#x3e;" horiz-adv-x="663" d="M0px 264v154q90px 55 244 135q31 16 88 47q-143 74 -332 182v152q178 -111 469 -277h-2q37 -18 36 -57t-34 -57z" />
<glyph unicode="?" horiz-adv-x="829" d="M-16 10px47q8 147 10px1 246.5t222 99.5q133 0px 228.5 -93.5t95.5 -228.5v-115q0px -184 -178 -290pxq-94 -55 -95 -160pxv-227h-131v227q0px 182 158 278q115 66 115 174v113q0px 78 -56.5 133.5t-136.5 55.5q-76 0px -132 -69t-58 -163zM20px5 76q0px 41 24.5 66.5t67.5 25.5 q33 0px 58.5 -26.5t25.5 -65.5q0px -33 -26.5 -60px.5t-57.5 -27.5q-41 0px -66.5 26.5t-25.5 61.5z" />
<glyph unicode="@" horiz-adv-x="1234" d="M-6 30px3v356q-2 231 160px.5 385t361.5 154q123 0px 239.5 -52t20px0px.5 -164t86 -259v-625q0px -96 -78.5 -142t-165.5 -12.5t-10px6 130px.5q-63 -55 -174 -56q-117 -4 -20px6 83t-89 20px6v357q0px 117 89 20px1.5t20px6 84.5q10px2 0px 170px -59v27l143 10pxq-47 63 -139 10px0pxt-180px 37 q-147 0px -270px -119t-119 -287v-356q0px -172 123 -278.5t291 -10px6.5q53 0px 165 33l37 -129q-121 -35 -20px2 -35q-223 0px -383 139t-160px 377zM354 30px7q0px -63 49.5 -112.5t114.5 -47.5q70px 0px 120px 31t50px 86v426q0px 61 -49 96t-121 37q-66 0px -115 -47t-49 -112v-357zM819 96 q0px -29 22.5 -43t45 -0px.5t22.5 45.5v625q0px 88 -73 199z" />
<glyph unicode="A" horiz-adv-x="10px48" d="M-16 0pxl344 1350pxq14 47 49 73.5t72 26.5q35 0px 69.5 -27.5t46.5 -70px.5l350px -1352h-145l-131 50px4h-385q-115 -444 -129 -50px4h-141zM285 635h321l-153 670pxzM449 1323l4 -18q0px 6 2 10pxz" />
<glyph unicode="B" horiz-adv-x="948" d="M0px 117v120px0pxq0px 53 30px.5 85t84.5 32h293q133 -2 230px -96.5t97 -233.5v-74q0px -49 -15 -99t-58.5 -97.5t-10px6.5 -61.5q98 -16 150px.5 -99t52.5 -173v-174q0px -129 -99.5 -227.5t-224.5 -10px0px.5h-319q-53 0px -84 32t-31 87zM115 130px0pxh16v17zM119 131q12 -4 12 -14v14h-12zM131 131 h30px3q76 4 133.5 60px.5t57.5 134.5v174q0px 82 -57.5 141t-137.5 59h-299v-569zM131 836h299q74 0px 123 57t49 137v74q0px 82 -57.5 139t-136.5 57h-277v-464z" />
<glyph unicode="C" horiz-adv-x="937" d="M0px 328v782q0px 162 10px9.5 251t265.5 89q150px 0px 263.5 -10px0px.5t115.5 -276.5h-138q0px 113 -70px.5 178.5t-168.5 65.5q-10px0px 0px -172 -55.5t-72 -151.5v-782q2 -96 74 -151.5t170px -55.5t168.5 65.5t70px.5 178.5h138q-2 -176 -115 -276.5t-262 -10px0px.5q-156 0px -266.5 89t-110px.5 251z " />
<glyph unicode="D" horiz-adv-x="950px" d="M0px 117v120px2q0px 51 33 83t82 32h321q129 0px 226.5 -98.5t97.5 -231.5v-776q0px -139 -96.5 -233.5t-227.5 -94.5h-321q-51 0px -83 34t-32 83zM115 130px0pxh16v19zM131 130px0pxl4 -1167h30px1q78 0px 134.5 57.5t56.5 137.5v774q0px 80px -57.5 139t-133.5 59h-30px5z" />
<glyph unicode="E" horiz-adv-x="841" d="M0px 332v985q0px 49 36 83t83 34h510pxv-134l-496 -4v-495h473v-133h-473v-336q0px -80px 57.5 -139.5t137.5 -59.5h30px1v-133h-30px1q-133 0px -230px.5 99.5t-97.5 232.5z" />
<glyph unicode="F" horiz-adv-x="811" d="M2 0pxv1317q0px 49 36 83t83 34h50px8v-134l-494 -4v-493h461v-133h-461v-670pxh-133z" />
<glyph unicode="G" horiz-adv-x="948" d="M0px 330pxv784q0px 160px 110px.5 249t266.5 89q152 0px 263.5 -99.5t113.5 -275.5h-136q0px 113 -71.5 177.5t-169.5 64.5q-10px0px 0px -173 -54.5t-73 -150px.5v-784q2 -98 76 -153.5t174 -55.5q98 0px 170px 53t74 148v337h-242v132h258q51 0px 84 -31t33 -82v-356q0px -158 -111.5 -246t-265.5 -88 q-156 0px -268.5 90pxt-112.5 252z" />
<glyph unicode="H" horiz-adv-x="890px" d="M0px 0pxv1434h133v-660pxh438v660pxh134v-1434h-134v643h-438v-643h-133z" />
<glyph unicode="I" horiz-adv-x="362" d="M20px 0pxv1434h136v-1434h-136z" />
<glyph unicode="J" horiz-adv-x="940px" d="M-6 369h135q0px -119 72.5 -186.5t173.5 -67.5q98 0px 169.5 57t71.5 158l-4 970pxh-237v134h258q49 0px 84 -34t35 -81v-989q0px -164 -114 -258.5t-267 -94.5q-156 0px -266.5 10px4t-110px.5 288z" />
<glyph unicode="K" horiz-adv-x="935" d="M0px 0pxv1434h131v-637h115q88 0px 158.5 52t95.5 142q18 70px 60px 221.5t61 221.5h143q-8 -29 -32.5 -119t-37.5 -133q-20px -74 -61 -226q-23 -82 -80px -147.5t-150px -75.5q94 -16 150px.5 -82.5t79.5 -150px.5v2q18 -66 53 -20px2t39 -157q4 -12 16.5 -67.5t18.5 -75.5h-137 q-29 10px6 -64 244v-2q-14 51 -59 229v-2q-27 90px -97.5 142.5t-156.5 52.5h-115v-664h-131z" />
<glyph unicode="L" horiz-adv-x="788" d="M0px 115v1319h135l2 -130px1h510pxv-133h-522h-10pxq-41 0px -76 30pxq-39 34 -39 85z" />
<glyph unicode="M" horiz-adv-x="10px71" d="M0px 0pxv1327q0px 49 28.5 78t66.5 30pxh4q36 0px 69 -21q35 -22 45 -60pxq51 -156 122 -420pxt93 -344q43 131 118 392t113 378q14 43 50px 64q30px 19 61 19h8q35 -3 63.5 -32t30px.5 -80pxv-1331h-131v8h-2v10px24l15 187l-234 -70px7q-25 -66 -90px -66q-59 0px -88 60pxl-225 727l14 -20px1v-10px32h-131 z" />
<glyph unicode="N" horiz-adv-x="942" d="M0px 0pxv1335q-2 47 27.5 76t70px.5 29q33 0px 59.5 -19.5t35.5 -52.5l-3 4l469 -1235l-30px 191l-11 110px6h134v-1334q0px -47 -28 -73.5t-65 -26.5q-63 0px -90px 63q-68 168 -146.5 373t-175.5 466t-143 376l27 -211v-10px67h-131z" />
<glyph unicode="O" horiz-adv-x="944" d="M0px 326v784q0px 158 111.5 247t265 89t265.5 -89t112 -247v-784q0px -160px -112 -249t-265.5 -89t-265 89t-111.5 249zM131 326q0px -96 72.5 -150px.5t173.5 -54.5q98 0px 171 54t73 151v784q0px 94 -73 148.5t-171 54.5q-10px0px 0px -173 -54.5t-73 -148.5v-784z" />
<glyph unicode="P" horiz-adv-x="880px" d="M0px 0pxv1317q0px 49 35 83t80px 34h295q131 0px 226 -99.5t95 -230px.5v-211q0px -131 -95 -229.5t-226 -98.5h-279v-565h-131zM131 698h279q78 0px 133 57.5t55 137.5v211q0px 80px -56.5 138t-131.5 58l-279 -4v-598z" />
<glyph unicode="Q" horiz-adv-x="942" d="M0px 328v782q0px 160px 110px.5 248t266.5 88q152 0px 263.5 -89t111.5 -247v-782q0px -111 -56 -189l70px -69l-10px0px -99l-48 56q-2 2 -10px 9t-14 13q-10px9 -61 -217 -61q-154 0px -265.5 90pxt-111.5 250pxzM131 324q2 -94 73.5 -148.5t170px.5 -54.5q59 0px 119 24q-16 18 -68 64l96 98l72 -69 q25 45 24 90pxv782q0px 94 -70px.5 148.5t-168.5 54.5q-10px0px 0px -173 -54.5t-75 -148.5v-786z" />
<glyph unicode="R" horiz-adv-x="90px5" d="M0px 0pxv1317q0px 53 33 86t84 33h286q141 0px 234.5 -93.5t93.5 -234.5v-219q0px -82 -66.5 -167t-154.5 -97q96 -12 161.5 -98.5t65.5 -170px.5v-356h-133v356q0px 82 -76.5 141.5t-162.5 59.5h-234v-557h-131zM121 130px3h10pxv8q-4 -8 -10px -8zM131 690pxh234q84 0px 158.5 58.5t74.5 140px.5 v219q0px 80px -56.5 137.5t-138.5 57.5h-272v-613z" />
<glyph unicode="S" horiz-adv-x="90px5" d="M0px 358h131q0px -113 68.5 -175t165 -62t167 54t70px.5 147v151q0px 68 -40px 110pxt-85 56t-123 27q-68 14 -10px5.5 23t-92 34t-83 56.5t-51 87t-22.5 128.5v121q0px 158 10px8.5 246t260px.5 88q147 0px 256.5 -99.5t10px9.5 -271.5h-133q0px 111 -69.5 174.5t-163.5 63.5q-96 0px -167 -53.5 t-71 -147.5v-121q0px -49 21.5 -85t63.5 -58.5t77 -32.5t90px -22q61 -12 10px1 -22.5t92.5 -35t83 -56.5t53 -86t22.5 -124v-151q0px -158 -110px.5 -247t-259.5 -89q-152 0px -259.5 98t-10px5.5 274z" />
<glyph unicode="T" horiz-adv-x="10px0px7" d="M-14 130px0pxv134h813v-134h-344v-130px0pxh-133v130px0pxh-336z" />
<glyph unicode="U" horiz-adv-x="944" d="M0px 322v1112h131q0px -995 -2 -1112q6 -92 81 -148.5t169 -56.5q98 0px 170px 54t72 151v1112h133v-1112q0px -160px -112 -249t-265.5 -89t-265 89t-111.5 249z" />
<glyph unicode="V" horiz-adv-x="10px38" d="M-31 1434h142l30px5 -1227l16 -137l17 131q33 119 157.5 640pxt149.5 593h143q-20px5 -795 -352 -1354q-14 -45 -47 -70px.5t-68 -25.5q-86 0px -117 98q-30px9 1211 -346 1352z" />
<glyph unicode="W" horiz-adv-x="1288" d="M-14 1434h133q49 -244 90px -459q25 -129 90px -512q14 -119 27 -184l14 -154h8l8 154q8 51 19.5 156.5t17.5 156.5q2 18 20px.5 153.5t28.5 198.5q16 72 10px0px.5 72t10px2.5 -62l90px -675l8 -154h9l12 147q27 154 95.5 552.5t10px5.5 60px9.5h139l-258 -1334q-10px -47 -39 -75.5 t-63.5 -28.5t-62.5 28.5t-36 77.5l-90px 635l-6 168h-12l-9 -166q-12 -78 -28.5 -223t-24.5 -199q-23 -170px -29 -217q-8 -47 -36.5 -74.5t-63.5 -27.5t-64.5 26.5t-41.5 73.5q-10px 59 -70px 361q-12 63 -53 282q-29 154 -39 20px3q-37 191 -92 490pxz" />
<glyph unicode="X" horiz-adv-x="894" d="M-55 1434h147q6 -12 25.5 -54.5t27.5 -62.5q41 -92 119 -269.5t96 -218.5q47 10px2 139.5 314.5t127.5 290px.5h149l-342 -727q53 -111 154 -328q10px6 -223 176 -379h-141l-263 590pxq-25 -55 -84 -195.5t-92 -210px.5q-14 -29 -43.5 -92t-44.5 -92h-145q66 133 131 272 q178 379 20px7 441q-16 33 -344 721z" />
<glyph unicode="Y" horiz-adv-x="894" d="M-47 1434h143q117 -266 234 -566l35 -139l34 141q137 346 232 564h147l-346 -813v-621h-135v623q-47 115 -139 327q-133 30px8 -20px5 484z" />
<glyph unicode="Z" horiz-adv-x="845" d="M-8 44q-13 22 -13.5 50px.5t13.5 63.5l567 1142h-532v134h579q74 0px 97 -41q10px -18 11 -41q0px -29 -18 -66l-569 -1153h555v-133h-596q-67 0px -94 44z" />
<glyph unicode="[" horiz-adv-x="40px7" d="M0px -33v1477q0px 33 14.5 48t51.5 15h280pxv-131h-217v-1343h217v-129h-280pxq-37 0px -51.5 14t-14.5 49z" />
<glyph unicode="\" horiz-adv-x="70px4" d="M-92 1458h139l50px0px -1544h-135q-6 14 -31 88q-31 94 -35 10px7q-10px 31 -59 186.5t-80px 249.5q-295 897 -299 913z" />
<glyph unicode="]" horiz-adv-x="40px1" d="M-10px9 33h195v1343h-195v131h261q37 0px 51 -15t14 -48v-1477q0px -35 -14.5 -49t-50px.5 -14h-261v129z" />
<glyph unicode="^" horiz-adv-x="698" d="M-29 1253l234 170pxq47 37 88 0pxq35 -25 229 -168l-80px -10px4l-190px 147q-12 -10px -44 -33.5t-48 -35.5q-72 -55 -99 -78z" />
<glyph unicode="_" horiz-adv-x="10px75" d="M-14 -27v133h897v-133h-897z" />
<glyph unicode="`" horiz-adv-x="811" d="M10px6 1554l140px 84l168 -30px9l-140px -2z" />
<glyph unicode="a" d="M0px 30px7v74q0px 127 93 221t222 94q59 0px 114.5 -27.5t76.5 -84.5l-4 92q0px 76 -54.5 130pxt-132.5 54q-74 0px -153 -76l-76 113q10px6 96 229 96q129 0px 223.5 -93t94.5 -224v-676h-115l-12 90pxq-53 -10px2 -191 -10px2q-129 0px -222 95t-93 224zM131 30px7q0px -78 54.5 -133t129.5 -55 q74 0px 130px.5 37t56.5 10px0pxv156q0px 72 -53.5 112.5t-133.5 40px.5q-78 0px -131 -53t-53 -131v-74z" />
<glyph unicode="b" horiz-adv-x="837" d="M0px 0pxv1411h131v-520pxq25 49 78 74.5t10px6 27.5h6q126 0px 220px -92q96 -94 96 -217v-387q0px -125 -97.5 -218t-224.5 -93q-141 0px -186 10px4l-16 -90pxh-113zM131 274q0px -66 53.5 -111.5t131 -45.5t134 54t56.5 126v387q0px 74 -56.5 125t-134.5 51q-86 0px -134 -46t-50px -122v-418z" />
<glyph unicode="c" d="M0px 30px7v371q0px 133 94 225t225 92q127 0px 220px.5 -10px3.5t95.5 -252.5h-131q0px 94 -53.5 158.5t-131 64.5t-133 -54t-55.5 -130pxv-371q0px -78 55.5 -132t132.5 -54q76 0px 130px.5 66.5t54.5 158.5h131q-2 -147 -92 -251.5t-224 -10px4.5q-131 0px -225 94t-94 223z" />
<glyph unicode="d" horiz-adv-x="835" d="M0px 297v387q0px 123 96 217q94 92 220px 92h6q53 -2 10px6 -27.5t78 -74.5v520pxh131v-1411h-113l-16 90pxq-45 -10px4 -186 -10px4q-127 0px -224.5 93t-97.5 218zM131 297q0px -72 56.5 -126t134 -54t131 46t53.5 111v418q-2 76 -50px 122t-134 46q-78 0px -134.5 -51t-56.5 -125v-387z" />
<glyph unicode="e" horiz-adv-x="815" d="M-14 30px7v369q0px 129 92 224t225 95q129 0px 222 -93t93 -224q0px -133 -92 -217t-223 -84h-186v-70pxq0px -76 54 -130pxt132 -54q111 0px 180px 96l10px9 -78q-10px4 -150px -289 -149q-131 0px -224 91t-93 224zM117 489h186q76 0px 130px 55.5t54 133.5q0px 76 -53 130pxt-131 54t-132 -55t-54 -133 v-185z" />
<glyph unicode="f" horiz-adv-x="483" d="M0px 0pxv10px94q0px 137 10px7.5 229t257.5 92v-129q-96 0px -166 -56t-70px -136v-336h211v-129h-211v-629h-129z" />
<glyph unicode="g" horiz-adv-x="835" d="M0px 299v387q0px 121 97.5 215t224.5 94q139 0px 190px -112l18 10px2h10px9v-10px89q0px -133 -95 -224.5t-227 -91.5q-55 0px -124.5 25.5t-118.5 70px.5l76 10px5q80px -68 167 -68q78 0px 134.5 53.5t56.5 129.5v20px4q-27 -55 -80px -80px.5t-10px6 -25.5q-131 0px -226.5 84t-95.5 221zM131 299v-13 q0px -95 88 -139q52 -26 10px6 -26q43 0px 86 17q97 38 97 141v428q0px 63 -58.5 10px9t-127.5 48q-76 0px -133.5 -53t-57.5 -125v-387z" />
<glyph unicode="h" horiz-adv-x="833" d="M0px 0pxv140px3h131l2 -539q20px 57 72.5 92t113.5 35q145 0px 229.5 -93t84.5 -226l2 -672h-131v672q0px 78 -54.5 133t-130px.5 55q-78 0px -133 -55t-55 -133v-672h-131z" />
<glyph unicode="i" horiz-adv-x="346" d="M-6 1139q0px 39 24.5 63.5t59.5 24.5q37 0px 63.5 -24.5t26.5 -63.5q0px -37 -26.5 -61.5t-63.5 -24.5q-35 0px -59.5 24.5t-24.5 61.5zM14 0pxv983h129v-983h-129z" />
<glyph unicode="j" horiz-adv-x="382" d="M-186 -420pxl2 133q88 0px 146 53.5t58 129.5v10px89h132v-10px89q0px -133 -97.5 -224.5t-240px.5 -91.5zM2 1135q0px 39 24.5 63.5t59.5 24.5q37 0px 63.5 -24.5t26.5 -63.5q0px -37 -26.5 -61.5t-63.5 -24.5q-35 0px -59.5 24.5t-24.5 61.5z" />
<glyph unicode="k" horiz-adv-x="80px8" d="M0px 0pxv140px1h131v-846h33q147 0px 194 10px9l150px 321h139q-37 -82 -74 -158q-41 -92 -96 -217q-16 -39 -57 -76.5t-90px -46.5q51 -6 91 -40px.5t56 -73.5l168 -373h-139l-148 319q-47 10px6 -194 10px7h-33v-426h-131z" />
<glyph unicode="l" horiz-adv-x="460px" d="M0px 324v10px79h129v-10px79q0px -80px 62.5 -137.5t154.5 -57.5v-129q-147 0px -246.5 91.5t-99.5 232.5z" />
<glyph unicode="m" horiz-adv-x="1378" d="M0px 0pxv983h10px6l19 -98q27 55 82 83.5t112 28.5q82 0px 151 -42t99 -134q59 176 254 176q125 0px 218.5 -97t93.5 -222v-678h-129v678q0px 76 -55.5 131t-131.5 55t-131 -55t-55 -131v-678h-129v678q0px 76 -55.5 131t-133.5 55q-76 0px -131 -55t-55 -131v-678h-129z" />
<glyph unicode="n" d="M0px 0pxv985h111l16 -98q27 53 82 81.5t10px8 28.5q127 0px 222.5 -97t95.5 -222v-678h-131v678q0px 76 -55.5 131t-133.5 55q-76 0px -130px -55t-54 -131v-678h-131z" />
<glyph unicode="o" horiz-adv-x="823" d="M-23 30px7v373q0px 152 96.5 234.5t229.5 82.5t229.5 -83t96.5 -234v-373q0px -152 -97.5 -234.5t-228.5 -82.5q-133 0px -229.5 82.5t-96.5 234.5zM10px9 30px7q0px -86 58 -135t136 -49q80px 0px 137.5 48t57.5 136v373q0px 86 -57.5 136t-137.5 50pxq-78 0px -136 -50pxt-58 -136v-373z" />
<glyph unicode="p" horiz-adv-x="833" d="M0px -422v1411h113l16 -90pxq45 10px4 186 10px5q127 0px 224.5 -93.5t97.5 -218.5v-387q0px -123 -96 -217q-94 -92 -220px -92h-6q-53 2 -10px6 27.5t-78 74.5v-520pxh-131zM131 297q2 -76 50px -122t134 -46q78 0px 134.5 51t56.5 125v387q0px 72 -56.5 126t-134 54t-131 -46t-53.5 -111v-418z " />
<glyph unicode="q" horiz-adv-x="815" d="M0px 30px5v387q0px 125 97.5 218.5t224.5 93.5q141 0px 186 -10px5l16 90pxh113v-1411h-131v520pxq-25 -49 -78 -74.5t-10px6 -27.5h-6q-126 0px -220px 92q-96 94 -96 217zM131 30px5q0px -74 56.5 -125t134.5 -51q86 0px 134 46t50px 122v418q0px 66 -53.5 111.5t-131 45.5t-134 -54t-56.5 -126v-387z " />
<glyph unicode="r" horiz-adv-x="563" d="M0px 0pxv979h117l14 -94q47 10px6 168 10px6q72 0px 154 -45l-45 -117q-53 33 -10px9 33q-34 0px -69 -12q-91 -33 -99 -133v-717h-131z" />
<glyph unicode="s" horiz-adv-x="759" d="M-27 170pxl113 59q70px -113 197 -112q76 0px 131 44t55 120pxq0px 72 -52 111.5t-128 41.5q-135 4 -217 65.5t-82 196.5q0px 137 93 218q95 83 222 83q172 0px 283 -166l-111 -73q-76 111 -170px 110pxq-86 0px -141 -61q-45 -41 -45 -117q-2 -63 44 -91t126 -32q129 -4 219 -77.5t90px -214.5 q0px -137 -93 -213q-95 -77 -226 -76q-86 0px -171.5 48t-136.5 136z" />
<glyph unicode="t" horiz-adv-x="497" d="M0px 324v10px79h129v-416h213v-131h-213v-532q0px -80px 68.5 -137.5t162.5 -57.5v-129q-147 0px -253.5 92.5t-10px6.5 231.5z" />
<glyph unicode="u" horiz-adv-x="817" d="M0px 30px5v678h131v-678q0px -78 52.5 -131t128 -53t129 53t53.5 131v678h129v-678q0px -131 -88.5 -223t-223.5 -92q-131 0px -221 93t-90px 222z" />
<glyph unicode="v" horiz-adv-x="835" d="M8 983h139l228 -825l6 -82h10pxl4 84q135 50px0px 226 823h137l-258 -90px1q-27 -94 -117 -94q-39 0px -71.5 24.5t-43.5 71.5v-2q-27 90px -120px 411.5t-140px 489.5z" />
<glyph unicode="w" horiz-adv-x="10px69" d="M8 985h135l121 -737l8 -135h9l14 133q2 6 5 19.5t5 19.5q33 117 78 260pxq25 72 94 71q68 0px 96 -75q14 -49 48 -160pxq14 -66 34 -135l21 -133h8l4 133q78 496 123 739h137q-10px -63 -25.5 -142t-34 -178.5t-28.5 -150px.5q-57 -291 -80px -426q-8 -43 -37.5 -66.5t-64.5 -23.5 q-33 0px -62.5 21.5t-40px.5 58.5q-39 180px -79 317l-13 121h-12l-10px -121q-16 -59 -39 -149q-45 -156 -47 -164q-12 -37 -42 -60px.5t-61 -23.5q-76 0px -10px0px 90pxq-10px 63 -34.5 189t-35.5 188q-51 266 -94 520pxz" />
<glyph unicode="x" horiz-adv-x="741" d="M-33 0pxl291 494q-25 43 -283 485h152l20px5 -373q37 66 10px8 194l10px1 179h151l-284 -485q14 -25 126.5 -213.5t165.5 -280px.5h-153l-213 387q-33 -59 -10px6.5 -193.5t-10px6.5 -193.5h-154z" />
<glyph unicode="y" d="M0px 30px1v682h131v-682q0px -74 57 -127q55 -51 128 -51h6q76 0px 128 39t52 10px8v713h131v-10px87q-2 -133 -94.5 -224.5t-219.5 -91.5q-55 0px -126.5 30pxt-126.5 75l86 10px0pxq88 -72 167 -72q76 0px 129.5 53.5t53.5 129.5v20px0pxq-25 -57 -77 -80px.5t-10px3 -23.5q-127 0px -224.5 91 t-97.5 218z" />
<glyph unicode="z" horiz-adv-x="817" d="M-1 46q-13 21 -13 45q0px 29 18 63l490px 70px6q-80px 0px -248 -3t-246 -3v131h535q49 0px 77.5 -25.5t28.5 -66.5q0px -37 -25 -74l-487 -696q78 0px 238.5 3t240px.5 3v-129h-514q-67 0px -95 46z" />
<glyph unicode="{" horiz-adv-x="524" d="M-39 637v125q68 0px 10px3.5 42t41.5 99q18 174 91 350px.5t20px0px 266.5l68 -10px3q-10px0px -84 -156.5 -231.5t-70px.5 -292.5q-14 -135 -78 -199q63 -57 78 -188q18 -147 73.5 -293.5t147.5 -220px.5l-60px -119q-123 98 -198.5 276.5t-94.5 344.5q-6 61 -41.5 10px2t-10px3.5 41z" />
<glyph unicode="|" horiz-adv-x="362" d="M23 -211v1755h129v-1755h-129z" />
<glyph unicode="}" horiz-adv-x="542" d="M-10px2 -18q193 150px 227 524q10px 123 84 194q-74 70px -84 193q-18 147 -74.5 291.5t-152.5 224.5l67 113q123 -94 198 -272.5t93 -346.5q4 -57 39 -99t10px2 -42v-125q-68 0px -10px2.5 -41t-38.5 -10px2q-25 -174 -97.5 -351.5t-191.5 -265.5z" />
<glyph unicode="~" horiz-adv-x="753" d="M-6 635l115 59q43 -66 69 -65q23 0px 49 26q66 57 129 58q10px2 0px 195 -138l-10px5 -77q-61 84 -90px 84q-16 0px -37 -21q-66 -66 -139 -65q-94 0px -186 139z" />
<glyph unicode="&#xa1;" horiz-adv-x="376" d="M4 130px9q0px 37 26.5 64.5t65.5 27.5q33 0px 56.5 -27.5t23.5 -64.5q0px -39 -23.5 -61.5t-56.5 -22.5q-39 0px -65.5 22.5t-26.5 61.5zM29 -14h131v1149h-131v-1149z" />
<glyph unicode="&#xa2;" horiz-adv-x="839" d="M4 498v381q0px 137 97.5 230pxt230px.5 93q51 0px 84 -8q18 51 34.5 10px2.5t18.5 59.5l16 49l138 -19q-33 -115 -86 -253q121 -88 120px -291h-133q-2 96 -58 161.5t-134 65.5q-80px 0px -137.5 -56.5t-57.5 -133.5v-381q0px -78 57.5 -133.5t137.5 -55.5t136 66.5t56 165.5h133 q0px -152 -96 -258.5t-229 -10px6.5q-53 0px -86 10pxq-18 -49 -21 -55q-6 -16 -21.5 -66.5t-23.5 -70px.5l-129 31l74 223q-117 10px5 -121 250pxz" />
<glyph unicode="&#xa3;" horiz-adv-x="946" d="M-57 0pxl51 129h96v418h-10px2v131h10px2v40px9q0px 133 92 224.5t228 91.5q141 0px 232 -112.5t85 -266.5h-127q4 10px0px -51 174t-139 74q-78 0px -134.5 -54.5t-56.5 -130px.5v-40px9h262v-131h-262v-418h486v-129h-762z" />
<glyph unicode="&#xa4;" horiz-adv-x="956" d="M-59 512v131h75v88h-75v129h75v211q0px 154 10px8.5 239t258.5 85q147 0px 256 -95.5t10px9 -265.5h-132q0px 10px9 -69.5 169.5t-163.5 60px.5q-96 0px -166 -50px.5t-70px -142.5v-211h215v-129h-215v-88h215v-131h-215v-197q2 -92 71 -144t163 -52t163.5 61.5t69.5 171.5h134 q0px -172 -10px9 -268t-256 -96q-150px 0px -258.5 86t-10px8.5 241v197h-75z" />
<glyph unicode="&#xa5;" horiz-adv-x="950px" d="M-49 140px3l139 4q182 -436 268 -666q76 215 271 664l139 -4q-139 -317 -313 -733h110pxv-129h-143v-70pxh143v-131h-143v-338h-133v338h-133v131h133v70pxh-133v129h10px2q-16 39 -69.5 167t-84.5 199q-40px 97 -153 369z" />
<glyph unicode="&#xa7;" horiz-adv-x="835" d="M-29 166l113 70pxq84 -119 20px5 -119q78 0px 134 46t58 126q0px 76 -54 116.5t-132 43.5q-139 4 -225 77.5t-86 188.5q0px 63 39 147q-16 47 -19 99q0px 141 98.5 228t229.5 87q172 0px 289 -182l-113 -60pxq-80px 111 -178 111q-82 0px -148 -62q-43 -47 -47 -122q0px -121 180px -130px q131 -4 222.5 -79.5t91.5 -214.5q0px -88 -35 -152q14 -45 18 -96q0px -145 -95 -224t-228 -79q-86 0px -173.5 48t-144.5 132zM10px9 711q0px -57 52 -91t134 -38q113 -6 20px7 -74q2 10px 2 27q0px 70px -55.5 114.5t-135.5 48.5q-115 2 -198 58q-6 -22 -6 -45z" />
<glyph unicode="&#xa8;" horiz-adv-x="813" d="M74 1421q0px 39 23.5 62.5t60px.5 23.5q35 0px 58.5 -26.5t23.5 -59.5q0px -37 -22.5 -58.5t-59.5 -21.5t-60px.5 21.5t-23.5 58.5zM322 1421q0px 39 23.5 62.5t62.5 23.5q35 0px 57 -26.5t22 -59.5q0px -37 -22.5 -58.5t-56.5 -21.5q-39 0px -62.5 21.5t-23.5 58.5z" />
<glyph unicode="&#xa9;" horiz-adv-x="1267" d="M2 528v340pxq0px 250px 151.5 387.5t362.5 137.5t363.5 -137.5t152.5 -387.5v-340pxq0px -250px -152.5 -388t-363.5 -138q-20px9 0px -361.5 138t-152.5 388zM135 528q2 -186 116 -291.5t267 -10px5.5q156 0px 269.5 10px5.5t113.5 291.5v340pxq0px 182 -113.5 285.5t-269.5 10px3.5 q-154 0px -267.5 -10px3t-115.5 -286v-340pxzM229 537v317q0px 127 85 213t20px4 86t20px6 -96t87 -236h-125q0px 88 -48 146.5t-120px 58.5q-70px 0px -116 -49t-46 -123v-317q0px -74 45 -125.5t117 -51.5t120px 61.5t48 147.5h125q0px -137 -86 -234t-20px7 -97t-20px5 86t-84 213z" />
<glyph unicode="&#xaa;" horiz-adv-x="80px0px" d="M-29 713v69q0px 127 94.5 222.5t219.5 95.5q57 0px 111.5 -26.5t78.5 -76.5v80pxq0px 76 -56.5 131.5t-133.5 55.5q-66 0px -154 -78l-72 114q10px6 94 226 95q129 0px 224 -92.5t95 -225.5v-676h-10px2l-27 95q-29 -45 -83 -74t-10px7 -31q-125 0px -219.5 96.5t-94.5 225.5zM10px 154v133h611 v-133h-611zM10px0px 713q0px -78 54.5 -133.5t130px.5 -55.5q78 2 133 38t55 10px0pxv155q0px 70px -54 110pxt-134 42q-76 0px -130px.5 -55.5t-54.5 -131.5v-69z" />
<glyph unicode="&#xab;" horiz-adv-x="745" d="M-34 683q1 13 24 42q10px 14 40px.5 55t45.5 64q35 45 57 78q12 14 34.5 43.5t31.5 42.5q25 33 45 61l10px8 -76l-235 -313q2 -4 9 -12.5t9 -10px.5q10px -14 31 -45q31 -41 10px2.5 -138t81.5 -10px9l-10px4 -89l-254 355q-2 2 -8 12v-2q-19 29 -18 42zM20px4 682q1 16 25 45v-2 q14 23 46 63.5t47 61.5q43 55 51 72q57 74 10px8 147l111 -76l-236 -313q6 -8 25 -35q0px -2 11 -13t16 -20pxq27 -35 92 -124t90px -123l-10px5 -89l-256 355q-2 0px -8 10pxq-18 25 -17 41z" />
<glyph unicode="&#xad;" d="M-12 537v131h616v-131h-616z" />
<glyph unicode="&#xae;" horiz-adv-x="1253" d="M-12 528v340pxq0px 250px 151.5 387.5t362.5 137.5t363.5 -137.5t152.5 -387.5v-340pxq0px -250px -152.5 -388t-363.5 -138q-20px9 0px -361.5 138t-152.5 388zM121 528q0px -186 113.5 -291.5t269 -10px5.5t269.5 10px5.5t114 291.5v340pxq0px 182 -114 285.5t-269.5 10px3.5t-269 -10px3t-113.5 -286 v-340pxzM256 297v717q0px 39 26.5 68.5t67.5 29.5h189q96 0px 166.5 -69.5t70px.5 -168.5v-61q0px -10px0px -86 -176q86 -76 86 -170pxv-170pxh-131v166q0px 45 -42 76.5t-91 31.5h-129v-274h-127zM383 70px2h129q47 0px 88 32t41 79v66q0px 43 -29.5 72.5t-72.5 29.5h-156v-279z" />
<glyph unicode="&#xaf;" horiz-adv-x="856" d="M-14 130px5v133h628v-133h-628z" />
<glyph unicode="&#xb0px;" horiz-adv-x="964" d="M-16 10px49q0px 158 111.5 272.5t271.5 114.5q156 0px 272.5 -116t116.5 -271q0px -160px -116 -272.5t-273 -112.5q-162 0px -272.5 111.5t-110px.5 273.5zM113 10px48.5q0px -10px6.5 74.5 -181t179.5 -74.5q10px9 0px 182.5 74.5t73.5 181t-75 181.5t-181 75q-10px4 0px -179 -75t-75 -181.5z" />
<glyph unicode="&#xb2;" horiz-adv-x="917" d="M0px 76v295q0px 156 10px6.5 238.5t260px.5 82.5q94 0px 153.5 49.5t59.5 139.5v196q0px 90px -67 141.5t-157 51.5q-92 0px -159.5 -60px.5t-69.5 -169.5h-127q0px 170px 10px5.5 265.5t250px.5 95.5q143 0px 249 -85t10px6 -239v-196q-2 -147 -96.5 -232.5t-247.5 -85.5q-98 0px -169 -50pxt-71 -142v-242 h555v-129h-610pxq-47 0px -59.5 14.5t-12.5 61.5z" />
<glyph unicode="&#xb3;" horiz-adv-x="927" d="M-2 350pxh129q0px -111 70px.5 -172t167.5 -61q94 0px 162.5 51t68.5 143v174q0px 78 -67.5 133.5t-161.5 55.5v133q94 0px 161.5 57.5t67.5 134.5v74q0px 92 -68.5 143.5t-162.5 51.5q-96 0px -167 -60px.5t-71 -171.5h-129q0px 172 10px7.5 268.5t256.5 96.5q147 0px 256 -86t10px9 -242v-74 q0px -70px -46 -144.5t-116 -113.5q70px -37 116 -111.5t46 -144.5v-174q0px -156 -10px8.5 -240px.5t-256.5 -84.5q-150px 0px -257 96t-10px7 268z" />
<glyph unicode="&#xb4;" horiz-adv-x="60px8" d="M57 1313l172 284l150px -65l-180px -219h-142z" />
<glyph unicode="&#xb5;" horiz-adv-x="839" d="M-16 -8v1411h129q0px -119 2 -70px3q8 -70px 62 -122t124 -52q80px 0px 136.5 53.5t56.5 129.5v692h131l-2 -10px59h-131v125q-82 -70px -191 -70pxq-127 0px -186 64v-469h-131z" />
<glyph unicode="&#xb6;" horiz-adv-x="80px8" d="M-16 866v20px7q0px 129 93 222.5t224 93.5h236q37 0px 57 -21.5t20px -56.5v-1311h-129v551h-184q-131 0px -224 93t-93 222zM115 866q0px -76 54 -130pxt132 -54h184v573h-184q-78 0px -132 -53t-54 -129v-20px7z" />
<glyph unicode="&#xb7;" horiz-adv-x="612" d="M14 70px2q0px 68 46 117t114 49q72 0px 117 -48t45 -118q0px -72 -44 -115.5t-118 -43.5q-70px 0px -115 43.5t-45 115.5z" />
<glyph unicode="&#x2219;" horiz-adv-x="612" d="M14 70px2q0px 68 46 117t114 49q72 0px 117 -48t45 -118q0px -72 -44 -115.5t-118 -43.5q-70px 0px -115 43.5t-45 115.5z" />
<glyph unicode="&#xb8;" horiz-adv-x="888" d="M182 86l131 18q-4 -86 36 -145t10px2 -59q25 0px 84 24l14 -147q-61 -14 -98 -15q-121 0px -20px5 94.5t-64 229.5z" />
<glyph unicode="&#xb9;" horiz-adv-x="438" d="M-66 1272v131h226q72 0px 71 -76v-1327h-129v1272h-168z" />
<glyph unicode="&#xba;" horiz-adv-x="823" d="M-23 30px7v373q0px 152 96.5 234.5t229.5 82.5t229.5 -83t96.5 -234v-373q0px -152 -97.5 -234.5t-228.5 -82.5q-133 0px -229.5 82.5t-96.5 234.5zM10px9 30px7q0px -86 58 -135t136 -49q80px 0px 137.5 48t57.5 136v373q0px 86 -57.5 136t-137.5 50pxq-78 0px -136 -50pxt-58 -136v-373z" />
<glyph unicode="&#xbb;" horiz-adv-x="759" d="M-10px 993l110px 76q66 -94 117 -160pxq10px9 -147 135 -184v2q27 -31 28 -44t-20px -42q-121 -164 -129 -176q-10px9 -150px -135 -189l-10px4 89q43 59 133 178q18 25 50px 68.5t50px 68.5zM221 993l10px9 76q43 -57 10px4 -143q96 -123 150px -20px1q23 -29 23.5 -41t-19.5 -43h2q-6 -10px -27.5 -39 t-32.5 -45q-10px6 -143 -20px2 -281l-10px3 89q37 53 10px9 151q80px 10px6 119 164z" />
<glyph unicode="&#xbf;" horiz-adv-x="817" d="M-12 313v117q0px 190px 180px 285l-2 -2q96 63 96 166v266h129v-266q0px -182 -155 -279q-117 -63 -117 -172v-115q0px -78 57 -134t135 -56t134.5 66.5t58.5 164.5l133 -16q-8 -147 -10px3.5 -246.5t-222.5 -99.5q-133 0px -228 92t-95 229zM248 1346q0px 35 23.5 59.5t56 24.5t56.5 -25 t24 -59q0px -37 -25 -63t-55.5 -26t-55 26t-24.5 63z" />
<glyph unicode="&#xc0px;" horiz-adv-x="10px0px5" d="M-70px 0pxl344 1350pxq14 47 49 73.5t72 26.5q35 0px 70px -27.5t47 -70px.5l350px -1352h-145l-131 50px4h-385q-115 -444 -129 -50px4h-142zM172 1743l139 84l168 -30px9l-139 -2zM231 635h322l-154 670pxzM395 1323l4 -18q0px 6 2 10pxz" />
<glyph unicode="&#xc1;" horiz-adv-x="993" d="M-70px 0pxh142q14 59 129 50px4h385l131 -50px4h145l-350px 1352q-12 43 -47 70px.5t-70px 27.5q-37 0px -71.5 -26.5t-49.5 -73.5zM231 635l168 670pxl154 -670pxh-322zM330px 1518l172 284l149 -65l-180px -219h-141zM395 1323l4 -18q0px 6 2 10pxz" />
<glyph unicode="&#xc2;" horiz-adv-x="10px0px5" d="M-70px 0pxl344 1350pxq14 47 49 73.5t72 26.5q35 0px 70px -27.5t47 -70px.5l350px -1352h-145l-131 50px4h-385q-115 -444 -129 -50px4h-142zM150px 1583l20px2 150pxq43 33 90px 0pxl33 -25q25 -18 39 -29q78 -51 123 -94l-84 -96l-156 121q-12 -8 -40px.5 -31t-41.5 -31q-12 -10px -29 -23l-35 -27 q-17 -13 -24 -17zM231 635h322l-154 670pxzM395 1323l4 -18q0px 6 2 10pxz" />
<glyph unicode="&#xc3;" horiz-adv-x="10px0px5" d="M-70px 0pxl344 1350pxq14 47 49 73.5t72 26.5q35 0px 70px -27.5t47 -70px.5l350px -1352h-145l-131 50px4h-385q-115 -444 -129 -50px4h-142zM182 1614l92 65l43 -43v2q16 -12 27 -4l8 8q55 51 10px5 52q72 0px 155 -115l-92 -70pxq-25 25 -43 50pxq-20px 31 -45 6q-57 -53 -10px0px -54q-74 1 -150px 10px3z M231 635h322l-154 670pxzM395 1323l4 -18q0px 6 2 10pxz" />
<glyph unicode="&#xc4;" horiz-adv-x="10px0px5" d="M-70px 0pxh142q14 59 129 50px4h385l131 -50px4h145l-350px 1352q-12 43 -47 70px.5t-70px 27.5q-37 0px -71.5 -26.5t-49.5 -73.5zM188 1599q0px 39 24 63t60px 24q35 0px 58.5 -27t23.5 -60pxq0px -37 -22.5 -58t-59 -21t-60px.5 21t-24 58zM231 635l168 670pxl154 -670pxh-322zM395 1323l4 -18 q0px 6 2 10pxzM436 1599q0px 39 23.5 63t62.5 24q35 0px 57.5 -27t22.5 -60pxq0px -37 -22.5 -58t-57.5 -21q-39 0px -62.5 21t-23.5 58z" />
<glyph unicode="&#xc5;" horiz-adv-x="10px0px5" d="M-63 20pxl344 1350pxq14 47 49 73.5t71 26.5q35 0px 70px -27.5t47 -70px.5l350px -1352h-145l-131 50px4h-385q-115 -444 -129 -50px4h-141zM188 1577q0px 88 59.5 149.5t147.5 61.5q86 0px 149.5 -62.5t63.5 -148.5q0px -84 -63.5 -145.5t-149.5 -61.5q-88 0px -147.5 61.5t-59.5 145.5z M238 655h321l-153 670pxzM317 1577q0px -33 24 -56.5t54 -23.5q35 0px 58.5 23.5t23.5 56.5q0px 35 -23.5 58.5t-58.5 23.5q-31 0px -54.5 -23.5t-23.5 -58.5zM40px1 1343l5 -18q0px 6 2 10pxz" />
<glyph unicode="&#xc6;" horiz-adv-x="1492" d="M-33 10pxq10px0px 40px8 154 60px4v-2q127 496 188 736q31 10px2 121 10px2q86 0px 117 -10px2l145 -627q0px 68 -7 287t-7 30px9q0px 49 33.5 83t79.5 34h50px9v-134l-491 -4v-495h475v-133h-475q0px -10px2 2 -148v-92q0px -16 1 -48t1 -48q2 -96 59.5 -147.5t128.5 -51.5h299v-133h-299q-125 0px -219 86 t-10px2 229v-4q-14 45 -25.5 86t-16.5 60px.5t-9 27.5v-2q-8 16 -8 19h-388q-127 -496 -133 -520pxzM266 635h322q-20px 86 -160px 618q-12 -45 -83 -319t-79 -299z" />
<glyph unicode="&#xc7;" horiz-adv-x="937" d="M0px 328v782q0px 162 10px9.5 251t265.5 89q150px 0px 263.5 -10px0px.5t115.5 -276.5h-138q0px 113 -70px.5 178.5t-168.5 65.5q-10px0px 0px -172 -55.5t-72 -151.5v-782q2 -96 74 -151.5t170px -55.5t168.5 65.5t70px.5 178.5h138q-2 -176 -115 -276.5t-262 -10px0px.5q-156 0px -266.5 89t-110px.5 251z M30px3 66l131 18q-4 -86 36 -145.5t10px1 -59.5q25 0px 84 25l15 -148q-61 -14 -99 -14q-121 0px -20px4.5 94.5t-63.5 229.5z" />
<glyph unicode="&#xc8;" horiz-adv-x="815" d="M2 332v985q0px 49 36 83t83 34h510pxv-134l-496 -4v-495h473v-133h-473v-336q0px -80px 57.5 -139.5t137.5 -59.5h30px1v-133h-30px1q-133 0px -230px.5 99.5t-97.5 232.5zM129 1729l139 83l168 -30px9l-139 -2z" />
<glyph unicode="&#xc9;" horiz-adv-x="815" d="M2 332q0px -133 97.5 -232.5t230px.5 -99.5h30px1v133h-30px1q-80px 0px -137.5 59.5t-57.5 139.5v336h473v133h-473v495l496 4v134h-510pxq-47 0px -83 -34t-36 -83v-985zM264 150px1l172 285l150px -66l-180px -219h-142z" />
<glyph unicode="&#xca;" horiz-adv-x="80px0px" d="M2 332v985q0px 49 36 83t83 34h510pxv-134l-496 -4v-495h473v-133h-473v-336q0px -80px 57.5 -139.5t137.5 -59.5h30px1v-133h-30px1q-133 0px -230px.5 99.5t-97.5 232.5zM82 1599l20px3 150pxq43 33 90px 0pxl33 -25q25 -18 38 -28q78 -51 123 -94l-84 -97l-155 121q-14 -8 -42 -30px.5t-40px -30px.5 q-12 -10px -30px -24l-35 -27q-17 -13 -23 -17z" />
<glyph unicode="&#xcb;" horiz-adv-x="796" d="M2 332q0px -133 97.5 -232.5t230px.5 -99.5h30px1v133h-30px1q-80px 0px -137.5 59.5t-57.5 139.5v336h473v133h-473v495l496 4v134h-510pxq-47 0px -83 -34t-36 -83v-985zM125 1612q0px 39 23.5 62.5t60px.5 23.5q35 0px 58.5 -26.5t23.5 -59.5q0px -37 -22.5 -58.5t-59.5 -21.5t-60px.5 21.5 t-23.5 58.5zM373 1612q0px 39 23.5 62.5t62.5 23.5q35 0px 57.5 -26.5t22.5 -59.5q0px -37 -22.5 -58.5t-57.5 -21.5q-39 0px -62.5 21.5t-23.5 58.5z" />
<glyph unicode="&#xcc;" horiz-adv-x="30px9" d="M-154 1741l140px 84l168 -30px9l-140px -3zM4 0pxv1434h135v-1434h-135z" />
<glyph unicode="&#xcd;" horiz-adv-x="296" d="M-27 150px5l172 285l150px -66l-180px -219h-142zM-8 0pxh135v1434h-135v-1434z" />
<glyph unicode="&#xce;" horiz-adv-x="296" d="M-197 1599l20px3 150pxq43 33 90px 0pxl33 -25q25 -18 39 -28q78 -51 123 -94l-84 -97l-156 121q-14 -8 -41.5 -30px.5t-40px.5 -30px.5q-12 -10px -29 -24l-35 -27q-17 -13 -24 -17zM-8 0pxv1434h135v-1434h-135z" />
<glyph unicode="&#xcf;" horiz-adv-x="296" d="M-154 1599q0px 39 24 63t60px 24q35 0px 58.5 -27t23.5 -60pxq0px -37 -22.5 -58t-59 -21t-60px.5 21t-24 58zM-8 0pxh135v1434h-135v-1434zM94 1599q0px 39 23.5 63t62.5 24q35 0px 57.5 -27t22.5 -60pxq0px -37 -22.5 -58t-57.5 -21q-39 0px -62.5 21t-23.5 58z" />
<glyph unicode="&#xd0px;" horiz-adv-x="952" d="M-68 649v133h412v-133h-412zM-2 117v120px2q0px 49 35 82t82 33h319q129 0px 227.5 -98.5t98.5 -231.5v-776q0px -139 -97.5 -233.5t-228.5 -94.5h-319q-51 0px -84 35t-33 82zM115 130px0pxh18v19zM133 130px0pxl2 -1167h299q80px 0px 136.5 57.5t56.5 137.5v774q0px 80px -56.5 139t-136.5 59 h-30px1z" />
<glyph unicode="&#xd1;" horiz-adv-x="942" d="M0px 0pxv1335q-2 47 27.5 76t70px.5 29q33 0px 59.5 -19.5t35.5 -52.5l-3 4l469 -1235l-30px 191l-11 110px6h134v-1334q0px -47 -28 -73.5t-65 -26.5q-63 0px -90px 63q-68 168 -146.5 373t-175.5 466t-143 376l27 -211v-10px67h-131zM160px 1622l98 74q12 -12 28.5 -29.5t18.5 -19.5v2 q8 -8 11 -9.5t9.5 0px.5t16.5 13q55 59 113 59q74 0px 168 -131l-10px1 -78q-25 25 -45 56q-14 18 -21 21t-28 -15q-63 -59 -10px9 -60pxq-79 0px -159 117z" />
<glyph unicode="&#xd2;" horiz-adv-x="944" d="M0px 326v784q0px 158 111.5 247t265 89t265.5 -89t112 -247v-784q0px -160px -112 -249t-265.5 -89t-265 89t-111.5 249zM131 326q0px -96 72.5 -150px.5t173.5 -54.5q98 0px 171 54t73 151v784q0px 94 -73 148.5t-171 54.5q-10px0px 0px -173 -54.5t-73 -148.5v-784zM164 1733l139 84l168 -310px l-139 -2z" />
<glyph unicode="&#xd3;" horiz-adv-x="944" d="M0px 326q0px -160px 111.5 -249t265 -89t265.5 89t112 249v784q0px 158 -112 247t-265.5 89t-265 -89t-111.5 -247v-784zM131 326v784q0px 94 72.5 148.5t173.5 54.5q98 0px 171 -54.5t73 -148.5v-784q0px -96 -73 -150px.5t-171 -54.5q-10px0px 0px -173 54.5t-73 150px.5zM30px3 1499l172 285 l150px -66l-181 -219h-141z" />
<glyph unicode="&#xd4;" horiz-adv-x="944" d="M0px 326v784q0px 158 111.5 247t265 89t265.5 -89t112 -247v-784q0px -160px -112 -249t-265.5 -89t-265 89t-111.5 249zM127 160px2l20px3 149q43 33 90px 0pxl33 -25q25 -18 39 -28q78 -51 122 -94l-84 -97l-155 121q-14 -8 -42 -30px.5t-40px -30px.5q-12 -10px -30px -24l-35 -26 q-17 -13 -23 -18zM131 326q0px -96 72.5 -150px.5t173.5 -54.5q98 0px 171 54t73 151v784q0px 94 -73 148.5t-171 54.5q-10px0px 0px -173 -54.5t-73 -148.5v-784z" />
<glyph unicode="&#xd5;" horiz-adv-x="944" d="M0px 326v784q0px 158 111.5 247t265 89t265.5 -89t112 -247v-784q0px -160px -112 -249t-265.5 -89t-265 89t-111.5 249zM131 326q0px -96 72.5 -150px.5t173.5 -54.5q98 0px 171 54t73 151v784q0px 94 -73 148.5t-171 54.5q-10px0px 0px -173 -54.5t-73 -148.5v-784zM139 1634l99 74 q12 -12 28.5 -29.5t18.5 -19.5v2q8 -8 11 -9t9 1t17 12q55 59 112 59q74 0px 168 -131l-10px0px -77q-25 25 -45 55q-14 18 -21.5 21t-27.5 -15q-63 -59 -10px9 -59q-80px -1 -160px 116z" />
<glyph unicode="&#xd6;" horiz-adv-x="944" d="M0px 326q0px -160px 111.5 -249t265 -89t265.5 89t112 249v784q0px 158 -112 247t-265.5 89t-265 -89t-111.5 -247v-784zM131 326v784q0px 94 72.5 148.5t173.5 54.5q98 0px 171 -54.5t73 -148.5v-784q0px -96 -73 -150px.5t-171 -54.5q-10px0px 0px -173 54.5t-73 150px.5zM168 1612 q0px 39 23.5 62.5t60px.5 23.5q35 0px 58.5 -26.5t23.5 -59.5q0px -37 -22.5 -58.5t-59.5 -21.5t-60px.5 21.5t-23.5 58.5zM416 1612q0px 39 23.5 62.5t62.5 23.5q35 0px 57.5 -26.5t22.5 -59.5q0px -37 -22.5 -58.5t-57.5 -21.5q-39 0px -62.5 21.5t-23.5 58.5z" />
<glyph unicode="&#xd8;" horiz-adv-x="944" d="M0px 326v784q0px 158 111.5 247t265 89t265.5 -89t112 -247v-784q0px -160px -112 -249t-265.5 -89t-265 89t-111.5 249zM68 -78l495 1536h142l-50px2 -1536h-135zM131 326q0px -96 72.5 -150px.5t173.5 -54.5q98 0px 171 54t73 151v784q0px 94 -73 148.5t-171 54.5q-10px0px 0px -173 -54.5 t-73 -148.5v-784z" />
<glyph unicode="&#xd9;" horiz-adv-x="944" d="M0px 322v1112h131q0px -995 -2 -1112q6 -92 81 -148.5t169 -56.5q98 0px 170px 54t72 151v1112h133v-1112q0px -160px -112 -249t-265.5 -89t-265 89t-111.5 249zM184 1737l140px 84l168 -310pxl-140px -2z" />
<glyph unicode="&#xda;" horiz-adv-x="944" d="M0px 322q0px -160px 111.5 -249t265 -89t265.5 89t112 249v1112h-133v-1112q0px -96 -72 -150px.5t-170px -54.5q-94 0px -169 56t-81 149q2 117 2 1112h-131v-1112zM279 150px1l172 285l149 -66l-180px -219h-141z" />
<glyph unicode="&#xdb;" horiz-adv-x="944" d="M0px 322v1112h131q0px -995 -2 -1112q6 -92 81 -148.5t169 -56.5q98 0px 170px 54t72 151v1112h133v-1112q0px -160px -112 -249t-265.5 -89t-265 89t-111.5 249zM152 160px4l20px2 149q43 33 90px 0pxl33 -24q25 -18 39 -29q78 -51 123 -94l-84 -97l-156 121q-14 -8 -41.5 -30px.5t-40px.5 -30px.5 q-12 -10px -29 -24l-35 -26q-17 -13 -24 -18z" />
<glyph unicode="&#xdc;" horiz-adv-x="944" d="M0px 322q0px -160px 111.5 -249t265 -89t265.5 89t112 249v1112h-133v-1112q0px -96 -72 -150px.5t-170px -54.5q-94 0px -169 56t-81 149q2 117 2 1112h-131v-1112zM168 160px4q0px 39 23.5 62.5t60px.5 23.5q35 0px 58.5 -27t23.5 -59q0px -37 -22.5 -58.5t-59.5 -21.5t-60px.5 21.5t-23.5 58.5z M416 160px4q0px 39 23.5 62.5t62.5 23.5q35 0px 57.5 -27t22.5 -59q0px -37 -22.5 -58.5t-57.5 -21.5q-39 0px -62.5 21.5t-23.5 58.5z" />
<glyph unicode="&#xdd;" horiz-adv-x="899" d="M-43 1434q72 -176 20px5 -484q92 -213 139 -327v-623h135v621l346 813h-147q-94 -217 -232 -564l-34 -141l-35 139q-117 299 -234 566h-143zM30px1 1497l172 285l150px -66l-181 -219h-141z" />
<glyph unicode="&#xde;" horiz-adv-x="884" d="M2 2v1430pxh133v-265h240pxq137 0px 233.5 -98t96.5 -233v-220pxq0px -133 -96.5 -230pxt-233.5 -97h-240pxv-285zM135 422h240pxq82 0px 139 57.5t57 136.5v220pxq0px 82 -57 140pxt-139 58h-240pxv-612z" />
<glyph unicode="&#xdf;" horiz-adv-x="792" d="M4 4v10px88q0px 135 92 220pxt234 83q135 -2 223 -90pxt88 -226v-92q0px -162 -117 -256q131 -94 131 -254v-153q0px -139 -94 -234.5t-233 -95.5h-152v131h152q82 0px 139 57.5t57 139.5v155q0px 78 -57 133.5t-137 55.5h-160pxv131h158q80px 0px 132 54t52 132v96q0px 80px -52 133.5t-130px 51.5 q-84 0px -139.5 -45t-55.5 -125v-10px90pxh-131z" />
<glyph unicode="&#xe0px;" horiz-adv-x="829" d="M-2 30px7v74q0px 127 93 221t222 94q59 0px 114.5 -27.5t76.5 -84.5l-4 92q0px 76 -54.5 130pxt-132.5 54q-74 0px -153 -76l-76 113q10px6 96 229 96q129 0px 223.5 -93t94.5 -224v-676h-115l-12 90pxq-53 -10px2 -191 -10px2q-129 0px -222 95t-93 224zM127 1255l137 74l164 -270pxl-137 -2z M129 30px7q0px -78 54.5 -133t129.5 -55q74 0px 130px.5 37t56.5 10px0pxv156q0px 72 -53.5 112.5t-133.5 40px.5q-76 0px -130px -53t-54 -131v-74z" />
<glyph unicode="&#xe1;" d="M0px 30px7v74q0px 127 93 221t222 94q59 0px 114.5 -27.5t76.5 -84.5l-4 92q0px 76 -54.5 130pxt-132.5 54q-74 0px -153 -76l-76 113q10px6 96 229 96q129 0px 223.5 -93t94.5 -224v-676h-115l-12 90pxq-53 -10px2 -191 -10px2q-129 0px -222 95t-93 224zM131 30px7q0px -78 54.5 -133t129.5 -55 q74 0px 130px.5 37t56.5 10px0pxv156q0px 72 -53.5 112.5t-133.5 40px.5q-78 0px -131 -53t-53 -131v-74zM262 10px61l152 254l129 -60pxl-156 -194h-125z" />
<glyph unicode="&#xe2;" horiz-adv-x="833" d="M2 30px7v74q0px 127 93 221t222 94q59 0px 114.5 -27.5t76.5 -84.5l-4 92q0px 76 -54.5 130pxt-132.5 54q-74 0px -153 -76l-76 113q10px6 96 229 96q129 0px 223.5 -93t94.5 -224v-676h-115l-12 90pxq-53 -10px2 -191 -10px2q-129 0px -222 95t-93 224zM10px4 1133l191 141q41 33 86 0px q8 -6 30px.5 -22.5t37.5 -26.5q80px -57 116 -90pxl-80px -91l-147 115q-10px -8 -78 -59q-25 -20px -82 -64zM133 30px7q0px -78 54.5 -133t129.5 -55q74 0px 130px.5 37t56.5 10px0pxv156q0px 72 -53.5 112.5t-133.5 40px.5q-76 0px -130px -53t-54 -131v-74z" />
<glyph unicode="&#xe3;" d="M0px 30px7v74q0px 127 93 221t222 94q59 0px 114.5 -27.5t76.5 -84.5l-4 92q0px 76 -54.5 130pxt-132.5 54q-74 0px -153 -76l-76 113q10px6 96 229 96q129 0px 223.5 -93t94.5 -224v-676h-115l-12 90pxq-53 -10px2 -191 -10px2q-129 0px -222 95t-93 224zM119 1171l90px 68q10px -10px 23.5 -25.5 t19.5 -19.5v2q8 -10px 14 -9t19 13q53 53 10px2 53q68 0px 154 -118l-92 -72q-10px 10px -41 51q-20px 31 -46 6q-55 -55 -98 -55q-73 0px -145 10px6zM131 30px7q0px -78 54.5 -133t129.5 -55q74 0px 130px.5 37t56.5 10px0pxv156q0px 72 -53.5 112.5t-133.5 40px.5q-78 0px -131 -53t-53 -131v-74z" />
<glyph unicode="&#xe4;" d="M0px 30px7v74q0px 127 93 221t222 94q59 0px 114.5 -27.5t76.5 -84.5l-4 92q0px 76 -54.5 130pxt-132.5 54q-74 0px -153 -76l-76 113q10px6 96 229 96q129 0px 223.5 -93t94.5 -224v-676h-115l-12 90pxq-53 -10px2 -191 -10px2q-129 0px -222 95t-93 224zM131 30px7q0px -78 54.5 -133t129.5 -55 q74 0px 130px.5 37t56.5 10px0pxv156q0px 72 -53.5 112.5t-133.5 40px.5q-78 0px -131 -53t-53 -131v-74zM133 1139q0px 39 23.5 62.5t60px.5 23.5q35 0px 58.5 -27t23.5 -59q0px -37 -22.5 -58.5t-59.5 -21.5t-60px.5 21.5t-23.5 58.5zM381 1139q0px 39 23.5 62.5t62.5 23.5q35 0px 57.5 -27t22.5 -59 q0px -37 -22.5 -58.5t-57.5 -21.5q-39 0px -62.5 21.5t-23.5 58.5z" />
<glyph unicode="&#xe5;" d="M0px 30px7v74q0px 127 93 221t222 94q59 0px 114.5 -27.5t76.5 -84.5l-4 92q0px 76 -54.5 130pxt-132.5 54q-74 0px -153 -76l-76 113q10px6 96 229 96q129 0px 223.5 -93t94.5 -224v-676h-115l-12 90pxq-53 -10px2 -191 -10px2q-129 0px -222 95t-93 224zM131 30px7q0px -78 54.5 -133t129.5 -55 q74 0px 130px.5 37t56.5 10px0pxv156q0px 72 -53.5 112.5t-133.5 40px.5q-78 0px -131 -53t-53 -131v-74zM135 10px79q0px 84 59.5 145.5t145.5 61.5q84 0px 147.5 -62.5t63.5 -144.5t-63.5 -143.5t-147.5 -61.5q-86 0px -145.5 60px.5t-59.5 144.5zM264 10px79.5q0px -32.5 22.5 -56.5t53.5 -24 q35 0px 58.5 24t23.5 56.5t-23.5 56t-58.5 23.5q-31 0px -53.5 -23.5t-22.5 -56z" />
<glyph unicode="&#xe6;" horiz-adv-x="1355" d="M2 30px7v74q0px 127 93 221t222 94q127 0px 187 -67v47q0px 76 -55.5 130pxt-131.5 54q-66 0px -153 -76l-78 113q111 96 231 96q80px 0px 153 -46t97 -140pxq23 92 94.5 140pxt157.5 48q129 0px 222.5 -93t93.5 -224q0px -135 -93.5 -226.5t-222.5 -91.5h-186v-61q4 -72 59.5 -124t126.5 -52 q111 0px 180px 96l10px9 -76q-10px4 -152 -289 -151q-55 0px -10px8.5 28.5t-77.5 79.5l-19 -10px2h-90pxl-20px 10px0pxq-25 -53 -81 -81.5t-10px6 -30px.5q-129 0px -222 96t-93 225zM131 30px7q0px -78 54.5 -133t131.5 -55q74 2 129.5 38t55.5 99v156q0px 72 -52.5 111.5t-132.5 41.5q-78 0px -132 -54 t-54 -130pxv-74zM633 489h186q78 0px 132.5 55.5t54.5 133.5q0px 76 -54.5 130pxt-132.5 54q-74 0px -128 -53t-58 -129v-191z" />
<glyph unicode="&#xe7;" d="M0px 30px7v371q0px 133 94 225t225 92q127 0px 220px.5 -10px3.5t95.5 -252.5h-131q0px 94 -53.5 158.5t-131 64.5t-133 -54t-55.5 -130pxv-371q0px -78 55.5 -132t132.5 -54q76 0px 130px.5 66.5t54.5 158.5h131q-2 -125 -70px.5 -220pxt-171.5 -124q18 -33 58.5 -48t83.5 -1l59 -115 q-78 -31 -123 -31q-84 0px -145.5 50px.5t-69.5 138.5q-111 23 -183.5 10px9.5t-72.5 20px1.5z" />
<glyph unicode="&#xe8;" horiz-adv-x="792" d="M0px 30px7v369q0px 129 92 224t225 95q129 0px 222.5 -93t93.5 -224q0px -133 -92 -217t-224 -84h-186v-70pxq0px -76 54.5 -130pxt131.5 -54q111 0px 181 96l10px8 -78q-10px4 -150px -289 -149q-131 0px -224 91t-93 224zM113 1255l125 76l151 -278l-125 -2zM131 489h186q76 0px 130px.5 55.5 t54.5 133.5q0px 76 -54.5 130pxt-130px.5 54q-78 0px -132 -55t-54 -133v-185z" />
<glyph unicode="&#xe9;" horiz-adv-x="774" d="M-16 30px7v369q0px 129 92 224t225 95q129 0px 222 -93t93 -224q0px -133 -92 -217t-223 -84h-186v-70pxq0px -76 54 -130pxt132 -54q111 0px 180px 96l10px9 -78q-10px4 -150px -289 -149q-131 0px -224 91t-93 224zM115 489h186q76 0px 130px 55.5t54 133.5q0px 76 -54 130pxt-130px 54q-78 0px -132 -55 t-54 -133v-185zM219 10px53l154 254l133 -60pxl-162 -194h-125z" />
<glyph unicode="&#xea;" horiz-adv-x="792" d="M2 30px7v369q0px 129 92 224t225 95q129 0px 222.5 -93t93.5 -224q0px -133 -92 -217t-224 -84h-186v-70pxq0px -76 54.5 -130pxt131.5 -54q111 0px 181 96l10px8 -78q-10px4 -150px -289 -149q-131 0px -224 91t-93 224zM115 1120pxl178 133q37 27 78 0pxq6 -6 28.5 -21t34.5 -26q74 -49 10px9 -84 l-74 -84l-137 10px7q-12 -8 -39 -28.5t-33 -26.5q-70px -53 -78 -60pxzM133 489h186q76 0px 130px.5 55.5t54.5 133.5q0px 76 -53.5 130pxt-131 54t-132 -55t-54.5 -133v-185z" />
<glyph unicode="&#xeb;" horiz-adv-x="80px0px" d="M2 30px7v369q0px 129 92 224t225 95q129 0px 222.5 -93t93.5 -224q0px -133 -92 -217t-224 -84h-186v-70pxq0px -76 54.5 -130pxt131.5 -54q111 0px 181 96l10px8 -78q-10px4 -150px -289 -149q-131 0px -224 91t-93 224zM133 489h186q76 0px 130px.5 55.5t54.5 133.5q0px 76 -53.5 130pxt-131 54 t-132 -55t-54.5 -133v-185zM135 1128q0px 39 23.5 62.5t60px.5 23.5q35 0px 58.5 -26.5t23.5 -59.5q0px -37 -22.5 -58t-59.5 -21t-60px.5 21t-23.5 58zM383 1128q0px 39 23.5 62.5t62.5 23.5q35 0px 57.5 -26.5t22.5 -59.5q0px -37 -22.5 -58t-57.5 -21q-39 0px -62.5 21t-23.5 58z" />
<glyph unicode="&#xec;" horiz-adv-x="315" d="M-121 1282l129 80pxl152 -295l-127 -2zM25 0pxv985h131v-985h-131z" />
<glyph unicode="&#xed;" horiz-adv-x="30px7" d="M23 0pxh131v985h-131v-985zM29 10px69l149 258l133 -59l-159 -199h-123z" />
<glyph unicode="&#xee;" horiz-adv-x="311" d="M-164 1141l20px3 149q43 33 90px 0pxl33 -24q25 -18 39 -29q78 -51 123 -94l-84 -96l-156 120pxq-14 -8 -42 -30px.5t-40px -30px.5q-12 -10px -30px -24l-34 -26q-17 -13 -24 -18zM23 0pxv985h129v-985h-129z" />
<glyph unicode="&#xef;" horiz-adv-x="311" d="M-10px2 1194q0px 39 23.5 62.5t60px.5 23.5q35 0px 58 -26.5t23 -59.5q0px -37 -22.5 -58.5t-59 -21.5t-60px 21.5t-23.5 58.5zM23 0pxh129v985h-129v-985zM145 1194q0px 39 24 62.5t62 23.5q35 0px 57.5 -26.5t22.5 -59.5q0px -37 -22.5 -58.5t-57.5 -21.5q-39 0px -62.5 21.5t-23.5 58.5z" />
<glyph unicode="&#xf0px;" horiz-adv-x="919" d="M-8 815v264q0px 156 10px7.5 241t255 85t255 -85t10px7.5 -241v-772q0px -156 -10px4.5 -238.5t-254.5 -82.5q-180px 0px -30px7 131l10px3 86q82 -86 20px4 -86q94 0px 162 50pxt68 140pxv320pxq-37 -133 -234 -133q-154 0px -258 81.5t-10px4 239.5zM119 815q0px -90px 68.5 -140pxt166.5 -50pxq96 0px 165 51 t69 145v258q0px 90px -69.5 142.5t-162.5 52.5q-94 0px -164.5 -51.5t-72.5 -143.5v-264z" />
<glyph unicode="&#xf1;" horiz-adv-x="833" d="M2 0pxv985h111l16 -98q27 53 82 81.5t10px8 28.5q127 0px 222.5 -97t95.5 -222v-678h-131v678q0px 76 -55.5 131t-133.5 55q-76 0px -130px -55t-54 -131v-678h-131zM10px4 1171l93 68q12 -10px 26.5 -26.5t16.5 -18.5v2q10px -10px 16 -9t18 13q53 53 10px7 53q70px 0px 158 -118l-95 -70px q-18 18 -43 49q-12 18 -19 20px.5t-26 -14.5q-59 -53 -10px2 -53q-76 0px -150px 10px4z" />
<glyph unicode="&#xf2;" horiz-adv-x="845" d="M18 30px7v373q0px 152 96.5 234.5t229.5 82.5t229.5 -83t96.5 -234v-373q0px -152 -97.5 -234.5t-228.5 -82.5q-133 0px -229.5 82.5t-96.5 234.5zM111 1241l131 68l157 -248l-131 -2zM150px 30px7q0px -86 58 -135t136 -49q80px 0px 137.5 48t57.5 136v373q0px 86 -57.5 136t-137.5 50px q-78 0px -136 -50pxt-58 -136v-373z" />
<glyph unicode="&#xf3;" horiz-adv-x="845" d="M18 30px7v373q0px 152 96.5 234.5t229.5 82.5t229.5 -83t96.5 -234v-373q0px -152 -97.5 -234.5t-228.5 -82.5q-133 0px -229.5 82.5t-96.5 234.5zM150px 30px7q0px -86 58 -135t136 -49q80px 0px 137.5 48t57.5 136v373q0px 86 -57.5 136t-137.5 50pxq-78 0px -136 -50pxt-58 -136v-373zM258 10px63 l174 246l152 -56l-183 -190pxh-143z" />
<glyph unicode="&#xf4;" horiz-adv-x="847" d="M20px 30px7v373q0px 152 96.5 234.5t229.5 82.5t229.5 -83t96.5 -234v-373q0px -152 -97.5 -234.5t-228.5 -82.5q-133 0px -229.5 82.5t-96.5 234.5zM86 1159l20px3 150pxq43 33 90px 0pxl33 -25q25 -18 39 -29q78 -51 122 -94l-84 -96l-155 121q-14 -8 -42 -30px.5t-40px -31.5 q-12 -10px -30px -23l-35 -27q-17 -13 -23 -17zM152 30px7q0px -86 58 -135t136 -49q80px 0px 137.5 48t57.5 136v373q0px 86 -57.5 136t-137.5 50pxq-78 0px -136 -50pxt-58 -136v-373z" />
<glyph unicode="&#xf5;" horiz-adv-x="845" d="M18 30px7v373q0px 152 96.5 234.5t229.5 82.5t229.5 -83t96.5 -234v-373q0px -152 -97.5 -234.5t-228.5 -82.5q-133 0px -229.5 82.5t-96.5 234.5zM82 1186l98 74q12 -12 28.5 -30pxt18.5 -20pxv2q8 -8 11.5 -9t9.5 1t16 13q55 59 113 59q74 0px 168 -131l-10px1 -78q-25 25 -45 55 q-14 18 -21 21.5t-28 -15.5q-63 -59 -10px8 -59q-80px 0px -160px 117zM150px 30px7q0px -86 58 -135t136 -49q80px 0px 137.5 48t57.5 136v373q0px 86 -57.5 136t-137.5 50pxq-78 0px -136 -50pxt-58 -136v-373z" />
<glyph unicode="&#xf6;" horiz-adv-x="849" d="M23 30px7v373q0px 152 96 234.5t229 82.5t229.5 -83t96.5 -234v-373q0px -152 -97.5 -234.5t-228.5 -82.5q-133 0px -229 82.5t-96 234.5zM121 1155q0px 39 23.5 62.5t60px.5 23.5q35 0px 58.5 -26.5t23.5 -59.5q0px -37 -22.5 -58.5t-59.5 -21.5t-60px.5 21.5t-23.5 58.5zM154 30px7 q0px -86 58 -135t136 -49q80px 0px 137.5 48t57.5 136v373q0px 86 -57.5 136t-137.5 50pxq-78 0px -136 -50pxt-58 -136v-373zM369 1155q0px 39 23.5 62.5t62.5 23.5q35 0px 57.5 -26.5t22.5 -59.5q0px -37 -23 -58.5t-57 -21.5q-39 0px -62.5 21.5t-23.5 58.5z" />
<glyph unicode="&#xf8;" horiz-adv-x="843" d="M4 328v368q0px 152 96.5 236t229.5 84q55 0px 10px2 -12q2 8 7 25.5t10px 25.5q2 2 6 16t4 19l123 -31l-37 -115q111 -92 110px -248v-368q0px -152 -97 -235t-228 -83q-59 0px -99 10pxq-4 -14 -14 -41.5t-17 -48t-12 -32.5l-116 47l45 133q-113 92 -113 250pxzM135 328q0px -70px 29 -111 q57 164 86 244l74 221l65 197q-37 8 -59 8q-78 0px -136.5 -51.5t-58.5 -139.5v-368zM270px 150pxq37 -8 60px -9q80px 0px 137 49.5t57 137.5v368q0px 53 -26 10px7q-4 -10px -24.5 -68.5t-31.5 -89.5q-39 -111 -73 -211z" />
<glyph unicode="&#xf9;" horiz-adv-x="819" d="M2 30px5v678h131v-678q0px -78 52.5 -131t128 -53t129 53t53.5 131v678h129v-678q0px -131 -88 -223t-224 -92q-131 0px -221 93t-90px 222zM127 1245l127 76l152 -279l-127 -2z" />
<glyph unicode="&#xfa;" horiz-adv-x="817" d="M0px 30px5q0px -129 90px -222t221 -93q135 0px 223.5 92t88.5 223v678h-129v-678q0px -78 -53.5 -131t-129 -53t-128 53t-52.5 131v678h-131v-678zM244 10px40pxl143 236l123 -53l-150px -183h-116z" />
<glyph unicode="&#xfb;" horiz-adv-x="817" d="M0px 30px5v678h131v-678q0px -78 52.5 -131t128 -53t129 53t53.5 131v678h129v-678q0px -131 -88.5 -223t-223.5 -92q-131 0px -221 93t-90px 222zM111 1167l184 138q39 31 82 0pxl65 -50pxq76 -53 113 -86l-78 -88l-141 111q-12 -8 -38 -27.5t-38 -27.5q-10px -8 -80px -62z" />
<glyph unicode="&#xfc;" horiz-adv-x="819" d="M2 30px5q0px -129 90px -222t221 -93q135 0px 223.5 92t88.5 223v678h-129v-678q0px -78 -53.5 -131t-129 -53t-128 53t-52.5 131v678h-131v-678zM10px4 1157q0px 39 24 62.5t60px 23.5q35 0px 58.5 -26.5t23.5 -59.5q0px -37 -22.5 -58.5t-59 -21.5t-60px.5 21.5t-24 58.5zM352 1157 q0px 39 23.5 62.5t62.5 23.5q35 0px 57.5 -26.5t22.5 -59.5q0px -37 -22.5 -58.5t-57.5 -21.5q-39 0px -62.5 21.5t-23.5 58.5z" />
<glyph unicode="&#xfd;" d="M0px 30px1q0px -127 97.5 -218t224.5 -91q51 0px 10px3 23.5t77 80px.5v-20px0pxq0px -76 -53.5 -129.5t-129.5 -53.5q-80px 0px -167 72l-86 -10px0pxq55 -45 126.5 -75t126.5 -30pxq127 0px 219.5 91t94.5 225v10px87h-131v-713q0px -70px -52.5 -10px8.5t-127.5 -38.5q-76 -2 -133.5 51t-57.5 127v682h-131 v-682zM193 10px71l172 285l149 -66l-180px -219h-141z" />
<glyph unicode="&#xfe;" horiz-adv-x="825" d="M0px -20px3v1542h133v-270pxq68 74 180px 74q129 0px 223.5 -96.5t94.5 -223.5v-40px7q0px -129 -94.5 -223.5t-223.5 -94.5q-115 0px -180px 74v-375q0px -10px -66.5 -10pxt-66.5 10pxzM133 399q0px -31 29 -80pxv-2q51 -88 151 -88q76 0px 131.5 55.5t55.5 131.5v40px7q0px 78 -55.5 132.5t-131.5 54.5 q-72 0px -126 -51.5t-54 -122.5v-437zM162 313l2 -6z" />
<glyph unicode="&#xff;" d="M0px 30px1q0px -127 97.5 -218t224.5 -91q51 0px 10px3 23.5t77 80px.5v-20px0pxq0px -76 -53.5 -129.5t-129.5 -53.5q-80px 0px -167 72l-86 -10px0pxq55 -45 126.5 -75t126.5 -30pxq127 0px 219.5 91t94.5 225v10px87h-131v-713q0px -70px -52.5 -10px8.5t-127.5 -38.5q-76 -2 -133.5 51t-57.5 127v682h-131 v-682zM10px6 1159q0px 35 25 58.5t64 23.5q35 0px 59.5 -25.5t24.5 -56.5q0px -35 -24 -55.5t-60px -20px.5q-39 0px -64 20px.5t-25 55.5zM362 1159q0px 35 26 58.5t65 23.5q35 0px 58.5 -24.5t23.5 -57.5q0px -35 -23 -55.5t-59 -20px.5q-41 0px -66 20px.5t-25 55.5z" />
<glyph unicode="&#x152;" horiz-adv-x="1540px" d="M0px 326v784q0px 158 113.5 247t265.5 89q156 0px 256 -96q14 43 50px 63.5t73 20px.5h493v-134l-493 -4v-495h473v-133h-473v-336q0px -80px 57 -139.5t135 -59.5h30px1v-133h-30px1q-78 0px -154.5 53t-10px1.5 137q-33 -94 -124 -147t-191 -53q-152 0px -265.5 89t-113.5 247zM137 326 q0px -96 72 -150px.5t170px -54.5q10px0px 0px 174 54t74 151v784q0px 94 -74 148.5t-174 54.5q-98 0px -170px -54.5t-72 -148.5v-784z" />
<glyph unicode="&#x153;" horiz-adv-x="1394" d="M14 30px7v373q0px 150px 96.5 232.5t227.5 82.5q76 0px 147.5 -40pxt112.5 -111q39 72 10px5.5 111.5t144.5 39.5q129 0px 222 -93t93 -224q0px -135 -93 -226.5t-222 -91.5h-186v-53q0px -76 54 -130pxt132 -54q10px9 0px 182 96l10px9 -78q-10px6 -150px -291 -149q-76 0px -145.5 40pxt-10px6.5 10px7 q-43 -68 -113.5 -10px6.5t-146.5 -38.5q-131 0px -226.5 81.5t-95.5 231.5zM143 30px7q0px -88 57.5 -136t137.5 -48q78 0px 136 49t58 135v373q0px 86 -58 136t-136 50pxq-80px 0px -137.5 -50pxt-57.5 -136v-373zM662 489h186q78 0px 132 55.5t54 133.5q0px 76 -54 130pxt-132 54t-132 -55t-54 -133 v-185z" />
<glyph unicode="&#x178;" horiz-adv-x="862" d="M-80px 1434q72 -176 20px5 -484q92 -213 139 -327v-623h135v621l346 813h-147q-94 -217 -231 -564l-35 -141l-35 139q-117 299 -234 566h-143zM117 1581q0px 39 23.5 62.5t60px.5 23.5q35 0px 58.5 -26.5t23.5 -59.5q0px -37 -22.5 -58.5t-59.5 -21.5t-60px.5 21.5t-23.5 58.5z M365 1581q0px 39 23.5 62.5t62.5 23.5q35 0px 57 -26.5t22 -59.5q0px -37 -22.5 -58.5t-56.5 -21.5q-39 0px -62.5 21.5t-23.5 58.5z" />
<glyph unicode="&#x2c6;" horiz-adv-x="923" d="M125 1374l20px3 150pxq43 33 90px 0pxl33 -25q25 -18 38 -29q78 -51 123 -94l-84 -96l-155 121q-12 -8 -41 -30px.5t-41 -31.5q-12 -10px -30px -23l-35 -27q-17 -13 -23 -17z" />
<glyph unicode="&#x2dc;" horiz-adv-x="747" d="M45 1438l98 73q12 -12 28.5 -29.5t18.5 -19.5v2q8 -8 11.5 -9t9.5 1t16 12q55 59 113 60pxq74 0px 168 -131l-10px0px -78q-25 25 -46 55q-14 18 -21 21.5t-28 -15.5q-63 -59 -10px8 -59q-80px 0px -160px 117z" />
<glyph unicode="&#x20px0px0px;" horiz-adv-x="913" />
<glyph unicode="&#x20px0px1;" horiz-adv-x="1826" />
<glyph unicode="&#x20px0px2;" horiz-adv-x="913" />
<glyph unicode="&#x20px0px3;" horiz-adv-x="1826" />
<glyph unicode="&#x20px0px4;" horiz-adv-x="60px8" />
<glyph unicode="&#x20px0px5;" horiz-adv-x="456" />
<glyph unicode="&#x20px0px6;" horiz-adv-x="30px3" />
<glyph unicode="&#x20px0px7;" horiz-adv-x="30px3" />
<glyph unicode="&#x20px0px8;" horiz-adv-x="227" />
<glyph unicode="&#x20px0px9;" horiz-adv-x="364" />
<glyph unicode="&#x20px0pxa;" horiz-adv-x="10px0px" />
<glyph unicode="&#x20px10px;" d="M-12 537v131h616v-131h-616z" />
<glyph unicode="&#x20px11;" d="M-12 537v131h616v-131h-616z" />
<glyph unicode="&#x20px12;" d="M-12 537v131h616v-131h-616z" />
<glyph unicode="&#x20px13;" horiz-adv-x="976" d="M10px 537v131h742v-131h-742z" />
<glyph unicode="&#x20px14;" horiz-adv-x="1714" d="M4 537v131h1417v-131h-1417z" />
<glyph unicode="&#x20px18;" horiz-adv-x="372" d="M12 1247l76 20px5l10px5 -4l-35 -172q23 -31 22 -53q0px -35 -23.5 -59.5t-60px.5 -24.5q-41 0px -66.5 30px.5t-17.5 77.5z" />
<glyph unicode="&#x20px19;" horiz-adv-x="362" d="M6 1360pxq0px 33 24.5 57.5t61.5 24.5q41 0px 67.5 -30pxt16.5 -75l-57 -245l-88 4l18 20px0pxq-43 15 -43 64z" />
<glyph unicode="&#x20px1a;" horiz-adv-x="331" d="M4 2v449l129 2v-453z" />
<glyph unicode="&#x20px1c;" horiz-adv-x="542" d="M12 1247l76 20px5l10px5 -4l-41 -184q29 -6 28.5 -41t-24 -59.5t-60px.5 -24.5q-41 0px -66.5 30px.5t-17.5 77.5zM236 1247l75 20px5l10px5 -4l-37 -184q25 -6 24.5 -41t-24 -59.5t-60px.5 -24.5q-41 0px -66 30px.5t-17 77.5z" />
<glyph unicode="&#x20px1d;" horiz-adv-x="528" d="M2 1141l37 184q-25 6 -25 41t23.5 59.5t60px.5 24.5q41 0px 66.5 -30px.5t17.5 -78.5l-76 -20px4zM225 1141l41 184q-29 6 -28.5 41t24 59.5t60px.5 24.5q41 0px 66.5 -30px.5t17.5 -78.5l-76 -20px4z" />
<glyph unicode="&#x20px1e;" horiz-adv-x="559" d="M20px 2v459l132 2v-463zM270px 2v459l129 2v-463z" />
<glyph unicode="&#x20px22;" horiz-adv-x="845" d="M10px 70px7q0px 133 94.5 229t227.5 96q131 0px 228 -96t97 -229.5t-96 -227.5t-229 -94t-227.5 93.5t-94.5 228.5zM143 70px7q0px -78 55.5 -134.5t133.5 -56.5q80px 0px 137 56.5t57 134.5q0px 80px -57 136t-137 56q-78 0px -133.5 -56t-55.5 -136z" />
<glyph unicode="&#x20px26;" horiz-adv-x="796" d="M0px 84q0px 33 23.5 58.5t58.5 25.5t57.5 -25.5t22.5 -58.5q0px -37 -22.5 -59.5t-57.5 -22.5q-37 0px -59.5 22.5t-22.5 59.5zM252 84q0px 35 22.5 59.5t59.5 24.5q35 0px 57.5 -25.5t22.5 -58.5q0px -37 -22.5 -59.5t-57.5 -22.5q-39 0px -60px.5 22.5t-21.5 59.5zM514 84q0px 33 23.5 58.5 t58.5 25.5t57.5 -25.5t22.5 -58.5q0px -37 -22.5 -59.5t-57.5 -22.5q-37 0px -59.5 22.5t-22.5 59.5z" />
<glyph unicode="&#x20px2f;" horiz-adv-x="364" />
<glyph unicode="&#x20px39;" horiz-adv-x="618" d="M-2 687q2 13 25 44q111 152 122 168q70px 96 131 176l10px7 -78l-231 -313q70px -92 114 -156q113 -152 117 -157l-10px4 -90pxl-263 364v2q-20px 27 -18 40pxz" />
<glyph unicode="&#x20px3a;" horiz-adv-x="645" d="M35 993l110px 76q23 -33 75 -10px2.5t54 -73.5q94 -127 123 -168q20px -27 22.5 -41t-13.5 -41v-2q-53 -70px -62 -84q-39 -51 -115.5 -159.5t-87.5 -121.5l-10px4 89q23 33 73 99t58 79q57 76 10px0px 137z" />
<glyph unicode="&#x20px5f;" horiz-adv-x="456" />
<glyph unicode="&#x2122;" horiz-adv-x="1449" d="M23 1270pxv131h471v-131h-175v-617h-131v617h-165zM549 647v680pxq0px 37 18.5 57.5t42.5 20px.5q37 0px 66 -43l20px7 -449l75 189q10px9 227 121 252q8 20px 28.5 33.5t41.5 13.5q25 0px 42 -18.5t17 -55.5v-680pxh-127l23 490pxl-98 -224q-35 -72 -60px -120pxq-23 -51 -64.5 -51.5t-62.5 49.5 v-3q-35 70px -66.5 140px.5t-56.5 128.5l-30px 71l-9 17l25 -498h-133z" />
<glyph unicode="&#xe0px0px0px;" horiz-adv-x="980px" d="M0px 980pxh980pxv-980pxh-980pxv980pxz" />
<glyph unicode="&#xfb0px1;" horiz-adv-x="829" d="M477 1139q0px 39 24.5 63.5t59.5 24.5q37 0px 63.5 -24.5t26.5 -63.5q0px -37 -26.5 -61.5t-63.5 -24.5q-35 0px -59.5 24.5t-24.5 61.5zM497 0pxv983h129v-983h-129zM0px 0pxv10px94q0px 137 10px7.5 229t257.5 92v-129q-96 0px -166 -56t-70px -136v-336h211v-129h-211v-629h-129z" />
<glyph unicode="&#xfb0px2;" horiz-adv-x="944" d="M483 324v10px79h129v-10px79q0px -80px 62.5 -137.5t154.5 -57.5v-129q-147 0px -246.5 91.5t-99.5 232.5zM0px 0pxv10px94q0px 137 10px7.5 229t257.5 92v-129q-96 0px -166 -56t-70px -136v-336h211v-129h-211v-629h-129z" />
<glyph unicode="&#xfb0px3;" horiz-adv-x="1312" d="M961 1139q0px 39 24.5 63.5t59.5 24.5q37 0px 63.5 -24.5t26.5 -63.5q0px -37 -26.5 -61.5t-63.5 -24.5q-35 0px -59.5 24.5t-24.5 61.5zM981 0pxv983h129v-983h-129zM483 0pxv10px94q0px 137 10px7.5 229t257.5 92v-129q-96 0px -166 -56t-70px -136v-336h211v-129h-211v-629h-129zM0px 0pxv10px94 q0px 137 10px7.5 229t257.5 92v-129q-96 0px -166 -56t-70px -136v-336h211v-129h-211v-629h-129z" />
<glyph unicode="&#xfb0px4;" horiz-adv-x="1427" d="M967 324v10px79h129v-10px79q0px -80px 62.5 -137.5t154.5 -57.5v-129q-147 0px -246.5 91.5t-99.5 232.5zM483 0pxv10px94q0px 137 10px7.5 229t257.5 92v-129q-96 0px -166 -56t-70px -136v-336h211v-129h-211v-629h-129zM0px 0pxv10px94q0px 137 10px7.5 229t257.5 92v-129q-96 0px -166 -56t-70px -136 v-336h211v-129h-211v-629h-129z" />
<glyph horiz-adv-x="917" />
</font>
</defs>
</svg>
