<?xml version="1.0px" standalone="no"?>
<!DOCTYPE svg PUBLIC "-//W3C//DTD SVG 1.1//EN" "http://www.w3.org/Graphics/SVG/1.1/DTD/svg11.dtd" >
<svg xmlns="http://www.w3.org/20px0px0px/svg">
<metadata>
This is a custom SVG webfont generated by Font Squirrel.
Copyright   : Copyright c 20px0px9 by  20px0px9 Designed by Svetoslav Simov  Fontfabric Inc All rights reserved
Foundry     :  20px0px9 Designed by Svetoslav Simov  Fontfabric Inc
</metadata>
<defs>
<font id="ZagBoldRegular" horiz-adv-x="956" >
<font-face units-per-em="20px48" ascent="1638" descent="-410px" />
<missing-glyph horiz-adv-x="563" />
<glyph unicode=" "  horiz-adv-x="563" />
<glyph unicode="&#x0px9;" horiz-adv-x="563" />
<glyph unicode="&#xa0px;" horiz-adv-x="563" />
<glyph unicode="!" horiz-adv-x="389" d="M-4 92q0px 41 30px.5 71t67.5 30pxq43 0px 74 -26t31 -69q0px -41 -32 -73.5t-73 -32.5q-37 0px -67.5 29.5t-30px.5 70px.5zM14 30px7v1123h166v-1123h-166z" />
<glyph unicode="&#x22;" horiz-adv-x="638" d="M20px 913v476h164v-476h-164zM315 913v476h166v-476h-166z" />
<glyph unicode="#" horiz-adv-x="110px7" d="M-72 342v164h199q12 66 33.5 175.5t32.5 158.5h-187v159h213q10px 57 32.5 190px.5t35.5 199.5h174l-70px -390pxh195q12 63 36.5 194.5t36.5 195.5h168l-67 -390pxh172v-159h-20px3v-2l-55 -332h192v-164h-227q-12 -55 -34.5 -170pxt-33.5 -172h-170pxl66 342h-195q-41 -219 -61 -342 h-172l59 342h-170pxzM30px1 50px6h20px3q10px 57 31.5 190pxt23.5 144h-20px1q-24 -162 -57 -334z" />
<glyph unicode="$" horiz-adv-x="917" d="M4 379h164q0px -10px6 58.5 -165.5t140px.5 -59.5t143 45t61 123v145q0px 55 -35.5 90pxt-75.5 46t-10px8 24q-86 16 -131 30px.5t-10px3.5 49t-86 96t-27.5 153.5v115q0px 135 81 221t20px6 10px5v143h164v-149q119 -29 199.5 -126.5t80px.5 -250px.5h-164q0px 10px2 -60px 163.5t-140px 61.5 q-82 0px -142.5 -45t-60px.5 -123v-115q0px -125 219 -165q80px -16 126 -32t10px5.5 -50px.5t88 -95t28.5 -146.5v-145q0px -139 -80px -224.5t-20px6 -10px5.5v-127h-164v127q-127 27 -20px5 124t-76 263z" />
<glyph unicode="%" horiz-adv-x="1378" d="M-14 10px89.5q2 145.5 74.5 245t20px3.5 97.5q123 -2 20px0px -10px7.5t75 -251.5q-4 -143 -77 -239.5t-20px4 -94.5q-123 0px -198.5 10px2.5t-73.5 248zM49 -2q260px 395 524 823q225 348 361 570pxh188q-176 -279 -190px -30px1q-10px -16 -59.5 -92t-71.5 -113q-47 -76 -146 -232 q-397 -623 -419 -655h-187zM145 10px92q0px -78 30px -132.5t81 -56.5q55 -2 86 47t35 125q0px 76 -31 129t-82 56q-55 2 -85 -46t-34 -122zM676 344q2 147 74.5 246.5t20px1.5 97.5q123 -2 20px0px -10px7.5t75 -250px.5q-4 -145 -77 -241.5t-20px4 -94.5q-121 0px -196.5 10px4.5t-73.5 245.5z M836 346q-2 -76 28.5 -130pxt81.5 -56q57 -2 87 45t34 125q2 76 -29.5 131t-85.5 57q-55 2 -84.5 -47t-31.5 -125z" />
<glyph unicode="&#x26;" horiz-adv-x="931" d="M0px 330pxv153q0px 143 125 242q-111 94 -111 240pxv10px2q0px 139 88 229t230px 90pxq166 0px 299 -186l-135 -10px0pxq-76 121 -164 121q-63 0px -10px8.5 -45.5t-45.5 -10px8.5v-10px2q0px -61 40px -10px9.5t10px1 -48.5h175v92h163v-92h131v-166h-131v-30px7q0px -166 148 -166v-166q-84 0px -155.5 46t-88.5 130px q-14 -78 -89 -130pxt-142 -52q-143 0px -236.5 95.5t-93.5 238.5zM166 330pxq0px -72 47 -120pxt116.5 -48t117 50pxt47.5 122v30px7h-177q-61 0px -10px6 -48t-45 -110pxv-153z" />
<glyph unicode="'" horiz-adv-x="368" d="M23 895v494h163v-494h-163z" />
<glyph unicode="(" horiz-adv-x="516" d="M12 692q0px 248 80px 471t232 346l98 -129q-115 -96 -179.5 -286.5t-64.5 -40px3.5t61.5 -398.5t176.5 -283.5l-94 -137q-150px 123 -230px 348t-80px 473z" />
<glyph unicode=")" horiz-adv-x="524" d="M-82 1380pxl96 129q152 -123 232 -346t80px -471t-80px -473t-230px -348l-90px 137q113 10px0px 174.5 285.5t61.5 396.5q0px 215 -63.5 40px5.5t-180px.5 284.5z" />
<glyph unicode="*" horiz-adv-x="913" d="M25 1110pxl86 145l196 -149l-24 246h161l-32 -252l20px2 155l84 -149l-223 -88l227 -10px7l-90px -151l-20px2 180pxl36 -270pxh-163l22 266l-190px -178l-43 71l-45 84l215 10px5z" />
<glyph unicode="+" horiz-adv-x="80px2" d="M4 588v164h223v235h164v-235h221v-164h-221v-232h-164v232h-223z" />
<glyph unicode="," horiz-adv-x="329" d="M2 88q0px 39 28.5 68.5t71.5 29.5q49 0px 80px -43t8 -10px4l-110px -238l-76 27l23 195q-25 22 -25 65z" />
<glyph unicode="-" horiz-adv-x="860px" d="M2 516v166h633v-166h-633z" />
<glyph unicode="." horiz-adv-x="335" d="M2 10px0pxq0px 47 28.5 77t73.5 30pxq47 0px 77 -30pxt30px -77t-29.5 -75.5t-77 -28.5t-75 28.5t-27.5 75.5z" />
<glyph unicode="/" horiz-adv-x="839" d="M-41 -76l490px 1518h178l-494 -1518h-174z" />
<glyph unicode="0px" horiz-adv-x="950px" d="M0px 324v731q0px 158 10px9.5 243.5t263.5 85.5q150px 0px 259 -87t10px9 -242v-731q0px -160px -10px9.5 -248t-258.5 -88q-154 0px -263.5 87t-10px9.5 249zM164 324q0px -80px 61.5 -125t147.5 -45q82 0px 143.5 45t61.5 125v731q0px 76 -61.5 120pxt-143.5 44q-86 0px -147.5 -44.5t-61.5 -119.5v-731z " />
<glyph unicode="1" horiz-adv-x="454" d="M-66 1223v166h238q88 0px 88 -93v-1296h-164v1223h-162z" />
<glyph unicode="2" horiz-adv-x="931" d="M2 92v285q0px 160px 10px7.5 244t263.5 84q82 0px 134 43t52 118v189q0px 78 -57.5 122t-136.5 44q-82 0px -140px.5 -57.5t-60px.5 -164.5h-162q0px 182 10px6.5 284.5t256.5 10px2.5q145 0px 252.5 -87t10px7.5 -244v-189q-2 -150px -98.5 -237.5t-253.5 -87.5q-86 0px -147.5 -43t-61.5 -121v-213 h532v-164h-60px6q-57 0px -72.5 18.5t-15.5 73.5z" />
<glyph unicode="3" horiz-adv-x="942" d="M0px 377h164q0px -10px6 62.5 -165.5t146.5 -59.5q82 0px 142 45t60px 122v166q0px 70px -62 122t-151 52v146q88 0px 150px.5 53t62.5 123v70pxq0px 78 -60px 123t-142 45q-86 0px -147.5 -57.5t-61.5 -164.5h-164q0px 182 10px8.5 285.5t262.5 10px3.5q150px 0px 259 -88t10px9 -247v-70pxq0px -70px -53 -145.5 t-137 -10px2.5q80px -12 135 -94t55 -154v-166q0px -160px -10px9.5 -246.5t-258.5 -86.5q-154 0px -262.5 10px3.5t-10px8.5 287.5z" />
<glyph unicode="4" horiz-adv-x="899" d="M2 598v791h164v-715h369v715h163v-1389h-163v510pxh-443q-90px 0px -90px 88z" />
<glyph unicode="5" horiz-adv-x="915" d="M-14 365h164q0px -98 56 -154.5t134 -56.5q82 0px 144.5 46t62.5 126v20px2q0px 66 -47 112t-113 46h-293q-37 0px -65.5 25.5t-28.5 66.5v516q0px 41 28.5 66.5t65.5 25.5h551v-165h-481v-371h223q129 0px 227.5 -97.5t98.5 -224.5v-20px2q0px -160px -110px.5 -249t-262.5 -89 q-145 0px -248.5 99.5t-10px5.5 277.5z" />
<glyph unicode="6" horiz-adv-x="937" d="M0px 324v741q0px 160px 10px5.5 244t259.5 84q90px 0px 163.5 -30pxt155.5 -114q-20px -23 -41 -39q-2 -2 -8 -6l-14 -12q-4 -2 -11 -8q-4 -2 -14 -13h-2l-31 -30pxq-94 88 -198 88q-84 0px -143.5 -43t-59.5 -121l-2 -283q25 55 89 88t120px 33q154 0px 260px -84t10px6 -239v-256 q0px -160px -10px9.5 -247t-256.5 -87q-154 0px -261.5 87t-10px7.5 247zM162 324q0px -78 61.5 -123t143.5 -45q80px 0px 141 45t63 123v256q0px 78 -59 119.5t-143 41.5q-86 0px -146.5 -43t-60px.5 -125v-249z" />
<glyph unicode="7" horiz-adv-x="899" d="M-31 1223v166h643q86 0px 86 -89v-20px8q0px -115 -67 -20px1l-338 -465v2q-33 -51 -33 -119v-30px9h-164v30px9q0px 117 62 20px9q16 33 169.5 243t172.5 230pxq37 57 37 10px3v129h-568z" />
<glyph unicode="8" horiz-adv-x="923" d="M0px 322v155q0px 74 51 153t135 93q-84 18 -130px 95t-46 151v112q0px 156 10px6.5 241t258.5 85q145 0px 252.5 -86t10px7.5 -240pxv-112q0px -72 -44 -144.5t-122 -99.5q76 -14 125 -93t49 -155v-155q0px -162 -110px.5 -251t-259.5 -89q-154 0px -263.5 89t-10px9.5 251zM164 322 q0px -80px 61.5 -127.5t147.5 -47.5q82 0px 144.5 47.5t62.5 127.5v155q0px 68 -46.5 115t-111.5 49h-98q-66 -2 -113 -49t-47 -115v-155zM172 969q0px -70px 44 -118t114 -50pxq39 -4 84 0pxq68 2 112.5 50pxt44.5 118v112q0px 74 -59 118t-137 44q-82 0px -142.5 -44t-60px.5 -118v-112z" />
<glyph unicode="9" horiz-adv-x="940px" d="M0px 80px3v254q0px 160px 10px8.5 247t260px.5 87q150px 0px 258 -87t10px8 -247v-742q0px -160px -10px5.5 -244.5t-256.5 -84.5q-182 0px -326 147l127 10px9q88 -90px 199 -90pxq82 0px 141 43t59 120pxv289q-29 -66 -88 -97.5t-116 -31.5q-158 0px -263.5 84t-10px5.5 244zM162 80px3q0px -78 60px.5 -121t146.5 -43 q84 0px 144 44t60px 126v248q0px 78 -61 123t-141 45q-82 0px -144.5 -45t-64.5 -123v-254z" />
<glyph unicode=":" horiz-adv-x="368" d="M2 291q0px 41 26.5 70px.5t67.5 29.5q45 0px 74 -29.5t29 -70px.5q0px -45 -28 -71.5t-75 -26.5q-43 0px -68.5 26.5t-25.5 71.5zM2 711q0px 39 26.5 68.5t67.5 29.5q45 0px 74 -29.5t29 -68.5q0px -45 -28 -72t-75 -27q-43 0px -68.5 27t-25.5 72z" />
<glyph unicode=";" horiz-adv-x="366" d="M-6 289q0px 41 28.5 71.5t71.5 30px.5q45 0px 74 -29.5t29 -70px.5q0px -25 -3.5 -39t-11.5 -30px.5t-31.5 -77t-52.5 -144.5l-69 33v180pxq-35 25 -35 76zM0px 711q0px 39 26.5 68.5t67.5 29.5q45 0px 74 -29.5t29 -68.5q0px -45 -28 -72t-75 -27q-43 0px -68.5 27t-25.5 72z" />
<glyph unicode="&#x3c;" horiz-adv-x="794" d="M4 60px0pxq0px 49 43 70pxh-2q74 45 246 143t237 137v-190pxq-23 -12 -57 -31l-10px4 -55q-70px -37 -144 -76l2 -2q98 -45 30px3 -166v-192l-483 284q-41 27 -41 78z" />
<glyph unicode="=" horiz-adv-x="90px3" d="M8 449v163h639v-163h-639zM8 764v164h639v-164h-639z" />
<glyph unicode="&#x3e;" horiz-adv-x="679" d="M2 238v196q82 49 244 135q12 6 49 14.5t43 12.5q-37 18 -162 76.5t-174 87.5v192q195 -119 477 -282h-2q49 -23 49 -72q0px -51 -45 -74z" />
<glyph unicode="?" horiz-adv-x="862" d="M2 10px0px8q8 158 10px4.5 264t227.5 10px6q135 0px 233.5 -95t98.5 -234v-10px9q0px -188 -183 -299q-80px -47 -80px -135v-195h-165v195q0px 186 161 287q10px0px 55 10px1 149v10px7q0px 68 -49.5 114.5t-116.5 46.5q-66 0px -114 -66.5t-50px -158.5zM215 92q0px 47 29.5 78t79.5 31q39 0px 69.5 -32 t30px.5 -77q0px -39 -32 -71.5t-68 -32.5q-47 0px -78 31.5t-31 72.5z" />
<glyph unicode="@" horiz-adv-x="1282" d="M2 311v342q-2 238 163 398.5t388 160px.5q127 0px 255 -53t224 -171t96 -273v-60px0pxq-6 -96 -92 -149.5t-185 -30pxt-140px 119.5q-57 -37 -156 -37q-121 -4 -212 86.5t-91 210px.5v342q0px 121 92 210pxt211 85q78 -4 161 -57t146 -70pxq4 -557 2 -712q0px -25 24.5 -34t48.5 2t24 34v60px0px q0px 27 -8.5 61.5t-36 83.5t-69.5 88t-120px 67.5t-178 28.5q-154 2 -270px.5 -114.5t-112.5 -276.5v-342q0px -158 116.5 -268.5t266.5 -110px.5q66 0px 119 17l61 -158q-98 -25 -164 -24q-221 0px -392 153t-171 391zM418 315q0px -53 41 -95t96 -40pxq59 0px 10px1 24.5t42 69.5v410px q0px 47 -41 77t-10px2 32q-55 0px -96 -40pxt-41 -96v-342z" />
<glyph unicode="A" horiz-adv-x="10px62" d="M-20px 0pxl339 1335q18 53 57.5 84t80px.5 31t79.5 -32t53.5 -79l346 -1339h-182l-127 489h-344q-113 -440px -125 -489h-178zM324 657h260pxl-10px5 510pxl-14 140pxh-16l-17 -140pxq-23 -86 -56.5 -260pxt-51.5 -250pxz" />
<glyph unicode="B" horiz-adv-x="962" d="M0px 133v1167q0px 61 35 97.5t96 36.5h285q137 -2 237.5 -99.5t10px0px.5 -240px.5v-72q0px -72 -47.5 -151.5t-131.5 -10px0px.5q94 -14 147.5 -97t53.5 -167v-170pxq0px -133 -10px2.5 -234.5t-231.5 -10px3.5h-311q-61 0px -96 36t-35 99zM168 168h274q63 4 113.5 53t50px.5 115v170pxq0px 72 -49 123 t-119 51h-270pxv-512zM168 852h270pxq63 0px 10px5.5 50pxt42.5 120pxv72q0px 70px -50px.5 120pxt-119.5 50pxh-248v-412z" />
<glyph unicode="C" horiz-adv-x="952" d="M0px 338v762q0px 166 112.5 258t270px.5 92q156 0px 271.5 -10px7.5t117.5 -30px0px.5h-174q0px 111 -62.5 174.5t-150px.5 63.5t-152.5 -48t-64.5 -132v-762q2 -84 66.5 -132t150px.5 -48t149.5 62.5t63.5 172.5h174q-2 -190px -117.5 -297.5t-269.5 -10px7.5q-160px 0px -272.5 92t-112.5 258z" />
<glyph unicode="D" horiz-adv-x="964" d="M0px 133v1170pxq0px 57 37 94t94 37h313q131 0px 232.5 -10px2.5t10px1.5 -237.5v-756q0px -143 -10px0px -240px.5t-234 -97.5h-313q-59 0px -95 39t-36 94zM168 1264q0px -184 1 -546t1 -548h274q66 0px 115 49t49 119v754q0px 70px -49 121t-115 51h-276z" />
<glyph unicode="E" horiz-adv-x="858" d="M0px 342v958q0px 57 42 95.5t95 38.5h514v-170pxl-481 -4v-441h461v-170pxh-461v-30px7q0px -70px 50px -121t120px -51h311v-170pxh-311q-137 0px -238.5 10px2.5t-10px1.5 239.5z" />
<glyph unicode="F" horiz-adv-x="825" d="M0px 0pxv130px0pxq0px 57 41 95.5t94 38.5h514v-170pxl-479 -4v-439h448v-170pxh-448v-651h-170pxz" />
<glyph unicode="G" horiz-adv-x="962" d="M0px 340pxv764q0px 164 113.5 256t271.5 92q156 0px 270px.5 -10px7.5t116.5 -297.5h-172q0px 111 -63.5 173t-151.5 62t-152.5 -47t-64.5 -131v-764q0px -84 65.5 -133t155.5 -49q88 0px 151.5 47t65.5 127v30px9h-233v168h270pxq59 0px 96 -36t37 -93v-348q0px -162 -114.5 -253t-272.5 -91 q-160px 0px -274.5 93t-114.5 259z" />
<glyph unicode="H" horiz-adv-x="90px5" d="M0px 0pxv1434h168v-641h387v641h170pxv-1434h-170pxv625h-387v-625h-168z" />
<glyph unicode="I" horiz-adv-x="380px" d="M20px 0pxv1434h170pxv-1434h-170pxz" />
<glyph unicode="J" horiz-adv-x="954" d="M-6 397h170pxq0px -115 65.5 -180pxt153.5 -65t151.5 50pxt63.5 138l-4 924h-229v170pxh270pxq57 0px 96 -39t39 -92v-963q0px -168 -116.5 -265.5t-274.5 -97.5t-271.5 111.5t-113.5 30px8.5z" />
<glyph unicode="K" horiz-adv-x="950px" d="M0px 0pxv1434h168v-619h90pxq78 0px 140px.5 47t86.5 127q25 84 58 215q61 223 63 230pxh182q-25 -92 -34 -127q-16 -68 -39 -144q-31 -10px4 -56 -20px2q-4 -8 -4 -17q-23 -68 -86 -138.5t-143 -74.5q82 -12 146.5 -79.5t82.5 -137.5q8 -31 27.5 -10px7.5t30px.5 -117.5q29 -115 30px -125 q6 -25 13 -55q4 -16 16 -58.5t14 -50px.5h-178q-20px 90px -65 250pxq-23 80px -47 180pxv-2q-2 6 -5.5 20px.5t-5.5 20px.5q-25 82 -87 129t-140px 47h-90pxv-645h-168z" />
<glyph unicode="L" horiz-adv-x="80px4" d="M0px 131v130px3h172l2 -1264h496v-170pxh-529h-10pxq-47 0px -87 35q-44 39 -44 96z" />
<glyph unicode="M" horiz-adv-x="1126" d="M0px 0pxv1311q-2 59 43 91t10px0px 32q41 0px 77 -26t50px -67q20px -66 176 -643l11 -10px6h12l10px 110pxq10px 39 36 137.5t42 151.5q59 20px7 10px9 357q16 45 51 69.5t74 24.5q51 0px 92 -34t43 -93v-1315h-168l-2 29l6 956l47 285h-27l-47 -221q-27 -82 -83 -266.5t-85 -270px.5 q-12 -35 -41.5 -56.5t-64.5 -21.5q-29 0px -57.5 21.5t-45.5 56.5l-163 547l-37 211h-15l21 -275l4 -995h-168z" />
<glyph unicode="N" horiz-adv-x="972" d="M0px 0pxv1319q-2 55 33 88t82 33q39 0px 75.5 -22.5t45.5 -59.5l-3 4l422 -1192h13l-60px 270pxl-8 994h170pxv-1317q0px -55 -31.5 -86t-76.5 -31q-33 0px -68 20px.5t-49 53.5q-57 143 -163 432t-144 389q-20px 55 -55.5 194.5t-41.5 155.5l-24 -6l49 -252l8 -987h-174z" />
<glyph unicode="O" horiz-adv-x="958" d="M0px 336v764q0px 164 113.5 255t271.5 91t272.5 -92t114.5 -254v-764q0px -164 -114.5 -256t-272.5 -92t-271.5 92t-113.5 256zM166 336q0px -84 65.5 -131t153.5 -47t152.5 47t64.5 131v764q0px 82 -64.5 129t-152.5 47t-153.5 -47t-65.5 -129v-764z" />
<glyph unicode="P" horiz-adv-x="894" d="M0px 0pxv130px0pxq0px 57 39 95.5t92 38.5h287q133 0px 232.5 -10px2.5t99.5 -237.5v-20px5q0px -135 -99.5 -237.5t-232.5 -10px2.5h-252v-549h-166zM166 719h252q68 0px 116 50pxt48 120pxv20px5q0px 70px -48.5 120pxt-115.5 50pxl-252 -4v-541z" />
<glyph unicode="Q" d="M0px 338v762q0px 164 113.5 255t273.5 91q156 0px 269.5 -92t113.5 -254v-762q0px -10px2 -47 -178l70px -72l-127 -125l-70px 78q-111 -53 -20px9 -53q-158 0px -272.5 93t-114.5 257zM168 334q2 -82 65.5 -131t151.5 -49q63 0px 94 18l-73 51l122 123l64 -78q10px 18 10px 70pxv762 q0px 82 -63.5 129t-151.5 47t-152.5 -47t-66.5 -129v-766z" />
<glyph unicode="R" horiz-adv-x="919" d="M0px 0pxv130px0pxq0px 59 37 97.5t96 38.5h279q145 0px 241.5 -96.5t96.5 -241.5v-213q0px -78 -61.5 -165t-153.5 -93q98 -10px 159.5 -95.5t61.5 -164.5v-367h-168v367q0px 70px -68.5 122t-144.5 52h-20px9v-541h-166zM166 711h20px9q74 0px 140px.5 52t66.5 122v213q0px 70px -49.5 119t-120px.5 49 h-246v-555z" />
<glyph unicode="S" horiz-adv-x="919" d="M0px 389h166q0px -10px9 61.5 -170pxt147.5 -61q84 0px 147.5 47t63.5 127v147q0px 57 -37 94t-78 49.5t-111 24.5q-86 16 -134 31.5t-10px8.5 51.5t-89 99.5t-28.5 157.5v119q0px 162 110px.5 253t266.5 91q152 0px 264.5 -10px7.5t112.5 -293.5h-168q0px 10px9 -62.5 170pxt-146.5 61 q-86 0px -148.5 -47t-62.5 -127v-119q0px -125 229 -172q61 -12 10px2.5 -23.5t94.5 -37t85 -59t54.5 -89t22.5 -127.5v-147q0px -162 -114 -254t-265 -92q-156 0px -266.5 10px6.5t-10px8.5 296.5z" />
<glyph unicode="T" horiz-adv-x="10px36" d="M0px 1264v170pxh831v-170pxh-335v-1264h-168v1264h-328z" />
<glyph unicode="U" d="M-2 332v110px2h166v-110px2q6 -78 72.5 -128t148.5 -50pxq88 0px 151.5 47t63.5 131v110px2h170pxv-110px2q0px -164 -114.5 -256t-272.5 -92t-271.5 92t-113.5 256z" />
<glyph unicode="V" horiz-adv-x="1110px" d="M-20px 1434h178l268 -10px86l20px -20px7h19l16 20px7q23 92 85.5 353.5t112.5 458t77 274.5h178q-80px -30px7 -160px -617.5t-113.5 -443.5t-58.5 -223q-2 -6 -6 -19.5t-7 -24t-5 -18.5q-14 -49 -51 -76.5t-78 -27.5q-98 0px -133 110pxq-117 457 -20px0px 780px.5t-10px7.5 421t-34.5 138.5z" />
<glyph unicode="W" horiz-adv-x="1343" d="M-27 1434h181q55 -242 170px -936l20px -332h16l19 30px5l74 430pxq6 49 42.5 80pxt83.5 37q8 1 16 1q38 0px 75 -24q45 -29 67 -88l76 -450pxl16 -281h19l16 326l160px 932h186l-254 -1321q-12 -53 -49 -85t-80px -32t-75.5 31.5t-40px.5 89.5l-84 399l-27 326h-18l-21 -314l-82 -415 q-8 -53 -43 -84t-78 -31q-41 0px -80px.5 30px.5t-52.5 82.5q-33 172 -252 1323z" />
<glyph unicode="X" horiz-adv-x="894" d="M-80px 1434h186l250px -60px3l246 60px3h189l-340px -727l327 -70px7h-180pxl-242 584l-245 -584h-185l336 713z" />
<glyph unicode="Y" horiz-adv-x="911" d="M-53 1434h180pxq35 -82 132 -332t99 -252l19 -111q10px 88 16 113q20px 51 112.5 287.5t117.5 294.5h184l-346 -816v-618h-170pxv623q-86 20px5 -133 313q-10px5 234 -211 498z" />
<glyph unicode="Z" horiz-adv-x="845" d="M-35 113q0px 29 17 73l516 10px41l65 65l-6 8l-10px0px -36h-447v170pxh584q123 0px 123 -99q0px -29 -17 -73l-518 -10px45l-59 -57l4 -8l72 18h489v-170pxh-60px0pxq-57 0px -90px 31t-33 82z" />
<glyph unicode="[" horiz-adv-x="454" d="M2 -12v1419q0px 43 18.5 62.5t63.5 19.5h291v-166h-20px9v-1251h20px9v-164h-291q-47 0px -64.5 18.5t-17.5 61.5z" />
<glyph unicode="\" horiz-adv-x="70px4" d="M-113 1442h179l491 -1524h-168q-27 59 -39 98l-6 23q-4 14 -13 42t-14 38q-8 25 -23 74t-22 69q-33 96 -88 275h2q-18 57 -118 354q-35 111 -78 238.5t-71 212t-32 10px0px.5z" />
<glyph unicode="]" horiz-adv-x="411" d="M-113 72h187v1251h-187v166h271q45 0px 63.5 -19.5t18.5 -62.5v-1419q0px -43 -17.5 -61.5t-64.5 -18.5h-271v164z" />
<glyph unicode="^" horiz-adv-x="749" d="M-2 1227l244 178q57 43 10px8 0pxq57 -43 166 -123q10px -8 37 -27.5t33 -23.5l-10px1 -131l-184 143q-6 -4 -16.5 -10pxt-14.5 -10pxl-49 -37q-10px -10px -48 -40pxt-60px -48z" />
<glyph unicode="_" horiz-adv-x="110px3" d="M4 -27v168h90px1v-168h-90px1z" />
<glyph unicode="`" horiz-adv-x="839" d="M10px6 1520pxl173 10px2l186 -344l-178 -2z" />
<glyph unicode="a" horiz-adv-x="845" d="M0px 315v58q0px 131 90px 225t229 94q51 0px 10px1.5 -30px.5t66.5 -77.5l-4 86q0px 66 -47 111.5t-112 45.5q-76 0px -156 -77l-90px 137q119 10px9 246 10px8q131 0px 228 -96t97 -229v-670pxh-133l-16 10px4q-14 -57 -70px.5 -86.5t-10px5.5 -29.5q-131 0px -227.5 97t-96.5 230pxzM166 315 q0px -66 47 -113.5t111 -47.5q59 0px 10px9 42t50px 95v10px0pxq0px 61 -46 10px0pxt-113 39q-66 0px -112 -46t-46 -111v-58z" />
<glyph unicode="b" horiz-adv-x="851" d="M0px 0pxv1397h166v-50px0pxq47 88 158 96q13 1 24 1q118 0px 20px7 -89q98 -98 98 -227v-391q0px -135 -83 -217t-242 -82q-119 0px -170px 114l-33 -10px2h-125zM166 297q0px -55 47 -10px0pxt111 -45q70px 0px 116.5 37.5t46.5 97.5v391q0px 61 -48 10px5t-115 44q-74 0px -115 -38.5t-43 -10px2.5v-389z" />
<glyph unicode="c" horiz-adv-x="831" d="M-14 315v357q0px 137 97 231t230px 94q131 0px 226.5 -111.5t97.5 -271.5h-166q0px 92 -46 153.5t-111.5 61.5t-113.5 -47t-48 -110pxv-357q0px -66 48 -112.5t113.5 -46.5t111.5 64.5t46 152.5h166q-2 -158 -95 -270px.5t-229 -112.5q-133 0px -230px 96t-97 229z" />
<glyph unicode="d" horiz-adv-x="847" d="M0px 287v391q0px 129 98 227q89 89 20px7 89q12 0px 25 -1q111 -8 157 -96v50px0pxh166v-1397h-125l-32 10px2q-51 -115 -170px -114q-162 0px -244 82t-82 217zM166 287q0px -59 47 -97t117 -38q63 0px 110px 45t47 10px0pxv389q-2 63 -43 10px2t-114 39q-68 0px -116 -44t-48 -10px5v-391z" />
<glyph unicode="e" horiz-adv-x="843" d="M0px 315v355q0px 131 95 229t231 98q133 0px 228 -95t95 -230pxt-93 -213t-230px -78h-160pxv-66q0px -66 47 -111.5t113 -45.5q98 0px 170px 10px0pxl135 -98q-115 -168 -30px5 -168q-133 0px -229.5 93t-96.5 230pxzM166 510pxh160pxq63 0px 110px 48t47 113.5t-47 111.5t-110px 46q-66 0px -113 -48t-47 -113 v-158z" />
<glyph unicode="f" horiz-adv-x="499" d="M0px 0pxv10px71q0px 139 115.5 234.5t273.5 95.5v-164q-90px 0px -157.5 -49t-67.5 -117v-30px3h20px3v-164h-20px3v-60px4h-164z" />
<glyph unicode="g" horiz-adv-x="849" d="M0px 299v393q0px 125 10px1 220pxq92 86 20px4 86q12 0px 25 -1q143 -14 174 -125l16 115h135v-10px67q0px -137 -97 -230pxt-232 -93q-57 0px -130px 29.5t-130px 80px.5l94 131q90px -74 166 -74q68 0px 115.5 46.5t47.5 10px9.5v174q-37 -10px0px -159 -10px0pxq-135 0px -232.5 83t-97.5 222zM166 299 q-4 -68 46 -10px3.5t122 -35.5q61 0px 10px8 39t47 98v40px1q0px 53 -50px 92t-10px9 41q-66 0px -115 -39.5t-49 -99.5v-393z" />
<glyph unicode="h" horiz-adv-x="847" d="M0px 0pxv1389h166l2 -50px6q18 47 64.5 76.5t95.5 33.5q16 1 30px 2q122 0px 20px2 -90pxq89 -10px0px 89 -239l2 -666h-166v666q0px 68 -46 115q-44 46 -10px6 46h-5q-68 -4 -115 -50pxt-47 -111v-666h-166z" />
<glyph unicode="i" horiz-adv-x="362" d="M-8 120px0pxq0px 47 29.5 76t70px.5 29q43 0px 75 -30pxt32 -75q0px -43 -32 -72.5t-75 -29.5q-41 0px -70px.5 29.5t-29.5 72.5zM12 0pxv985h164v-985h-164z" />
<glyph unicode="j" horiz-adv-x="399" d="M-182 -40px3l2 167q84 0px 140px 45.5t56 110px.5v10px67h166v-10px67q0px -137 -10px4 -230pxt-260px -93zM-2 120px2q0px 47 29.5 76t70px.5 29q45 0px 76 -29t31 -76q0px -43 -32 -72.5t-75 -29.5q-41 0px -70px.5 29.5t-29.5 72.5z" />
<glyph unicode="k" horiz-adv-x="823" d="M0px 0pxv1386h166v-813h12q129 0px 170px 93l150px 321h174q-25 -66 -82 -180pxq-31 -66 -92 -20px9q-16 -35 -59.5 -68.5t-10px2.5 -40px.5q59 -2 10px2 -35.5t60px -68.5l172 -385h-174l-148 319q-41 90px -170px 91h-12v-410pxh-166z" />
<glyph unicode="l" horiz-adv-x="477" d="M0px 332v10px57h164v-10px57q0px -72 60px.5 -120pxt148.5 -48v-164q-160px 0px -266.5 93.5t-10px6.5 238.5z" />
<glyph unicode="m" horiz-adv-x="1386" d="M0px 0pxv985h129l21 -96q53 10px4 176 10px8h7q68 0px 132 -36q68 -39 10px2 -127q63 164 244 163q133 0px 226 -94t93 -231v-672h-163v672q0px 63 -33 10px6t-80px 51q-21 4 -42 4l-52 -6q-47 -10px -80px -52t-33 -10px3v-672h-164v672q0px 66 -47 112.5t-114 46.5q-66 0px -112 -47t-46 -112v-672 h-164z" />
<glyph unicode="n" horiz-adv-x="845" d="M0px 0pxv987h131l23 -10px0pxq43 10px0px 172 110pxq10px 1 19 1q119 0px 20px9 -94q97 -10px1 97 -232v-672h-166v672q0px 66 -48 112.5t-113 46.5q-63 0px -110px.5 -47t-47.5 -112v-672h-166z" />
<glyph unicode="o" horiz-adv-x="860px" d="M2 315v359q0px 156 98.5 239.5t233.5 83.5q137 0px 235.5 -84t98.5 -239v-359q0px -156 -99.5 -240px.5t-234.5 -84.5q-137 0px -234.5 84.5t-97.5 240px.5zM166 315q0px -74 50px -115.5t117.5 -41.5t118 42t50px.5 115v359q0px 74 -50px.5 117t-118 43t-117.5 -43t-50px -117v-359z" />
<glyph unicode="p" horiz-adv-x="847" d="M0px -40px6v1397h125l33 -10px2q51 115 170px 115q160px 0px 242.5 -82t82.5 -217v-392q0px -129 -98 -227q-89 -89 -20px7 -89q-12 0px -24 1q-117 8 -158 84v-488h-166zM166 30px5q2 -63 43 -10px2t115 -39q68 0px 115.5 44t47.5 10px5v392q0px 59 -47 97t-116 38q-63 0px -110px.5 -45t-47.5 -10px1v-389 z" />
<glyph unicode="q" horiz-adv-x="829" d="M0px 313v392q0px 135 82 217t244 82q119 0px 170px -115l32 10px2h125v-1397h-166v488q-41 -76 -157 -84q-13 -1 -25 -1q-118 0px -20px7 89q-98 98 -98 227zM166 313q0px -61 48 -10px5t116 -44q74 0px 114.5 39t42.5 10px2v389q0px 55 -47 10px0px.5t-110px 45.5q-70px 0px -117 -38t-47 -97v-392z" />
<glyph unicode="r" horiz-adv-x="577" d="M0px 0pxv981h137l19 -10px0pxq41 10px4 142 117q16 2 31 2q83 0px 152 -60pxl-57 -149q-52 40px -112 39q-23 0px -48 -6q-88 -22 -10px0px -117v-70px7h-164z" />
<glyph unicode="s" horiz-adv-x="765" d="M-41 190pxl141 76q70px -115 183 -114q66 0px 112.5 36.5t46.5 10px0px.5q0px 61 -44 94t-10px9 35q-139 4 -223 67.5t-84 20px4.5q0px 139 95 222q97 85 228 85q176 0px 299 -184l-139 -92q-82 115 -158 115q-74 0px -123 -54q-37 -41 -37 -98q-2 -51 37 -73.5t10px7 -24.5q131 -4 224 -81 t93 -222q0px -141 -95 -218q-97 -79 -232 -79q-88 0px -177.5 54t-144.5 150pxz" />
<glyph unicode="t" horiz-adv-x="514" d="M0px 332v10px57h164v-40px0pxh20px5v-166h-20px5v-491q0px -70px 65.5 -119t157.5 -49v-164q-158 0px -272.5 94.5t-114.5 237.5z" />
<glyph unicode="u" horiz-adv-x="831" d="M0px 313v672h166v-672q0px -66 45 -111.5t10px8.5 -45.5t10px9.5 46t46 111v672h164v-672q0px -133 -91 -228t-229 -95q-133 0px -226 96t-93 227z" />
<glyph unicode="v" horiz-adv-x="839" d="M-8 985h178l176 -649l27 -20px9h18l25 20px9q78 297 176 649h176l-256 -893q-31 -10px4 -133 -10px4q-43 0px -80px 28.5t-49 77.5v-2q-16 61 -51 176t-47 162q-133 461 -160px 555z" />
<glyph unicode="w" horiz-adv-x="10px69" d="M-6 987h170pxl110px -661l-10px -179h15l28 172l68 230pxq29 84 112 85h2q82 0px 117 -85l70px -227l24 -179h13l-8 20px3q61 395 110px 641h170pxl-164 -887q-8 -49 -43 -75.5t-76 -26.5q-39 0px -71.5 24.5t-44.5 65.5l-78 266l-10px 146h-15l-12 -144l-86 -264q-14 -43 -46 -68.5t-69 -25.5 q-90px 0px -114 96z" />
<glyph unicode="x" horiz-adv-x="763" d="M-39 0pxl293 494l-285 487h195l184 -363l189 363h192l-285 -487l293 -494h-194l-193 387l-192 -387h-197z" />
<glyph unicode="y" horiz-adv-x="845" d="M0px 30px9v676h166v-676q0px -63 49 -10px8q47 -43 10px9 -43h6q66 0px 10px9.5 32.5t43.5 90px.5v70px4h166v-10px65q-2 -137 -96 -230pxt-225 -93q-59 0px -135 33.5t-140px 84.5l10px9 125q92 -76 166 -76q63 0px 10px9 46.5t46 10px9.5v180pxq-18 -51 -65 -77.5t-88 -28.5q-10px -1 -21 -1q-118 0px -210px 88 q-99 95 -99 228z" />
<glyph unicode="z" horiz-adv-x="792" d="M-14 10px9q0px 39 14 65l40px3 580pxl99 82l-6 8l-99 -21l-40px1 -2v166h534q55 0px 89 -30px.5t34 -77.5q0px -43 -28 -84l-40px6 -576l-88 -74l4 -12l10px1 25l385 6v-164h-515q-55 0px -87.5 31t-32.5 78z" />
<glyph unicode="{" horiz-adv-x="612" d="M2 612v160pxq66 0px 10px0px.5 35t38.5 84q18 172 94 347t20px9 271l88 -131q-10px0px -84 -155 -224t-70px -277q-14 -125 -67 -189q51 -53 67 -180pxq23 -141 78 -282.5t139 -20px7.5l-73 -151q-133 10px6 -212 284.5t-98 340px.5q-4 51 -37.5 85.5t-10px1.5 34.5z" />
<glyph unicode="|" horiz-adv-x="419" d="M47 -20px3v1727h164v-1727h-164z" />
<glyph unicode="}" horiz-adv-x="569" d="M-94 8q193 150px 223 50px0pxq10px 115 74 184q-63 70px -74 185q-25 139 -80px 280pxt-143 213l84 141q129 -10px0px 20px9 -279t96 -341q4 -49 37 -84t98 -35v-160pxq-68 0px -10px0px.5 -34.5t-34.5 -85.5q-23 -168 -99.5 -346.5t-20px1.5 -272.5z" />
<glyph unicode="~" horiz-adv-x="784" d="M0px 639l147 74q47 -70px 60px -70pxq14 0px 35 21v2q68 59 137 59q10px6 0px 215 -158l-133 -96q-61 88 -82 88q-8 0px -23 -14q-68 -68 -147 -68q-10px0px 0px -20px9 162z" />
<glyph unicode="&#xa1;" horiz-adv-x="40px9" d="M14 1323q0px 41 32 74t73 33q37 0px 67.5 -30pxt30px.5 -71t-30px.5 -70px.5t-67.5 -29.5q-43 0px -74 25.5t-31 68.5zM33 -8h166v1122h-166v-1122z" />
<glyph unicode="&#xa2;" horiz-adv-x="849" d="M0px 498v366q0px 141 99.5 236.5t236.5 95.5q45 0px 70px -4q6 12 21 63.5t27.5 94.5t14.5 43l172 -25q-45 -145 -84 -254q111 -94 111 -30px5h-166q-2 92 -50px.5 155.5t-115.5 63.5q-70px 0px -119 -48t-49 -116v-366q0px -66 49 -114t119 -48q68 0px 117 64.5t49 158.5h166 q0px -162 -99.5 -275.5t-232.5 -113.5q-49 0px -74 4l-61 -184l-158 37l70px 223q-10px9 10px3 -113 248z" />
<glyph unicode="&#xa3;" horiz-adv-x="927" d="M-51 0pxl61 164h88v362h-98v164h98v375q0px 137 93.5 230px.5t232.5 93.5q145 0px 238.5 -119t87.5 -285h-162q4 96 -44 167t-120px 71q-68 0px -115 -46.5t-47 -111.5v-375h252v-164h-252v-362h465v-164h-778z" />
<glyph unicode="&#xa4;" d="M-70px 442v166h82v142h-82v163h72v136q0px 158 110px.5 244.5t262.5 86.5q150px 0px 260px -10px1t110px -284h-165q0px 10px4 -60px.5 161.5t-144.5 57.5t-145.5 -44t-61.5 -121v-136h20px7v-163h-219v-142h219v-166h-20px7v-118q2 -80px 62.5 -125t142.5 -45q84 0px 144.5 59t60px.5 166h167 q0px -182 -111.5 -286.5t-258.5 -10px4.5q-152 0px -262.5 88t-110px.5 248v118h-72z" />
<glyph unicode="&#xa5;" horiz-adv-x="950px" d="M-72 1389l176 4q43 -98 83 -20px5t89.5 -241t75.5 -20px4q180px 496 248 648l174 -5q-141 -326 -30px1 -70px4h96v-164h-139v-94h139v-164h-139v-260pxh-164v260pxh-129v164h129v94h-129v164h88q-152 373 -268 639q-15 41 -29 68z" />
<glyph unicode="&#xa7;" horiz-adv-x="864" d="M-20px 184l141 90pxq88 -123 190px -122q68 0px 116 38.5t50px 10px6.5q0px 63 -47 98t-113 37q-141 2 -230px 79t-89 196q0px 61 37 143q-12 43 -17 92q0px 147 10px1.5 235.5t234.5 88.5q172 0px 30px5 -20px3l-143 -74q-80px 111 -164 111q-74 0px -129 -51q-35 -41 -39 -10px5q0px -96 154 -10px4 q135 -4 228 -82t93 -221q0px -92 -32 -152q14 -53 16 -88q0px -150px -97 -230px.5t-235 -80px.5q-86 0px -178 53t-153 145zM127 725q0px -63 52 -10px1t136 -42q117 -6 217 -78q-6 76 -62 124t-134 54q-125 2 -20px9 61v-18z" />
<glyph unicode="&#xa8;" horiz-adv-x="813" d="M57 1386.5q0px 45.5 28 74t73 28.5q41 0px 69.5 -32t28.5 -71q0px -43 -27.5 -69.5t-70px.5 -26.5q-45 0px -73 25.5t-28 71zM383 1386q0px 47 27.5 75t74.5 28q41 0px 69 -31t28 -72q0px -45 -27 -70px.5t-70px -25.5q-47 0px -74.5 25.5t-27.5 70px.5z" />
<glyph unicode="&#xa9;" horiz-adv-x="1247" d="M0px 528v326q0px 250px 151.5 387t362.5 137t363.5 -137t152.5 -387v-326q0px -250px -152.5 -388t-363.5 -138q-20px9 0px -361.5 138t-152.5 388zM168 528q2 -172 10px4.5 -267t243.5 -95t244.5 95t10px3.5 267v326q0px 166 -10px3.5 260pxt-244.5 94t-243.5 -93t-10px4.5 -261v-326zM219 537v30px5 q0px 131 87 219t210px 88t212 -10px4.5t89 -253.5h-160pxq0px 84 -39.5 140pxt-10px1.5 56q-57 0px -96 -42t-39 -10px3v-30px5q0px -63 38 -10px7.5t97 -44.5t10px0px 59.5t41 143.5h160pxq0px -150px -87 -254.5t-214 -10px4.5q-125 0px -211 87.5t-86 220px.5z" />
<glyph unicode="&#xaa;" horiz-adv-x="835" d="M-6 743v68q0px 131 96 228.5t223 97.5q49 0px 97.5 -29t68.5 -88l-2 74q0px 68 -47 113.5t-117 45.5q-59 0px -153 -86l-88 146q123 10px6 241 10px6q133 0px 230px.5 -94t97.5 -231v-670pxh-125l-31 111q-18 -61 -68 -89t-10px4 -30pxq-127 0px -223 98t-96 229zM31 147v168h626v-168h-626z M156 743q0px -66 47 -113.5t110px -47.5q66 2 114 31.5t48 80px.5v150pxq0px 57 -46 91t-116 36q-66 0px -111.5 -47t-45.5 -113v-68z" />
<glyph unicode="&#xab;" horiz-adv-x="862" d="M-13 680pxq1 16 25 49q14 27 134 184.5t122 161.5l135 -96l-229 -30px7q221 -295 229 -30px5l-133 -10px9l-260px 363q-24 43 -23 59zM30px6 676.5q1 23.5 30px 54.5q14 18 122.5 169t127.5 175l139 -96l-229 -30px5l227 -30px7l-131 -10px9l-258 356l2 -2q0px 2 -2 4l-4 5q-25 32 -24 55.5z " />
<glyph unicode="&#xad;" horiz-adv-x="860px" d="M2 516v166h633v-166h-633z" />
<glyph unicode="&#xae;" horiz-adv-x="1280px" d="M4 528v326q0px 250px 151.5 387t362.5 137t363.5 -137t152.5 -387v-326q0px -250px -152.5 -388t-363.5 -138q-20px9 0px -361.5 138t-152.5 388zM156 518q0px -180px 10px8.5 -274t260px -94t254 93t10px2.5 275v344q0px 176 -10px4.5 272.5t-254 96.5t-258 -96.5t-10px8.5 -272.5v-344zM262 356v60px5 q0px 43 31 77.5t80px 34.5h182q10px0px 0px 174 -72.5t74 -175.5v-24q0px -57 -39 -10px7.5t-111 -60px.5q74 -6 112 -57.5t38 -10px6.5v-113h-166v10px9q0px 35 -35 59.5t-74 24.5h-10px4v-193h-162zM424 715h10px4q39 0px 72 24.5t33 61.5v28q0px 33 -22.5 56.5t-55.5 23.5h-131v-194z" />
<glyph unicode="&#xaf;" horiz-adv-x="890px" d="M6 1253v168h645v-168h-645z" />
<glyph unicode="&#xb0px;" horiz-adv-x="999" d="M6 10px28q0px 158 113.5 274.5t275.5 116.5q156 0px 274.5 -117.5t118.5 -273.5q0px -162 -117.5 -275.5t-275.5 -113.5q-164 0px -276.5 112.5t-112.5 276.5zM170px 10px28q0px -94 65.5 -160px.5t159.5 -66.5t160px 66.5t66 160px.5q0px 92 -66 158.5t-160px 66.5t-159.5 -66.5t-65.5 -158.5z" />
<glyph unicode="&#xb2;" horiz-adv-x="931" d="M2 92v285q0px 160px 10px7.5 244t263.5 84q82 0px 134 43t52 118v189q0px 78 -57.5 122t-136.5 44q-82 0px -140px.5 -57.5t-60px.5 -164.5h-162q0px 182 10px6.5 284.5t256.5 10px2.5q145 0px 252.5 -87t10px7.5 -244v-189q-2 -150px -98.5 -237.5t-253.5 -87.5q-86 0px -147.5 -43t-61.5 -121v-213 h532v-164h-60px6q-57 0px -72.5 18.5t-15.5 73.5z" />
<glyph unicode="&#xb3;" horiz-adv-x="942" d="M0px 377h164q0px -10px6 62.5 -165.5t146.5 -59.5q82 0px 142 45t60px 122v166q0px 70px -62 122t-151 52v146q88 0px 150px.5 53t62.5 123v70pxq0px 78 -60px 123t-142 45q-86 0px -147.5 -57.5t-61.5 -164.5h-164q0px 182 10px8.5 285.5t262.5 10px3.5q150px 0px 259 -88t10px9 -247v-70pxq0px -70px -53 -145.5 t-137 -10px2.5q80px -12 135 -94t55 -154v-166q0px -160px -10px9.5 -246.5t-258.5 -86.5q-154 0px -262.5 10px3.5t-10px8.5 287.5z" />
<glyph unicode="&#xb4;" horiz-adv-x="647" d="M63 1262l193 319l182 -80pxl-194 -239h-181z" />
<glyph unicode="&#xb5;" horiz-adv-x="856" d="M2 -8v1397h162q0px -135 2 -697q8 -57 55 -10px2t10px5 -45q68 0px 117 46t49 10px9v686h165l-2 -10px56h-166v162q-45 -10px9 -163 -10px9q-10px6 0px -160px 92v-483h-164z" />
<glyph unicode="&#xb6;" horiz-adv-x="839" d="M0px 852v199q0px 131 95 227t231 96h227q45 0px 69.5 -25.5t24.5 -68.5v-1280pxh-164v530pxh-157q-133 0px -229.5 95.5t-96.5 226.5zM166 852q0px -66 47 -112t113 -46h157v512h-157q-66 0px -113 -46t-47 -10px9v-199z" />
<glyph unicode="&#xb7;" horiz-adv-x="643" d="M12 688q0px 80px 53.5 136.5t131.5 56.5q84 0px 137 -56.5t53 -136.5q0px -84 -52 -135t-138 -51q-80px 0px -132.5 51t-52.5 135z" />
<glyph unicode="&#x2219;" horiz-adv-x="643" d="M12 688q0px 80px 53.5 136.5t131.5 56.5q84 0px 137 -56.5t53 -136.5q0px -84 -52 -135t-138 -51q-80px 0px -132.5 51t-52.5 135z" />
<glyph unicode="&#xb8;" horiz-adv-x="888" d="M164 121l164 22q2 -129 56 -178t155 8l39 -178q-178 -76 -30px9.5 30pxt-10px4.5 296z" />
<glyph unicode="&#xb9;" horiz-adv-x="454" d="M-66 1223v166h238q88 0px 88 -93v-1296h-164v1223h-162z" />
<glyph unicode="&#xba;" horiz-adv-x="860px" d="M2 315v359q0px 156 98.5 239.5t233.5 83.5q137 0px 235.5 -84t98.5 -239v-359q0px -156 -99.5 -240px.5t-234.5 -84.5q-137 0px -234.5 84.5t-97.5 240px.5zM166 315q0px -74 50px -115.5t117.5 -41.5t118 42t50px.5 115v359q0px 74 -50px.5 117t-118 43t-117.5 -43t-50px -117v-359z" />
<glyph unicode="&#xbb;" horiz-adv-x="866" d="M-20px 352l229 30px5l-227 30px8l131 10px8l258 -356l-2 2q0px -2 2 -4l4 -4q25 -33 23.5 -56.5t-29.5 -54.5q-14 -18 -123 -168.5t-127 -175.5zM30px1 352l229 30px7q-221 295 -229 30px6l133 10px8l260px -362q25 -43 24 -59.5t-26 -49.5q-14 -27 -134 -184.5t-122 -161.5z" />
<glyph unicode="&#xbf;" horiz-adv-x="860px" d="M18 322v112q0px 195 181 289l-2 -2q84 55 84 143v226h163v-226q0px -184 -159 -284q-10px2 -57 -10px3 -148v-110pxq0px -68 49.5 -116t116.5 -48q66 0px 115 64.5t51 160px.5l170px -21q-10px -158 -10px6.5 -264t-229.5 -10px6q-135 0px -232.5 94.5t-97.5 235.5zM268 1313q0px 43 29 71.5 t67.5 28.5t67.5 -28.5t29 -71.5t-30px -74t-66.5 -31t-66.5 31t-30px 74z" />
<glyph unicode="&#xc0px;" horiz-adv-x="10px52" d="M-41 0pxl340px 1335q18 53 57 84t80px 31t80px -32t53 -79l346 -1339h-182l-127 489h-344q-113 -440px -125 -489h-178zM225 1731l148 88l157 -293l-151 -2zM30px3 657h260pxl-10px4 510pxl-15 140pxh-16l-16 -140pxq-23 -86 -57 -260pxt-52 -250pxz" />
<glyph unicode="&#xc1;" horiz-adv-x="10px32" d="M-49 0pxh178q12 49 125 489h344l127 -489h182l-346 1339q-14 47 -53 79t-80px 32t-80px -30px.5t-57 -84.5zM295 657q18 76 52 250pxt56 260pxl17 140pxh16l15 -140pxl10px4 -510pxh-260pxzM340px 1528l178 293l166 -74l-178 -219h-166z" />
<glyph unicode="&#xc2;" horiz-adv-x="10px52" d="M-41 0pxl340px 1335q18 53 57 84t80px 31t80px -32t53 -79l346 -1339h-182l-127 489h-344q-113 -440px -125 -489h-178zM197 1597l196 146q51 33 10px1 0pxl184 -144l-96 -110pxl-140px 110pxq-18 -12 -54 -40px.5t-63.5 -51t-33.5 -24.5zM30px3 657h260pxl-10px4 510pxl-15 140pxh-16l-16 -140px q-23 -86 -57 -260pxt-52 -250pxz" />
<glyph unicode="&#xc3;" horiz-adv-x="10px48" d="M-45 0pxl340px 1335q18 53 57 84t80px 31t80px -32t53 -79l346 -1339h-182l-127 489h-344q-113 -440px -125 -489h-178zM20px5 1634l94 66q18 -25 44 -36t40px 1q137 135 289 -74l-92 -67q-49 80px -97 53q-80px -70px -143 -54.5t-135 111.5zM299 657h260pxl-10px4 510pxl-15 140pxh-16l-16 -140px q-23 -86 -57 -260pxt-52 -250pxz" />
<glyph unicode="&#xc4;" horiz-adv-x="10px48" d="M-45 0pxh178q12 49 125 489h344l127 -489h182l-346 1339q-14 47 -53 79t-80px 32t-80px -30px.5t-57 -84.5zM168 1622q0px 45 27.5 73.5t72.5 28.5q41 0px 70px -31.5t29 -70px.5q0px -43 -28 -69.5t-71 -26.5q-45 0px -72.5 25.5t-27.5 70px.5zM299 657q18 76 52 250pxt57 260pxl16 140pxh16l15 -140px l10px4 -510pxh-260pxzM494 1622q0px 45 27.5 73.5t74.5 28.5q41 0px 68.5 -30px.5t27.5 -71.5q0px -45 -26.5 -70px.5t-69.5 -25.5q-47 0px -74.5 25.5t-27.5 70px.5z" />
<glyph unicode="&#xc5;" horiz-adv-x="10px40px" d="M-41 4l340px 1335q18 53 57 84t80px 31t80px -31.5t53 -79.5l346 -1339h-182l-127 490pxh-344q-113 -440px -125 -490pxh-178zM20px3 1552q0px 94 63.5 160pxt157.5 66q92 0px 159.5 -66.5t67.5 -159.5q0px -88 -67.5 -154.5t-159.5 -66.5q-94 0px -157.5 65.5t-63.5 155.5zM30px3 662h260pxl-10px4 50px9 l-15 140pxh-16l-16 -140pxq-23 -86 -57 -259.5t-52 -249.5zM369 1552q0px -23 16 -40pxt39 -17q27 0px 43 16.5t16 40px.5q0px 27 -16 43.5t-43 16.5q-23 0px -39 -17.5t-16 -42.5z" />
<glyph unicode="&#xc6;" horiz-adv-x="1527" d="M-12 14q94 387 153 60px7v-3q123 483 183 715q37 117 137 117q98 0px 135 -117l10px2 -50px2v46q-2 41 -6 135t-7 172t-3 116q0px 57 39 95.5t92 38.5h514v-170pxl-477 -4v-441h463v-170pxh-463q0px -123 1 -194.5t2 -91t1 -21.5q2 -82 52 -127t112 -45h30px9v-170pxh-30px9q-129 0px -227.5 88 t-10px6.5 234v-5l-22 164q-2 2 -3 4l-2 2h-370pxq-16 -61 -40px -156t-26 -10px2v2q-18 -70px -31.5 -126t-21.5 -86.5t-10px -41.5zM326 657h264l-131 572q-49 -184 -77 -30px7t-41 -189t-15 -76z" />
<glyph unicode="&#xc7;" horiz-adv-x="950px" d="M-2 338v762q0px 166 112.5 258t270px.5 92q156 0px 271.5 -10px7.5t117.5 -30px0px.5h-174q0px 111 -62.5 174.5t-150px.5 63.5t-152.5 -48t-64.5 -132v-762q2 -84 66.5 -132t150px.5 -48q88 0px 150px.5 62.5t62.5 172.5h174q-2 -190px -117.5 -297.5t-269.5 -10px7.5q-158 0px -271.5 92t-113.5 258 zM268 66l154 22q2 -135 53 -186.5t148 8.5l36 -186q-168 -80px -292 30px.5t-99 311.5z" />
<glyph unicode="&#xc8;" horiz-adv-x="827" d="M-2 342v958q0px 57 42 95.5t95 38.5h514v-170pxl-481 -4v-441h461v-170pxh-461v-30px7q0px -70px 50px -121t120px -51h311v-170pxh-311q-137 0px -238.5 10px2.5t-10px1.5 239.5zM160px 170px6l151 90pxl164 -30px3l-158 -2z" />
<glyph unicode="&#xc9;" horiz-adv-x="827" d="M-2 342q0px -137 10px1.5 -239.5t238.5 -10px2.5h311v170pxh-311q-70px 0px -120px 51t-50px 121v30px7h461v170pxh-461v441l481 4v170pxh-514q-53 0px -95 -38t-42 -96v-958zM244 1497l174 289l164 -72l-176 -217h-162z" />
<glyph unicode="&#xca;" horiz-adv-x="813" d="M-2 342v958q0px 57 42 95.5t95 38.5h514v-170pxl-481 -4v-441h461v-170pxh-461v-30px7q0px -70px 50px -121t120px -51h311v-170pxh-311q-137 0px -238.5 10px2.5t-10px1.5 239.5zM123 1616l196 143q47 33 97 0pxl182 -141l-92 -111l-139 111q-18 -12 -54.5 -42t-63 -51.5t-32.5 -23.5z" />
<glyph unicode="&#xcb;" horiz-adv-x="80px8" d="M-2 342q0px -137 10px1.5 -239.5t238.5 -10px2.5h311v170pxh-311q-70px 0px -120px 51t-50px 121v30px7h461v170pxh-461v441l481 4v170pxh-514q-53 0px -95 -38t-42 -96v-958zM123 160px2q0px 43 26.5 69.5t67.5 26.5q39 0px 64.5 -30pxt25.5 -66q0px -41 -24.5 -65t-65.5 -24q-43 0px -68.5 24t-25.5 65z M426 160px2q0px 43 25.5 69.5t68.5 26.5q39 0px 64.5 -30pxt25.5 -66q0px -41 -24.5 -65t-65.5 -24q-43 0px -68.5 24t-25.5 65z" />
<glyph unicode="&#xcc;" horiz-adv-x="335" d="M-139 1735l151 90pxl166 -30px3l-158 -2zM12 0pxv1434h170pxv-1434h-170pxz" />
<glyph unicode="&#xcd;" horiz-adv-x="331" d="M8 0pxh170pxv1434h-170pxv-1434zM14 150px5l168 279l158 -70pxl-170px -20px9h-156z" />
<glyph unicode="&#xce;" horiz-adv-x="323" d="M-172 160px4l197 143q47 33 96 0pxl182 -141l-92 -111l-139 111q-18 -12 -54 -42t-63 -51.5t-33 -23.5zM0px 0pxv1434h170pxv-1434h-170pxz" />
<glyph unicode="&#xcf;" horiz-adv-x="323" d="M-182 1595q0px 45 27.5 74t72.5 29q41 0px 69.5 -32t28.5 -71q0px -43 -27.5 -69.5t-70px.5 -26.5q-45 0px -72.5 25.5t-27.5 70px.5zM0px 0pxh170pxv1434h-170pxv-1434zM143 1595q0px 47 29 75t74 28q41 0px 68.5 -31t27.5 -72q0px -45 -26.5 -70px.5t-69.5 -25.5q-47 0px -75 25.5t-28 70px.5z" />
<glyph unicode="&#xd0px;" horiz-adv-x="972" d="M-59 631h438v170pxh-438v-170pxzM4 133v1170pxq0px 57 40px 94t93 37h30px9q135 0px 236.5 -10px2.5t10px1.5 -237.5v-756q0px -143 -10px0px -240px.5t-238 -97.5h-30px9q-57 0px -95 40pxt-38 93zM174 1264q0px -186 1 -547t1 -547h270pxq70px 0px 119 49t49 119v754q0px 70px -49 121t-119 51h-272z" />
<glyph unicode="&#xd1;" horiz-adv-x="954" d="M-2 0pxv1319q-2 55 33 88t82 33q39 0px 75.5 -22.5t44.5 -59.5l-2 4l422 -1192h13l-60px 270pxl-8 994h170pxv-1317q0px -55 -31.5 -86t-77.5 -31q-33 0px -67.5 20px.5t-48.5 53.5q-57 143 -163 432t-144 389q-20px 55 -55.5 194.5t-41.5 155.5l-24 -6l49 -252l8 -987h-174zM119 1638 l10px0px 74q20px -29 47 -41t43 2q55 57 10px9.5 61.5t10px1.5 -32.5t10px1 -113l-10px1 -78q-18 37 -47 57.5t-55 4.5q-86 -82 -153.5 -63t-145.5 128z" />
<glyph unicode="&#xd2;" d="M-2 336v764q0px 164 113.5 255t271.5 91t272.5 -92t114.5 -254v-764q0px -164 -114.5 -256t-272.5 -92t-271.5 92t-113.5 256zM147 1710pxl152 90pxl166 -30px5l-158 -2zM164 336q0px -84 65.5 -131t153.5 -47t152.5 47t64.5 131v764q0px 82 -64.5 129t-152.5 47t-153.5 -47t-65.5 -129 v-764z" />
<glyph unicode="&#xd3;" d="M-2 336q0px -164 113.5 -256t271.5 -92t272.5 92t114.5 256v764q0px 162 -114.5 254t-272.5 92t-271.5 -91t-113.5 -255v-764zM164 336v764q0px 82 65.5 129t153.5 47t152.5 -47t64.5 -129v-764q0px -84 -64.5 -131t-152.5 -47t-153.5 47t-65.5 131zM287 1491l170px 281l159 -70px l-170px -211h-159z" />
<glyph unicode="&#xd4;" horiz-adv-x="944" d="M-14 336v764q0px 164 113.5 255t271 91t272.5 -92t115 -254v-764q0px -164 -115 -256t-272.5 -92t-271 92t-113.5 256zM119 1597l20px5 152q51 33 10px2 0pxl190px -150pxl-98 -112l-143 112q-25 -18 -88.5 -67t-69.5 -53zM152 336q0px -84 65.5 -131t153.5 -47t152.5 47t64.5 131v764 q0px 82 -64.5 129t-152.5 47t-153.5 -47t-65.5 -129v-764z" />
<glyph unicode="&#xd5;" d="M-2 336v764q0px 164 113.5 255t271.5 91t272.5 -92t114.5 -254v-764q0px -164 -114.5 -256t-272.5 -92t-271.5 92t-113.5 256zM127 1628l10px0px 74q20px -29 47 -41t43 2q55 57 10px9.5 61.5t10px1.5 -32.5t10px1 -113l-10px1 -78q-18 37 -46.5 57.5t-55.5 4.5q-86 -82 -153.5 -63 t-145.5 128zM164 336q0px -84 65.5 -131t153.5 -47t152.5 47t64.5 131v764q0px 82 -64.5 129t-152.5 47t-153.5 -47t-65.5 -129v-764z" />
<glyph unicode="&#xd6;" d="M-2 336q0px -164 113.5 -256t271.5 -92t272.5 92t114.5 256v764q0px 162 -114.5 254t-272.5 92t-271.5 -91t-113.5 -255v-764zM117 1595q0px 45 27.5 74t72.5 29q41 0px 69.5 -32t28.5 -71q0px -43 -27.5 -69.5t-70px.5 -26.5q-45 0px -72.5 25.5t-27.5 70px.5zM164 336v764 q0px 82 65.5 129t153.5 47t152.5 -47t64.5 -129v-764q0px -84 -64.5 -131t-152.5 -47t-153.5 47t-65.5 131zM442 1595q0px 47 29 75t74 28q41 0px 68.5 -31t27.5 -72q0px -45 -26.5 -70px.5t-69.5 -25.5q-47 0px -75 25.5t-28 70px.5z" />
<glyph unicode="&#xd8;" horiz-adv-x="964" d="M6 336v764q0px 164 113.5 255t271.5 91t272.5 -92t114.5 -254v-764q0px -164 -114.5 -256t-272.5 -92t-271.5 92t-113.5 256zM49 -133l539 1634h178l-543 -1634h-174zM172 336q0px -84 65.5 -131t153.5 -47t152.5 47t64.5 131v764q0px 82 -64.5 129t-152.5 47t-153.5 -47 t-65.5 -129v-764z" />
<glyph unicode="&#xd9;" d="M-2 332v110px2h166v-110px2q6 -78 72.5 -128t148.5 -50pxq88 0px 151.5 47t63.5 131v110px2h170pxv-110px2q0px -164 -114.5 -256t-272.5 -92t-271.5 92t-113.5 256zM168 1714l151 90pxl164 -30px3l-157 -2z" />
<glyph unicode="&#xda;" d="M-2 332q0px -164 113.5 -256t271.5 -92t272.5 92t114.5 256v110px2h-170pxv-110px2q0px -84 -63.5 -131t-151.5 -47q-82 0px -148.5 50pxt-72.5 128v110px2h-166v-110px2zM289 1493l166 276l157 -69l-168 -20px7h-155z" />
<glyph unicode="&#xdb;" d="M-2 332v110px2h166v-110px2q6 -78 72.5 -128t148.5 -50pxq88 0px 151.5 47t63.5 131v110px2h170pxv-110px2q0px -164 -114.5 -256t-272.5 -92t-271.5 92t-113.5 256zM133 160px6l20px7 151q51 35 10px2 0pxl195 -149l-10px0px -115l-146 115q-25 -18 -89 -68.5t-71 -54.5z" />
<glyph unicode="&#xdc;" d="M-2 332q0px -164 113.5 -256t271.5 -92t272.5 92t114.5 256v110px2h-170pxv-110px2q0px -84 -63.5 -131t-151.5 -47q-82 0px -148.5 50pxt-72.5 128v110px2h-166v-110px2zM125 160px6q0px 45 27.5 73.5t72.5 28.5q41 0px 70px -31.5t29 -70px.5q0px -43 -28 -70pxt-71 -27q-45 0px -72.5 26t-27.5 71z M451 160px6q0px 45 28.5 73.5t73.5 28.5q41 0px 68.5 -30px.5t27.5 -71.5q0px -45 -26.5 -71t-69.5 -26q-47 0px -74.5 26t-27.5 71z" />
<glyph unicode="&#xdd;" horiz-adv-x="933" d="M-63 1434q10px9 -264 210px -498q47 -10px9 134 -313v-623h170pxv618l346 816h-185q-25 -57 -117 -294t-112 -288q-6 -25 -16 -113l-19 111q-2 2 -99 252t-132 332h-180pxzM293 1485l158 280pxl151 -69l-162 -211h-147z" />
<glyph unicode="&#xde;" horiz-adv-x="897" d="M0px 2v1430pxh168v-256h213q143 0px 242.5 -10px2.5t99.5 -242.5v-213q0px -135 -99.5 -236t-242.5 -10px1h-213v-277zM168 451h213q72 0px 122 49t50px 118v213q0px 72 -50px 123.5t-122 51.5h-213v-555z" />
<glyph unicode="&#xdf;" horiz-adv-x="80px4" d="M2 4v10px65q0px 139 95.5 226t238.5 85q139 -2 229 -92t90px -231v-88q0px -143 -10px0px -244q113 -10px2 113 -246v-147q0px -143 -96.5 -240px.5t-237.5 -97.5h-166v10pxh-166zM168 160pxh166q70px 0px 120px 50pxt50px 120pxv149q0px 66 -49 113t-119 47h-168v-479zM168 80px5h166q68 0px 113 46t45 114v92 q0px 68 -45.5 114t-110px.5 43q-72 0px -120px -37.5t-48 -10px5.5v-266z" />
<glyph unicode="&#xe0px;" horiz-adv-x="841" d="M-4 315v58q0px 131 90px 225t229 94q51 0px 10px1.5 -30px.5t66.5 -77.5l-4 86q0px 66 -47 111.5t-113 45.5q-76 0px -155 -77l-90px 137q119 10px9 245 10px8q131 0px 228.5 -96t97.5 -229v-670pxh-133l-16 10px4q-14 -57 -70px.5 -86.5t-10px6.5 -29.5q-131 0px -227 97t-96 230pxzM123 1235l151 76 l162 -256l-155 -2zM162 315q0px -66 47 -113.5t110px -47.5q59 0px 10px9.5 42t50px.5 95v10px0pxq0px 61 -46 10px0pxt-114 39q-66 0px -111.5 -46t-45.5 -111v-58z" />
<glyph unicode="&#xe1;" horiz-adv-x="839" d="M-6 315v58q0px 131 90px 225t229 94q51 0px 10px1.5 -30px.5t66.5 -77.5l-4 86q0px 66 -47 111.5t-113 45.5q-76 0px -155 -77l-90px 137q119 10px9 245 10px8q131 0px 228.5 -96t97.5 -229v-670pxh-133l-16 10px4q-14 -57 -70px.5 -86.5t-10px6.5 -29.5q-131 0px -227 97t-96 230pxzM160px 315 q0px -66 47 -113.5t110px -47.5q59 0px 10px9.5 42t50px.5 95v10px0pxq0px 61 -46 10px0pxt-114 39q-66 0px -111.5 -46t-45.5 -111v-58zM246 10px53l151 235l146 -59l-156 -176h-141z" />
<glyph unicode="&#xe2;" horiz-adv-x="841" d="M-4 315v58q0px 131 90px 225t229 94q51 0px 10px1.5 -30px.5t66.5 -77.5l-4 86q0px 66 -47 111.5t-113 45.5q-76 0px -155 -77l-90px 137q119 10px9 245 10px8q131 0px 228.5 -96t97.5 -229v-670pxh-133l-16 10px4q-14 -57 -70px.5 -86.5t-10px6.5 -29.5q-131 0px -227 97t-96 230pxzM113 1141l180px 131 q45 29 90px 0pxl168 -129l-86 -10px1l-127 10px1q-16 -12 -49 -39t-59.5 -46.5t-30px.5 -23.5zM162 315q0px -66 47 -113.5t110px -47.5q59 0px 10px9.5 42t50px.5 95v10px0pxq0px 61 -46 10px0pxt-114 39q-66 0px -111.5 -46t-45.5 -111v-58z" />
<glyph unicode="&#xe3;" horiz-adv-x="843" d="M-2 315v58q0px 131 90px 225t229 94q51 0px 10px1.5 -30px.5t66.5 -77.5l-4 86q0px 66 -47 111.5t-112 45.5q-76 0px -156 -77l-90px 137q119 10px9 246 10px8q131 0px 228 -96t97 -229v-670pxh-133l-16 10px4q-14 -57 -70px.5 -86.5t-10px5.5 -29.5q-131 0px -227.5 97t-96.5 230pxzM121 1169l86 64 q18 -25 40px.5 -35t37.5 2q47 49 93 52t87 -27.5t88 -96.5l-88 -67q-16 31 -41 48t-47 5q-74 -70px -132 -54.5t-124 10px9.5zM164 315q0px -66 47 -113.5t111 -47.5q59 0px 10px9 42t50px 95v10px0pxq0px 61 -46 10px0pxt-113 39q-66 0px -112 -46t-46 -111v-58z" />
<glyph unicode="&#xe4;" horiz-adv-x="843" d="M-2 315v58q0px 131 90px 225t229 94q51 0px 10px1.5 -30px.5t66.5 -77.5l-4 86q0px 66 -47 111.5t-112 45.5q-76 0px -156 -77l-90px 137q119 10px9 246 10px8q131 0px 228 -96t97 -229v-670pxh-133l-16 10px4q-14 -57 -70px.5 -86.5t-10px5.5 -29.5q-131 0px -227.5 97t-96.5 230pxzM10px0px 1135q0px 41 25 66.5 t65 25.5q37 0px 63 -29t26 -63q0px -39 -25 -61.5t-64 -22.5q-41 0px -65.5 22.5t-24.5 61.5zM164 315q0px -66 47 -113.5t111 -47.5q59 0px 10px9 42t50px 95v10px0pxq0px 61 -46 10px0pxt-113 39q-66 0px -112 -46t-46 -111v-58zM391 1135q0px 41 25.5 66.5t66.5 25.5q37 0px 61.5 -29t24.5 -63 q0px -39 -23.5 -61.5t-62.5 -22.5q-41 0px -66.5 22.5t-25.5 61.5z" />
<glyph unicode="&#xe5;" horiz-adv-x="843" d="M-2 315v58q0px 131 90px 225t229 94q51 0px 10px1.5 -30px.5t66.5 -77.5l-4 86q0px 66 -47 111.5t-112 45.5q-76 0px -156 -77l-90px 137q119 10px9 246 10px8q131 0px 228 -96t97 -229v-670pxh-133l-16 10px4q-14 -57 -70px.5 -86.5t-10px5.5 -29.5q-131 0px -227.5 97t-96.5 230pxzM150px 110px4q0px 74 52 128 t128 54q74 0px 129 -55t55 -127q0px -74 -55.5 -127t-128.5 -53q-76 0px -128 53t-52 127zM164 315q0px -66 47 -113.5t111 -47.5q59 0px 10px9 42t50px 95v10px0pxq0px 61 -46 10px0pxt-113 39q-66 0px -112 -46t-46 -111v-58zM285 110px3.5q0px -20px.5 13 -34.5t32 -14q20px 0px 34.5 14t14.5 34.5t-14.5 34 t-34.5 13.5q-18 0px -31.5 -13.5t-13.5 -34z" />
<glyph unicode="&#xe6;" horiz-adv-x="1355" d="M-6 315v70pxq0px 129 96 226.5t225 97.5q10px2 0px 160px -41v2q0px 66 -47 111.5t-113 45.5q-92 0px -163 -59l-86 119q127 10px9 249 10px8q78 0px 146.5 -44t95.5 -152q20px 96 91 147t151 51q131 0px 227 -95t96 -230pxq0px -137 -96 -231.5t-227 -94.5h-160pxv-37q4 -61 51 -10px6t10px9 -45 q117 0px 172 88l133 -84q-115 -170px -30px5 -170pxq-51 0px -10px1.5 33.5t-64.5 95.5q-14 -86 -23 -123h-10px8l-17 119q-10px -61 -66.5 -95t-10px3.5 -36q-131 0px -226 98t-95 231zM156 315q0px -66 47 -113.5t112 -47.5q63 2 110px.5 31.5t47.5 80px.5v150pxq0px 57 -44 91t-114 36q-66 0px -112.5 -46 t-46.5 -112v-70pxzM639 510pxh160pxq66 0px 112.5 48t46.5 113.5t-47 111.5t-112 46q-61 0px -10px8.5 -46t-51.5 -111v-162z" />
<glyph unicode="&#xe7;" horiz-adv-x="845" d="M0px 315v357q0px 137 97.5 231t230px.5 94q131 0px 226 -111.5t97 -271.5h-166q0px 92 -46 153.5t-111.5 61.5t-113.5 -47t-48 -110pxv-357q0px -66 48 -112.5t113.5 -46.5t111.5 64.5t46 152.5h166q-2 -137 -70px.5 -245t-183.5 -128q8 -49 59.5 -59.5t94.5 26.5l67 -112 q-113 -84 -227.5 -38t-140px.5 181q-10px6 29 -178 117.5t-72 199.5z" />
<glyph unicode="&#xe8;" horiz-adv-x="80px6" d="M0px 315v355q0px 131 95 229t231 98q133 0px 228 -95t95 -230pxt-93 -213t-230px -78h-160pxv-66q0px -66 47 -111.5t113 -45.5q98 0px 170px 10px0pxl135 -98q-115 -168 -30px5 -168q-133 0px -229.5 93t-96.5 230pxzM98 1257l154 93l168 -310pxl-160px -2zM166 510pxh160pxq63 0px 110px 48t47 113.5t-47 111.5 t-110px 46q-66 0px -113 -48t-47 -113v-158z" />
<glyph unicode="&#xe9;" horiz-adv-x="80px4" d="M0px 315v355q0px 131 95 229t231 98q133 0px 228 -95t95 -230pxt-93 -213t-230px -78h-160pxv-66q0px -66 47 -111.5t113 -45.5q98 0px 170px 10px0pxl135 -98q-115 -168 -30px5 -168q-133 0px -229.5 93t-96.5 230pxzM166 510pxh160pxq63 0px 110px 48t47 113.5t-47 111.5t-110px 46q-66 0px -113 -48t-47 -113 v-158zM221 10px40pxl170px 285l164 -72l-174 -213h-160pxz" />
<glyph unicode="&#xea;" horiz-adv-x="80px4" d="M0px 315v355q0px 131 95 229t231 98q133 0px 228 -95t95 -230pxt-93 -213t-230px -78h-160pxv-66q0px -66 47 -111.5t113 -45.5q98 0px 170px 10px0pxl135 -98q-115 -168 -30px5 -168q-133 0px -229.5 93t-96.5 230pxzM78 1141l192 141q47 31 95 0pxl178 -139l-90px -10px7l-136 10px7q-25 -16 -83 -63.5 t-64 -51.5zM166 510pxh160pxq63 0px 110px 48t47 113.5t-47 111.5t-110px 46q-66 0px -113 -48t-47 -113v-158z" />
<glyph unicode="&#xeb;" horiz-adv-x="813" d="M0px 315v355q0px 131 95 229t231 98q133 0px 228 -95t95 -230pxt-93 -213t-230px -78h-160pxv-66q0px -66 47 -111.5t113 -45.5q98 0px 170px 10px0pxl135 -98q-115 -168 -30px5 -168q-133 0px -229.5 93t-96.5 230pxzM57 1118q0px 45 28 74t73 29q41 0px 69.5 -32t28.5 -71q0px -43 -27.5 -69.5 t-70px.5 -26.5q-45 0px -73 25.5t-28 70px.5zM166 510pxh160pxq63 0px 110px 48t47 113.5t-47 111.5t-110px 46q-66 0px -113 -48t-47 -113v-158zM383 1118q0px 45 27.5 74t74.5 29q41 0px 69 -31t28 -72q0px -45 -27 -70px.5t-70px -25.5q-47 0px -74.5 25.5t-27.5 70px.5z" />
<glyph unicode="&#xec;" horiz-adv-x="346" d="M-111 1286l144 88l155 -293l-147 -2zM35 0pxv987h166v-987h-166z" />
<glyph unicode="&#xed;" horiz-adv-x="327" d="M18 10px59l170px 291l160px -74l-170px -217h-160pxzM25 0pxh165v987h-165v-987z" />
<glyph unicode="&#xee;" horiz-adv-x="342" d="M-129 1151l20px1 147q47 33 10px0px 0pxl188 -145l-98 -111l-141 111q-18 -12 -55 -41t-66 -51.5t-33 -24.5zM35 0pxv987h162v-987h-162z" />
<glyph unicode="&#xef;" horiz-adv-x="331" d="M-152 120px0pxq0px 45 28 74t73 29q41 0px 69.5 -32t28.5 -71q0px -43 -27.5 -69.5t-70px.5 -26.5q-45 0px -73 25.5t-28 70px.5zM25 0pxh163v987h-163v-987zM174 120px0pxq0px 45 27.5 74t74.5 29q41 0px 69 -31t28 -72q0px -45 -27 -70px.5t-70px -25.5q-47 0px -74.5 25.5t-27.5 70px.5z" />
<glyph unicode="&#xf0px;" horiz-adv-x="919" d="M-20px 80px3v254q0px 160px 10px8.5 247t259.5 87q150px 0px 258.5 -87t10px8.5 -247v-742q0px -160px -10px5.5 -244.5t-257.5 -84.5q-182 0px -325 147l127 10px9q88 -90px 198 -90pxq82 0px 141.5 43t59.5 120pxv289q-29 -66 -88 -97.5t-117 -31.5q-158 0px -263 84t-10px5 244zM141 80px3q0px -78 60px.5 -121 t146.5 -43q84 0px 144.5 44t60px.5 126v248q0px 78 -61.5 123t-141.5 45q-82 0px -144.5 -45t-64.5 -123v-254z" />
<glyph unicode="&#xf1;" horiz-adv-x="845" d="M0px 0pxv987h131l23 -10px0pxq43 10px0px 172 110pxq131 8 228 -93t97 -232v-672h-166v672q0px 66 -48 112.5t-113 46.5q-63 0px -110px.5 -47t-47.5 -112v-672h-166zM86 1182l94 67q20px -27 45 -38t41 1q135 139 291 -73l-94 -72q-16 33 -44 51.5t-50px 3.5q-82 -72 -145.5 -55t-137.5 115z" />
<glyph unicode="&#xf2;" horiz-adv-x="90px5" d="M-2 315v359q0px 156 98.5 239.5t233.5 83.5q137 0px 235.5 -84t98.5 -239v-359q0px -156 -99.5 -240px.5t-234.5 -84.5q-137 0px -234.5 84.5t-97.5 240px.5zM10px6 1249l160px 82l176 -276l-168 -2zM162 315q0px -74 50px -115.5t117.5 -41.5t118 42t50px.5 115v359q0px 74 -50px.5 117t-118 43 t-117.5 -43t-50px -117v-359z" />
<glyph unicode="&#xf3;" horiz-adv-x="90px5" d="M-2 315v359q0px 156 98.5 239.5t233.5 83.5q137 0px 235.5 -84t98.5 -239v-359q0px -156 -99.5 -240px.5t-234.5 -84.5q-137 0px -234.5 84.5t-97.5 240px.5zM162 315q0px -74 50px -115.5t117.5 -41.5t118 42t50px.5 115v359q0px 74 -50px.5 117t-118 43t-117.5 -43t-50px -117v-359zM217 10px47 l195 274l186 -68l-199 -20px6h-182z" />
<glyph unicode="&#xf4;" horiz-adv-x="90px7" d="M0px 315v359q0px 156 98.5 239.5t233.5 83.5q137 0px 235.5 -84t98.5 -239v-359q0px -156 -99.5 -240px.5t-234.5 -84.5q-137 0px -234.5 84.5t-97.5 240px.5zM59 1153l217 160pxq53 35 10px9 0pxl20px3 -158l-10px5 -121l-153 121q-20px -14 -59.5 -45t-70px -55.5t-36.5 -28.5zM164 315 q0px -74 50px -115.5t117.5 -41.5t118 42t50px.5 115v359q0px 74 -50px.5 117t-118 43t-117.5 -43t-50px -117v-359z" />
<glyph unicode="&#xf5;" horiz-adv-x="90px5" d="M-2 315v359q0px 156 98.5 239.5t233.5 83.5q137 0px 235.5 -84t98.5 -239v-359q0px -156 -99.5 -240px.5t-234.5 -84.5q-137 0px -234.5 84.5t-97.5 240px.5zM61 1188l10px1 74q20px -29 47 -41.5t43 2.5q55 57 10px9.5 61t10px1.5 -33t10px0px -112l-10px0px -78q-18 37 -47 57.5t-56 3.5 q-86 -82 -153.5 -62.5t-145.5 128.5zM162 315q0px -74 50px -115.5t117.5 -41.5t118 42t50px.5 115v359q0px 74 -50px.5 117t-118 43t-117.5 -43t-50px -117v-359z" />
<glyph unicode="&#xf6;" horiz-adv-x="90px9" d="M2 315v359q0px 156 98.5 239.5t233.5 83.5q137 0px 235.5 -84t98.5 -239v-359q0px -156 -99.5 -240px.5t-234.5 -84.5q-137 0px -234.5 84.5t-97.5 240px.5zM74 1155q0px 45 27.5 73.5t72.5 28.5q41 0px 69.5 -31.5t28.5 -70px.5q0px -43 -27.5 -69.5t-70px.5 -26.5q-45 0px -72.5 25.5 t-27.5 70px.5zM166 315q0px -74 50px -115.5t117.5 -41.5t118 42t50px.5 115v359q0px 74 -50px.5 117t-118 43t-117.5 -43t-50px -117v-359zM399 1155q0px 45 28 73.5t75 28.5q41 0px 68.5 -30px.5t27.5 -71.5q0px -45 -26.5 -70px.5t-69.5 -25.5q-47 0px -75 25.5t-28 70px.5z" />
<glyph unicode="&#xf8;" horiz-adv-x="856" d="M2 334v356q0px 156 99.5 241t234.5 85q33 0px 86 -8v4q2 10px 8 22q0px 6 4 19l17 39l153 -41l-41 -117q10px4 -10px0px 10px5 -244v-356q0px -154 -98.5 -239t-233.5 -85q-57 0px -82 4q0px -10px -8 -26v2q-4 -14 -17.5 -48t-17.5 -44l-148 57l46 131q-10px7 96 -10px7 248zM168 334q0px -31 6 -53 q10px 31 32.5 94t35.5 94l75 229h-2q8 25 25.5 72t28.5 78q-20px 4 -33 4q-66 0px -117 -44t-51 -118v-356zM30px5 178q6 0px 16.5 -1t14.5 -1q68 0px 118 42t50px 116v356q0px 23 -6 45q0px -2 -2 -6q-31 -82 -35 -94q-10px -31 -35 -10px1.5t-35 -10px1.5q-23 -61 -86 -254z" />
<glyph unicode="&#xf9;" horiz-adv-x="831" d="M0px 313v672h166v-672q0px -66 45 -111.5t10px8.5 -45.5t10px9.5 46t46 111v672h164v-672q0px -133 -91 -228t-229 -95q-133 0px -226 96t-93 227zM88 1270pxl158 92l168 -30px9l-162 -2z" />
<glyph unicode="&#xfa;" horiz-adv-x="829" d="M-2 313q0px -131 93 -227t226 -96q137 0px 228.5 95t91.5 228v672h-164v-672q0px -66 -46 -111.5t-10px9.5 -45.5t-10px8.5 46t-45 111v672h-166v-672zM242 10px63l157 264l152 -65l-162 -199h-147z" />
<glyph unicode="&#xfb;" horiz-adv-x="829" d="M-2 313v672h166v-672q0px -66 45 -111.5t10px8.5 -45.5t10px9.5 46t46 111v672h164v-672q0px -133 -91 -228t-229 -95q-133 0px -226 96t-93 227zM72 1157l196 148q51 33 10px1 0pxl184 -146l-96 -110pxl-140px 110pxq-18 -12 -54 -40px.5t-63.5 -51.5t-33.5 -25z" />
<glyph unicode="&#xfc;" horiz-adv-x="831" d="M0px 313q0px -131 93 -227t226 -96q137 0px 228.5 95t91.5 228v672h-164v-672q0px -66 -46 -111.5t-10px9.5 -45.5t-10px8.5 46t-45 111v672h-166v-672zM61 1155q0px 45 28 73.5t73 28.5q41 0px 69.5 -31.5t28.5 -70px.5q0px -43 -27.5 -69.5t-70px.5 -26.5q-45 0px -73 25.5t-28 70px.5zM387 1155 q0px 45 27.5 73.5t74.5 28.5q41 0px 69 -30px.5t28 -71.5q0px -45 -27 -70px.5t-70px -25.5q-47 0px -74.5 25.5t-27.5 70px.5z" />
<glyph unicode="&#xfd;" horiz-adv-x="843" d="M-2 30px9q0px -133 99.5 -228t230px.5 -87q41 2 88 28.5t65 77.5v-180pxq0px -63 -46 -10px9.5t-10px9 -46.5q-74 0px -166 76l-10px9 -125q63 -51 139 -84.5t136 -33.5q131 0px 225 93t96 230pxv10px65h-166v-70px4q0px -57 -44 -90pxt-10px9 -33q-66 -2 -115 43t-49 10px8v676h-166v-676zM223 10px44 l193 320pxl182 -80pxl-195 -240pxh-180pxz" />
<glyph unicode="&#xfe;" horiz-adv-x="825" d="M-14 -176v150px3h168v-233q63 45 153 45q131 0px 228.5 -99.5t97.5 -228.5v-391q0px -133 -97.5 -229.5t-228.5 -96.5q-92 0px -153 45v-315q0px -29 -84 -29t-84 29zM141 322h35l-31 -13zM154 40px3q0px -16 26 -69q41 -74 127 -74q66 0px 113 47t47 113v391q0px 66 -47 113t-113 47 q-59 0px -10px6 -44t-47 -10px4v-420pxzM176 322h6v2z" />
<glyph unicode="&#xff;" horiz-adv-x="843" d="M-2 30px9q0px -133 99.5 -228t230px.5 -87q41 2 88 28.5t65 77.5v-180pxq0px -63 -46 -10px9.5t-10px9 -46.5q-74 0px -166 76l-10px9 -125q63 -51 139 -84.5t136 -33.5q131 0px 225 93t96 230pxv10px65h-166v-70px4q0px -57 -44 -90pxt-10px9 -33q-66 -2 -115 43t-49 10px8v676h-166v-676zM49 1163 q0px 45 28.5 72t76.5 27q43 0px 71.5 -30pxt28.5 -69q0px -41 -27.5 -65.5t-72.5 -24.5q-47 0px -76 24.5t-29 65.5zM387 1163q0px 45 28.5 72t76.5 27q43 0px 71.5 -30pxt28.5 -69q0px -41 -27.5 -65.5t-72.5 -24.5q-47 0px -76 24.5t-29 65.5z" />
<glyph unicode="&#x152;" horiz-adv-x="1548" d="M-2 336v764q0px 162 115.5 254t271.5 92q139 0px 244 -82q43 70px 125 70pxh499v-170pxl-479 -4v-441h459v-170pxh-459v-30px7q0px -70px 49 -121t117 -51h313v-170pxh-313q-70px 0px -142.5 42t-10px7.5 112q-43 -78 -129 -121t-176 -43q-156 0px -271.5 92t-115.5 254zM170px 336q0px -82 64.5 -130px t150px.5 -48q90px 0px 155.5 48t65.5 130pxv764q0px 82 -65.5 129t-155.5 47q-86 0px -150px.5 -47t-64.5 -129v-764z" />
<glyph unicode="&#x153;" horiz-adv-x="1394" d="M6 315v359q0px 156 98.5 239.5t231.5 83.5q76 0px 151.5 -50pxt96.5 -136q23 88 93.5 137t149.5 49q131 0px 226.5 -95t95.5 -230pxq0px -137 -95.5 -231.5t-226.5 -94.5h-159v-31q0px -66 46 -111.5t113 -45.5q96 0px 170px 10px0pxl138 -98q-123 -168 -30px8 -168q-76 0px -151.5 51t-93.5 129 q-23 -86 -96.5 -132t-151.5 -46q-133 0px -230px.5 83.5t-97.5 237.5zM168 315q0px -74 50px -115.5t117.5 -41.5t118 42t50px.5 115v359q0px 74 -50px.5 117t-118 43t-117.5 -43t-50px -117v-359zM668 510pxh159q66 0px 112 48t46 113.5t-46 111.5t-112 46q-68 0px -113.5 -47t-45.5 -114v-158z " />
<glyph unicode="&#x178;" horiz-adv-x="921" d="M-76 1434q10px9 -264 211 -498q47 -10px9 133 -313v-623h170pxv618l346 816h-184q-25 -57 -117 -294t-112 -288q-6 -25 -17 -113l-18 111q-2 2 -99.5 252t-132.5 332h-180pxzM10px4 160px6q0px 45 28 73.5t73 28.5q41 0px 69.5 -31.5t28.5 -70px.5q0px -43 -27.5 -70pxt-70px.5 -27q-45 0px -73 26 t-28 71zM40px3 160px6q0px 45 28 73.5t75 28.5q41 0px 68.5 -30px.5t27.5 -71.5q0px -45 -26.5 -71t-69.5 -26q-47 0px -75 26t-28 71z" />
<glyph unicode="&#x2c6;" horiz-adv-x="923" d="M94 1341l217 160pxq53 35 10px9 0pxl20px3 -158l-10px5 -120pxl-153 120pxq-20px -14 -59.5 -44.5t-70px -55t-36.5 -29.5z" />
<glyph unicode="&#x2dc;" horiz-adv-x="778" d="M51 140px7l10px1 74q20px -29 46.5 -41.5t43.5 2.5q55 57 10px9.5 61t10px1.5 -32.5t10px0px -112.5l-10px0px -78q-18 37 -47 57.5t-56 3.5q-86 -82 -153.5 -62.5t-145.5 128.5z" />
<glyph unicode="&#x20px0px0px;" horiz-adv-x="911" />
<glyph unicode="&#x20px0px1;" horiz-adv-x="1824" />
<glyph unicode="&#x20px0px2;" horiz-adv-x="911" />
<glyph unicode="&#x20px0px3;" horiz-adv-x="1824" />
<glyph unicode="&#x20px0px4;" horiz-adv-x="60px8" />
<glyph unicode="&#x20px0px5;" horiz-adv-x="454" />
<glyph unicode="&#x20px0px6;" horiz-adv-x="30px3" />
<glyph unicode="&#x20px0px7;" horiz-adv-x="30px3" />
<glyph unicode="&#x20px0px8;" horiz-adv-x="227" />
<glyph unicode="&#x20px0px9;" horiz-adv-x="364" />
<glyph unicode="&#x20px0pxa;" horiz-adv-x="10px0px" />
<glyph unicode="&#x20px10px;" horiz-adv-x="860px" d="M2 516v166h633v-166h-633z" />
<glyph unicode="&#x20px11;" horiz-adv-x="860px" d="M2 516v166h633v-166h-633z" />
<glyph unicode="&#x20px12;" horiz-adv-x="860px" d="M2 516v166h633v-166h-633z" />
<glyph unicode="&#x20px13;" horiz-adv-x="989" d="M10px 516v166h752v-166h-752z" />
<glyph unicode="&#x20px14;" horiz-adv-x="1665" d="M12 516v166h140px3v-166h-140px3z" />
<glyph unicode="&#x20px18;" horiz-adv-x="370px" d="M-10px 120px2l98 244l119 -4l-57 -20px9q33 -10px 32 -51q2 -70px -69 -88q-68 -16 -10px9 28q-26 31 -14 80pxz" />
<glyph unicode="&#x20px19;" horiz-adv-x="378" d="M-2 10px83l57 20px9q-33 10px -32 51q-2 70px 69 89q68 16 10px9 -29q27 -31 14 -80pxl-98 -244z" />
<glyph unicode="&#x20px1a;" horiz-adv-x="366" d="M20px 2v471l164 2v-475z" />
<glyph unicode="&#x20px1c;" horiz-adv-x="573" d="M-4 120px8l90px 238l127 -4l-53 -20px3q25 -25 24 -49q0px -39 -26.5 -66.5t-67.5 -27.5q-45 0px -73.5 32.5t-20px.5 79.5zM250px 120px8l90px 238l129 -4l-51 -20px3q20px -18 20px -49q0px -39 -26.5 -66.5t-67.5 -27.5q-45 0px -73.5 32.5t-20px.5 79.5z" />
<glyph unicode="&#x20px1d;" horiz-adv-x="60px2" d="M-12 10px98l51 20px2q-20px 18 -21 50pxq0px 39 27 66.5t68 27.5q45 0px 73.5 -33t20px.5 -80pxl-90px -237zM244 10px98l53 20px2q-25 25 -25 50pxq0px 39 27 66.5t68 27.5q45 0px 73.5 -33t20px.5 -80pxl-90px -237z" />
<glyph unicode="&#x20px1e;" horiz-adv-x="577" d="M23 2v481l165 2v-485zM262 2v481l164 2v-485z" />
<glyph unicode="&#x20px22;" horiz-adv-x="854" d="M4 698.5q0px 137.5 96.5 235.5t233.5 98q133 0px 232.5 -99t99.5 -235q0px -137 -98.5 -232t-233.5 -95q-139 0px -234.5 95t-95.5 232.5zM172 698q0px -68 48 -114.5t114 -46.5q70px 0px 119 47t49 114q0px 70px -49.5 118t-118.5 48q-66 0px -114 -48t-48 -118z" />
<glyph unicode="&#x20px26;" horiz-adv-x="817" d="M8 10px0pxq0px 41 27.5 71t70px.5 30pxq41 0px 69 -31t28 -70pxq0px -45 -26.5 -71.5t-70px.5 -26.5q-45 0px -71.5 26.5t-26.5 71.5zM250px 10px0pxq0px 41 26.5 71t71.5 30pxq41 0px 68.5 -31t27.5 -70pxq0px -45 -26.5 -71.5t-69.5 -26.5q-45 0px -71.5 26.5t-26.5 71.5zM50px2 10px0pxq0px 41 27.5 71t70px.5 30px q41 0px 68.5 -31t27.5 -70pxq0px -45 -26.5 -71.5t-69.5 -26.5q-45 0px -71.5 26.5t-26.5 71.5z" />
<glyph unicode="&#x20px2f;" horiz-adv-x="364" />
<glyph unicode="&#x20px39;" horiz-adv-x="636" d="M-2 681q2 17 31 54v-2q133 190px 256 348l133 -98l-225 -30px5q12 -14 113.5 -153.5t111.5 -149.5l-131 -115l-264 371q-27 33 -25 50pxz" />
<glyph unicode="&#x20px3a;" horiz-adv-x="675" d="M41 979l139 96q238 -328 252 -346q25 -31 27 -49t-19 -55q-35 -51 -131 -179.5t-135 -189.5l-131 111q8 12 10px8.5 146t118.5 161z" />
<glyph unicode="&#x20px5f;" horiz-adv-x="454" />
<glyph unicode="&#x2122;" horiz-adv-x="1456" d="M14 1221v165h492v-165h-168v-592h-164v592h-160pxzM567 623v673q0px 59 41 86t87 11.5t63 -60px.5l151 -415q10px 27 48 128t70px 183t42 10px0pxq18 43 60px 57.5t77 -10pxt35 -80px.5v-673h-160pxl9 262l45 245l-13 3l-49 -170pxq-25 -66 -86 -189q-35 -61 -82 -61q-53 0px -76 57v-2 q-16 31 -30px.5 64.5t-29.5 70px.5t-24 55l-43 175l-12 -3l41 -260pxl2 -247h-166z" />
<glyph unicode="&#xe0px0px0px;" horiz-adv-x="980px" d="M0px 980pxh980pxv-980pxh-980pxv980pxz" />
<glyph unicode="&#xfb0px1;" horiz-adv-x="862" d="M492 120px0pxq0px 47 29.5 76t70px.5 29q43 0px 75 -30pxt32 -75q0px -43 -32 -72.5t-75 -29.5q-41 0px -70px.5 29.5t-29.5 72.5zM512 0pxv985h164v-985h-164zM0px 0pxv10px71q0px 139 115.5 234.5t273.5 95.5v-164q-90px 0px -157.5 -49t-67.5 -117v-30px3h20px3v-164h-20px3v-60px4h-164z" />
<glyph unicode="&#xfb0px2;" horiz-adv-x="976" d="M50px0px 332v10px57h164v-10px57q0px -72 60px.5 -120pxt148.5 -48v-164q-160px 0px -266.5 93.5t-10px6.5 238.5zM0px 0pxv10px71q0px 139 115.5 234.5t273.5 95.5v-164q-90px 0px -157.5 -49t-67.5 -117v-30px3h20px3v-164h-20px3v-60px4h-164z" />
<glyph unicode="&#xfb0px3;" horiz-adv-x="1361" d="M991 120px0pxq0px 47 29.5 76t70px.5 29q43 0px 75 -30pxt32 -75q0px -43 -32 -72.5t-75 -29.5q-41 0px -70px.5 29.5t-29.5 72.5zM10px11 0pxv985h164v-985h-164zM50px0px 0pxv10px71q0px 139 115.5 234.5t273.5 95.5v-164q-90px 0px -157.5 -49t-67.5 -117v-30px3h20px3v-164h-20px3v-60px4h-164zM0px 0pxv10px71 q0px 139 115.5 234.5t273.5 95.5v-164q-90px 0px -157.5 -49t-67.5 -117v-30px3h20px3v-164h-20px3v-60px4h-164z" />
<glyph unicode="&#xfb0px4;" horiz-adv-x="1476" d="M999 332v10px57h164v-10px57q0px -72 60px.5 -120pxt148.5 -48v-164q-160px 0px -266.5 93.5t-10px6.5 238.5zM50px0px 0pxv10px71q0px 139 115.5 234.5t273.5 95.5v-164q-90px 0px -157.5 -49t-67.5 -117v-30px3h20px3v-164h-20px3v-60px4h-164zM0px 0pxv10px71q0px 139 115.5 234.5t273.5 95.5v-164q-90px 0px -157.5 -49 t-67.5 -117v-30px3h20px3v-164h-20px3v-60px4h-164z" />
<glyph horiz-adv-x="917" />
</font>
</defs>
</svg>
